<svg xmlns="http://www.w3.org/2000/svg" width="400" height="400" viewBox="0 0 400 400"><title>AT-SUIT</title><path fill="#000000" fill-rule="evenodd" d="M20.18 223.96L19.95 224.13L19.74 224.27L19.22 224.67L19.02 224.82L18.51 225.25L18.33 225.41L17.84 225.86L17.66 226.03L17.2 226.5L17.03 226.68L16.58 227.17L16.42 227.36L16.0 227.87L15.85 228.07L15.46 228.6L15.32 228.81L14.95 229.36L14.82 229.57L14.48 230.13L14.36 230.35L14.05 230.93L13.94 231.16L13.66 231.75L13.56 231.98L13.3 232.59L13.21 232.82L12.99 233.45L12.91 233.68L12.72 234.31L12.65 234.55L12.49 235.19L12.44 235.44L12.31 236.08L12.26 236.33L12.16 236.98L12.13 237.23L12.07 237.89L12.05 238.13L12.01 238.79L12.0 239.04L12.0 239.7L12.0 239.95L12.03 240.61L12.05 240.86L12.11 241.52L12.14 241.76L12.23 242.42L12.27 242.66L12.4 243.31L12.45 243.55L12.52 243.88L12.7 244.61L12.73 244.72L12.75 244.8L12.77 244.91L13.45 247.53L13.48 247.64L13.5 247.72L13.53 247.83L14.26 250.44L14.29 250.55L14.31 250.63L14.34 250.74L15.1 253.34L15.14 253.44L15.16 253.52L15.19 253.63L16.0 256.22L16.03 256.32L16.06 256.4L16.09 256.51L16.94 259.08L16.98 259.19L17.01 259.27L17.04 259.37L17.93 261.93L17.97 262.04L18.0 262.12L18.04 262.22L18.97 264.77L19.01 264.87L19.04 264.95L19.08 265.05L20.05 267.58L20.09 267.69L20.12 267.76L20.17 267.87L21.18 270.38L21.22 270.48L21.26 270.56L21.3 270.66L22.36 273.16L22.4 273.26L22.43 273.34L22.48 273.44L23.58 275.92L23.62 276.02L23.66 276.1L23.7 276.2L24.84 278.66L24.89 278.76L24.92 278.83L24.97 278.94L26.15 281.38L26.2 281.48L26.24 281.55L26.29 281.65L27.5 284.07L27.55 284.17L27.59 284.25L27.64 284.35L28.9 286.75L28.95 286.84L28.99 286.92L29.05 287.02L30.34 289.4L30.4 289.49L30.44 289.57L30.49 289.66L31.83 292.02L31.88 292.12L31.92 292.19L31.98 292.29L33.35 294.62L33.41 294.72L33.45 294.79L33.51 294.89L33.95 295.6L34.12 295.88L34.26 296.09L34.63 296.64L34.77 296.84L35.17 297.37L35.32 297.56L35.75 298.07L35.91 298.26L36.36 298.75L36.53 298.92L37.0 299.39L37.18 299.56L37.67 300.0L37.86 300.16L38.37 300.58L38.57 300.73L39.1 301.13L39.3 301.27L39.85 301.63L40.06 301.77L40.63 302.11L40.85 302.23L41.43 302.54L41.65 302.65L42.25 302.93L42.48 303.03L43.09 303.29L43.32 303.38L43.94 303.6L44.18 303.68L44.81 303.87L45.05 303.94L45.69 304.1L45.93 304.16L46.58 304.29L46.83 304.33L47.48 304.43L47.73 304.46L48.39 304.53L48.63 304.55L49.29 304.58L49.54 304.59L50.2 304.6L50.45 304.59L51.11 304.56L51.36 304.55L52.02 304.49L52.26 304.46L52.92 304.36L53.16 304.32L53.49 304.27L53.56 304.25L54.04 304.17L54.51 304.09L54.98 304.03L55.45 303.97L55.93 303.92L56.4 303.87L56.87 303.84L57.35 303.81L57.82 303.79L58.29 303.78L58.77 303.77L59.24 303.78L59.72 303.79L60.19 303.81L60.67 303.83L61.14 303.87L61.61 303.91L62.09 303.96L62.56 304.02L63.03 304.08L63.5 304.15L63.97 304.24L64.43 304.32L64.9 304.42L65.36 304.52L65.82 304.63L66.28 304.75L66.74 304.88L67.2 305.01L67.65 305.15L68.1 305.3L68.55 305.46L69.0 305.62L69.44 305.79L69.88 305.97L70.32 306.15L70.75 306.34L71.18 306.54L71.61 306.75L72.04 306.96L72.46 307.18L72.87 307.41L73.29 307.64L73.7 307.88L74.1 308.13L74.5 308.38L74.9 308.64L75.29 308.91L75.68 309.18L76.07 309.46L76.45 309.75L76.82 310.04L77.19 310.33L77.56 310.64L77.92 310.95L78.27 311.26L78.62 311.58L78.97 311.91L79.3 312.24L79.64 312.58L79.97 312.93L80.29 313.27L80.61 313.63L80.92 313.99L81.22 314.35L81.52 314.72L81.81 315.1L82.1 315.47L82.38 315.86L82.65 316.24L82.92 316.64L83.18 317.03L83.44 317.43L83.68 317.84L83.93 318.25L84.16 318.66L84.39 319.08L84.61 319.5L84.82 319.92L85.03 320.35L85.23 320.78L85.42 321.21L85.61 321.65L85.79 322.09L85.96 322.53L86.12 322.98L86.28 323.43L86.43 323.88L86.57 324.33L86.71 324.79L86.84 325.24L86.96 325.7L87.07 326.17L87.17 326.63L87.27 327.09L87.36 327.56L87.44 328.03L87.52 328.5L87.58 328.97L87.64 329.44L87.69 329.91L87.74 330.38L87.77 330.86L87.8 331.33L87.82 331.8L87.83 332.28L87.84 332.75L87.83 333.23L87.82 333.7L87.8 334.18L87.78 334.65L87.74 335.13L87.7 335.6L87.65 336.07L87.59 336.54L87.53 337.01L87.45 337.48L87.37 337.96L87.33 338.17L87.29 338.45L87.24 338.69L87.15 339.34L87.12 339.59L87.06 340.25L87.05 340.5L87.02 341.16L87.01 341.41L87.02 342.07L87.03 342.32L87.06 342.98L87.08 343.22L87.15 343.88L87.18 344.13L87.28 344.78L87.32 345.02L87.45 345.67L87.51 345.91L87.67 346.56L87.74 346.79L87.93 347.43L88.01 347.66L88.23 348.29L88.32 348.52L88.57 349.13L88.67 349.35L88.96 349.95L89.07 350.17L89.38 350.76L89.5 350.97L89.84 351.54L89.97 351.75L90.34 352.3L90.48 352.5L90.87 353.04L91.02 353.23L91.44 353.75L91.6 353.93L92.04 354.43L92.21 354.61L92.68 355.08L92.86 355.25L93.35 355.7L93.53 355.86L94.04 356.28L94.24 356.44L94.76 356.83L94.97 356.98L95.51 357.35L95.72 357.48L96.0 357.66L96.65 358.05L96.74 358.11L96.81 358.15L96.91 358.21L99.24 359.59L99.34 359.64L99.41 359.68L99.51 359.74L101.87 361.08L101.97 361.13L102.04 361.17L102.14 361.22L104.52 362.52L104.61 362.58L104.69 362.61L104.79 362.67L107.19 363.93L107.29 363.98L107.36 364.02L107.46 364.07L109.88 365.28L109.98 365.33L110.05 365.37L110.16 365.42L112.6 366.6L112.7 366.65L112.77 366.68L112.87 366.73L115.33 367.87L115.43 367.92L115.51 367.95L115.61 368.0L118.09 369.1L118.19 369.14L118.27 369.17L118.37 369.22L120.86 370.28L120.97 370.32L121.05 370.35L121.15 370.39L123.66 371.41L123.76 371.45L123.84 371.48L123.95 371.52L126.47 372.5L126.58 372.54L126.66 372.57L126.76 372.61L129.31 373.54L129.41 373.58L129.49 373.61L129.59 373.65L132.15 374.54L132.26 374.58L132.34 374.6L132.44 374.64L135.02 375.49L135.12 375.52L135.2 375.55L135.31 375.58L137.9 376.39L138.0 376.42L138.08 376.45L138.19 376.48L140.79 377.25L140.9 377.28L140.98 377.3L141.08 377.33L143.7 378.05L143.8 378.08L143.88 378.1L143.99 378.13L146.62 378.81L146.72 378.84L146.8 378.86L146.91 378.89L147.72 379.08L148.05 379.16L148.29 379.21L148.94 379.34L149.18 379.38L149.84 379.47L150.08 379.5L150.74 379.56L150.99 379.58L151.65 379.6L151.9 379.61L152.56 379.61L152.81 379.6L153.47 379.56L153.72 379.54L154.38 379.48L154.62 379.45L155.28 379.35L155.52 379.3L156.17 379.17L156.41 379.12L157.05 378.96L157.29 378.89L157.92 378.7L158.16 378.62L158.78 378.4L159.01 378.31L159.63 378.06L159.85 377.96L160.45 377.67L160.67 377.56L161.26 377.25L161.47 377.13L162.04 376.79L162.25 376.66L162.8 376.29L163.01 376.15L163.54 375.76L163.73 375.61L164.25 375.19L164.44 375.03L164.93 374.59L165.11 374.42L165.58 373.95L165.75 373.77L166.2 373.28L166.36 373.1L166.79 372.59L166.94 372.39L167.34 371.87L167.48 371.66L167.67 371.39L167.71 371.33L167.99 370.93L168.27 370.55L168.56 370.17L168.85 369.79L169.15 369.42L169.45 369.06L169.76 368.7L170.08 368.34L170.4 367.99L170.72 367.65L171.06 367.31L171.39 366.98L171.74 366.65L172.09 366.33L172.44 366.01L172.8 365.7L173.16 365.4L173.53 365.1L173.91 364.8L174.29 364.52L174.67 364.24L175.06 363.96L175.45 363.7L175.85 363.43L176.25 363.18L176.65 362.93L177.06 362.69L177.47 362.46L177.89 362.23L178.31 362.01L178.73 361.79L179.16 361.59L179.59 361.38L180.03 361.19L180.46 361.01L180.9 360.83L181.35 360.66L181.79 360.49L182.24 360.33L182.69 360.18L183.14 360.04L183.6 359.91L184.06 359.78L184.52 359.66L184.98 359.55L185.44 359.44L185.91 359.35L186.37 359.26L186.84 359.17L187.31 359.1L187.78 359.03L188.25 358.98L188.72 358.92L189.2 358.88L189.67 358.85L190.14 358.82L190.62 358.8L191.09 358.78L191.57 358.78L192.04 358.78L192.52 358.79L192.99 358.81L193.47 358.84L193.94 358.87L194.41 358.92L194.88 358.97L195.36 359.02L195.83 359.09L196.3 359.16L196.76 359.24L197.23 359.33L197.69 359.43L198.16 359.53L198.62 359.64L199.08 359.76L199.54 359.88L199.99 360.02L200.45 360.16L200.9 360.31L201.35 360.46L201.79 360.63L202.24 360.8L202.68 360.97L203.11 361.16L203.55 361.35L203.98 361.55L204.41 361.75L204.83 361.97L205.25 362.19L205.67 362.41L206.08 362.65L206.49 362.89L206.9 363.13L207.3 363.39L207.7 363.65L208.09 363.91L208.48 364.19L208.86 364.47L209.24 364.75L209.62 365.04L209.99 365.34L210.35 365.64L210.71 365.95L211.07 366.27L211.42 366.59L211.76 366.92L212.1 367.25L212.44 367.59L212.76 367.93L213.09 368.28L213.4 368.64L213.71 368.99L214.02 369.36L214.32 369.73L214.61 370.1L214.9 370.48L215.18 370.86L215.46 371.26L215.57 371.43L215.74 371.66L215.88 371.87L216.28 372.39L216.43 372.59L216.86 373.1L217.02 373.28L217.47 373.77L217.64 373.95L218.11 374.41L218.29 374.58L218.78 375.03L218.97 375.19L219.48 375.6L219.68 375.76L220.21 376.15L220.41 376.29L220.97 376.66L221.18 376.79L221.74 377.13L221.96 377.25L222.54 377.56L222.76 377.67L223.36 377.95L223.59 378.05L224.2 378.31L224.43 378.4L225.05 378.62L225.29 378.7L225.92 378.89L226.16 378.96L226.8 379.12L227.04 379.17L227.69 379.3L227.94 379.35L228.59 379.45L228.84 379.48L229.5 379.54L229.74 379.56L230.4 379.6L230.65 379.61L231.31 379.61L231.56 379.6L232.22 379.58L232.47 379.56L233.13 379.5L233.37 379.47L234.03 379.38L234.27 379.34L234.92 379.21L235.16 379.16L235.49 379.09L236.22 378.91L236.33 378.88L236.41 378.86L236.52 378.84L239.14 378.16L239.25 378.13L239.33 378.11L239.44 378.08L242.05 377.35L242.16 377.32L242.24 377.3L242.35 377.27L244.95 376.51L245.05 376.47L245.13 376.45L245.24 376.42L247.83 375.61L247.93 375.58L248.01 375.55L248.12 375.52L250.69 374.67L250.8 374.63L250.88 374.6L250.98 374.57L253.54 373.68L253.65 373.64L253.73 373.61L253.83 373.57L256.38 372.64L256.48 372.6L256.56 372.57L256.66 372.53L259.19 371.56L259.3 371.52L259.37 371.48L259.48 371.44L261.99 370.43L262.09 370.39L262.17 370.35L262.27 370.31L264.77 369.25L264.87 369.21L264.95 369.18L265.05 369.13L267.53 368.03L267.63 367.99L267.71 367.95L267.81 367.91L270.27 366.77L270.37 366.72L270.44 366.69L270.54 366.64L272.98 365.46L273.09 365.41L273.16 365.37L273.26 365.32L275.68 364.11L275.78 364.06L275.86 364.02L275.95 363.97L278.36 362.71L278.45 362.66L278.53 362.62L278.63 362.56L281.01 361.27L281.1 361.21L281.18 361.17L281.27 361.12L283.63 359.78L283.73 359.73L283.8 359.69L283.9 359.63L286.23 358.26L286.33 358.2L286.4 358.16L286.5 358.1L287.21 357.66L287.49 357.49L287.7 357.35L288.25 356.98L288.45 356.84L288.98 356.44L289.17 356.29L289.68 355.86L289.87 355.7L290.35 355.25L290.53 355.08L291.0 354.61L291.17 354.43L291.61 353.94L291.77 353.75L292.19 353.24L292.34 353.04L292.74 352.51L292.88 352.31L293.24 351.76L293.38 351.55L293.72 350.98L293.84 350.76L294.15 350.18L294.26 349.96L294.54 349.36L294.64 349.13L294.9 348.52L294.99 348.29L295.21 347.67L295.29 347.43L295.48 346.8L295.55 346.56L295.71 345.92L295.77 345.68L295.9 345.03L295.94 344.78L296.04 344.13L296.07 343.88L296.14 343.22L296.16 342.98L296.19 342.32L296.2 342.07L296.21 341.41L296.2 341.16L296.17 340.5L296.16 340.25L296.1 339.59L296.07 339.35L295.97 338.69L295.93 338.45L295.88 338.12L295.86 338.04L295.78 337.57L295.7 337.1L295.64 336.63L295.58 336.16L295.53 335.68L295.48 335.21L295.45 334.74L295.42 334.26L295.4 333.79L295.39 333.31L295.38 332.84L295.39 332.36L295.4 331.89L295.42 331.42L295.44 330.94L295.48 330.47L295.52 329.99L295.57 329.52L295.63 329.05L295.69 328.58L295.76 328.11L295.84 327.64L295.93 327.18L296.03 326.71L296.13 326.25L296.24 325.79L296.36 325.33L296.49 324.87L296.62 324.41L296.76 323.96L296.91 323.51L297.07 323.06L297.23 322.61L297.4 322.17L297.58 321.73L297.76 321.29L297.95 320.86L298.15 320.43L298.36 320.0L298.57 319.57L298.79 319.15L299.02 318.74L299.25 318.32L299.49 317.91L299.74 317.51L299.99 317.11L300.25 316.71L300.52 316.32L300.79 315.93L301.07 315.54L301.36 315.16L301.65 314.79L301.94 314.42L302.25 314.05L302.56 313.69L302.87 313.34L303.19 312.99L303.52 312.64L303.85 312.3L304.19 311.97L304.54 311.64L304.88 311.32L305.24 311.0L305.6 310.69L305.96 310.39L306.33 310.09L306.7 309.8L307.08 309.51L307.47 309.23L307.85 308.96L308.25 308.69L308.64 308.43L309.04 308.17L309.45 307.93L309.86 307.68L310.27 307.45L310.69 307.22L311.11 307.0L311.53 306.79L311.96 306.58L312.39 306.38L312.82 306.19L313.26 306.0L313.7 305.82L314.14 305.65L314.59 305.48L315.04 305.33L315.49 305.18L315.94 305.04L316.4 304.9L316.85 304.77L317.31 304.65L317.77 304.54L318.24 304.44L318.7 304.34L319.17 304.25L319.64 304.17L320.11 304.09L320.58 304.03L321.05 303.97L321.52 303.92L321.99 303.87L322.47 303.84L322.94 303.81L323.41 303.79L323.89 303.78L324.36 303.77L324.84 303.78L325.31 303.79L325.79 303.81L326.26 303.83L326.74 303.87L327.21 303.91L327.68 303.96L328.15 304.02L328.62 304.08L329.09 304.15L329.57 304.24L329.77 304.28L330.06 304.32L330.3 304.36L330.95 304.46L331.2 304.49L331.86 304.55L332.11 304.56L332.77 304.59L333.02 304.6L333.68 304.59L333.92 304.58L334.59 304.55L334.83 304.53L335.49 304.46L335.74 304.43L336.39 304.33L336.63 304.29L337.28 304.16L337.52 304.1L338.17 303.94L338.4 303.87L339.04 303.68L339.27 303.6L339.89 303.38L340.13 303.29L340.74 303.04L340.96 302.94L341.56 302.65L341.78 302.54L342.37 302.23L342.58 302.11L343.15 301.77L343.36 301.64L343.91 301.27L344.11 301.13L344.65 300.74L344.84 300.59L345.36 300.17L345.54 300.01L346.04 299.56L346.22 299.39L346.69 298.93L346.86 298.75L347.31 298.26L347.47 298.08L347.89 297.57L348.05 297.37L348.44 296.85L348.59 296.64L348.96 296.1L349.09 295.89L349.27 295.61L349.66 294.96L349.72 294.87L349.76 294.8L349.82 294.7L351.2 292.36L351.25 292.27L351.29 292.2L351.35 292.1L352.69 289.74L352.74 289.64L352.78 289.57L352.83 289.47L354.13 287.09L354.19 287.0L354.22 286.92L354.28 286.82L355.54 284.42L355.59 284.32L355.62 284.25L355.68 284.15L356.89 281.73L356.94 281.63L356.98 281.55L357.03 281.45L358.21 279.01L358.26 278.91L358.29 278.84L358.34 278.74L359.48 276.28L359.53 276.18L359.56 276.1L359.61 276.0L360.71 273.52L360.75 273.42L360.78 273.34L360.83 273.24L361.89 270.74L361.93 270.64L361.96 270.56L362.0 270.46L363.02 267.95L363.06 267.85L363.09 267.77L363.13 267.66L364.11 265.14L364.15 265.03L364.18 264.95L364.22 264.85L364.96 262.82L365.08 262.5L365.16 262.26L365.36 261.62L365.43 261.37L365.6 260.72L365.65 260.48L365.79 259.82L365.84 259.57L365.94 258.9L365.97 258.65L366.04 257.98L366.06 257.73L366.1 257.06L366.11 256.81L366.11 256.13L366.11 255.88L366.08 255.21L366.06 254.96L366.0 254.29L365.97 254.04L365.88 253.37L365.84 253.12L365.71 252.46L365.66 252.21L365.5 251.56L365.43 251.31L365.24 250.67L365.16 250.43L364.94 249.79L364.85 249.56L364.59 248.93L364.49 248.7L364.21 248.09L364.09 247.87L363.78 247.27L363.66 247.05L363.31 246.47L363.18 246.26L362.81 245.7L362.66 245.49L362.26 244.95L362.11 244.75L361.68 244.22L361.52 244.03L361.07 243.53L360.9 243.35L360.42 242.87L360.24 242.7L359.74 242.24L359.55 242.08L359.03 241.65L358.83 241.49L358.29 241.09L358.09 240.94L357.53 240.57L357.31 240.43L356.74 240.09L356.52 239.96L355.93 239.64L355.7 239.53L355.09 239.24L354.86 239.14L354.24 238.88L354.0 238.79L353.37 238.56L353.13 238.48L352.49 238.28L352.24 238.21L351.59 238.05L351.34 237.99L350.68 237.86L350.44 237.82L349.77 237.72L349.52 237.69L348.85 237.62L348.6 237.6L347.92 237.57L347.67 237.56L347.34 237.56L279.2 237.56L278.86 237.56L278.6 237.57L277.92 237.61L277.66 237.62L276.99 237.69L276.73 237.72L276.06 237.83L275.81 237.87L275.14 238.01L274.89 238.06L274.23 238.23L273.98 238.3L273.33 238.5L273.09 238.58L272.44 238.82L272.21 238.91L271.58 239.18L271.34 239.28L270.73 239.58L270.5 239.7L269.9 240.02L269.68 240.15L269.1 240.51L268.89 240.65L268.32 241.03L268.11 241.18L267.57 241.59L267.37 241.75L266.85 242.19L266.66 242.36L266.16 242.83L265.97 243.01L265.5 243.5L265.33 243.68L264.87 244.2L264.71 244.39L264.29 244.93L264.13 245.13L263.73 245.69L263.59 245.9L263.4 246.18L263.34 246.27L262.62 247.38L261.83 248.54L261.03 249.68L260.21 250.81L259.37 251.92L258.51 253.03L257.63 254.11L256.74 255.19L255.83 256.24L254.9 257.29L253.95 258.31L252.99 259.33L252.01 260.32L251.01 261.3L250.0 262.27L248.98 263.21L247.93 264.14L246.88 265.06L245.81 265.95L244.72 266.83L243.62 267.69L242.5 268.53L241.38 269.36L240.23 270.16L239.08 270.95L237.91 271.71L236.73 272.46L235.54 273.19L234.34 273.9L233.12 274.59L231.9 275.26L230.66 275.91L229.41 276.54L228.16 277.15L226.89 277.73L225.61 278.3L224.33 278.85L223.03 279.37L221.73 279.87L220.42 280.36L219.1 280.82L217.77 281.26L216.44 281.67L215.1 282.07L213.76 282.44L212.4 282.79L211.05 283.12L209.68 283.43L208.32 283.71L206.94 283.98L205.57 284.22L204.19 284.43L202.81 284.63L201.42 284.8L200.03 284.95L198.64 285.07L197.25 285.18L195.85 285.26L194.46 285.32L193.06 285.35L191.66 285.36L190.27 285.35L188.87 285.32L187.48 285.26L186.08 285.19L184.69 285.08L183.3 284.96L181.91 284.81L180.52 284.64L179.14 284.45L177.76 284.23L176.38 283.99L175.01 283.73L173.64 283.45L172.28 283.15L170.92 282.82L169.57 282.47L168.22 282.1L166.88 281.7L165.55 281.29L164.22 280.85L162.9 280.39L161.59 279.91L160.29 279.41L158.99 278.89L157.71 278.34L156.43 277.78L155.16 277.19L153.9 276.58L152.65 275.96L151.42 275.31L150.19 274.64L148.97 273.95L147.77 273.25L146.58 272.52L145.4 271.77L144.23 271.01L143.07 270.22L141.93 269.42L140.8 268.6L139.69 267.76L138.58 266.9L137.5 266.02L136.42 265.13L135.37 264.22L134.32 263.29L133.29 262.34L132.28 261.38L131.29 260.4L130.31 259.4L129.34 258.39L128.4 257.37L127.47 256.33L126.55 255.27L125.66 254.2L124.78 253.11L123.92 252.01L123.08 250.89L122.25 249.77L121.45 248.63L120.66 247.47L119.89 246.3L119.15 245.12L118.42 243.93L117.71 242.73L117.02 241.51L116.35 240.29L115.7 239.05L115.07 237.8L114.46 236.55L113.88 235.28L113.31 234.0L112.76 232.72L112.24 231.42L111.74 230.12L111.25 228.81L110.79 227.49L110.35 226.16L109.94 224.83L109.54 223.49L109.17 222.15L108.82 220.79L108.49 219.44L108.18 218.07L107.9 216.71L107.63 215.33L107.39 213.96L107.18 212.58L106.98 211.2L106.81 209.81L106.66 208.42L106.54 207.03L106.43 205.64L106.35 204.24L106.29 202.85L106.26 201.45L106.25 200.05L106.26 198.66L106.29 197.26L106.35 195.87L106.42 194.47L106.53 193.08L106.65 191.69L106.8 190.3L106.97 188.91L107.16 187.53L107.38 186.15L107.61 184.77L107.88 183.4L108.16 182.03L108.46 180.67L108.79 179.31L109.14 177.96L109.51 176.61L109.91 175.27L110.32 173.94L110.76 172.61L111.22 171.29L111.7 169.98L112.2 168.68L112.72 167.38L113.27 166.1L113.83 164.82L114.42 163.55L115.02 162.29L115.65 161.04L116.3 159.81L116.97 158.58L117.65 157.36L118.36 156.16L119.09 154.97L119.84 153.79L120.6 152.62L121.39 151.46L122.19 150.32L123.01 149.19L123.85 148.08L124.71 146.97L125.59 145.89L126.48 144.81L127.39 143.76L128.32 142.71L129.27 141.69L130.23 140.67L131.21 139.68L132.2 138.7L133.22 137.73L134.24 136.79L135.28 135.86L136.34 134.94L137.41 134.05L138.5 133.17L139.6 132.31L140.71 131.47L141.84 130.64L142.98 129.84L144.14 129.05L145.31 128.29L146.49 127.54L147.68 126.81L148.88 126.1L150.1 125.41L151.32 124.74L152.56 124.09L153.81 123.46L155.06 122.85L156.33 122.27L157.61 121.7L158.89 121.15L160.19 120.63L161.49 120.13L162.8 119.64L164.12 119.18L165.44 118.74L166.78 118.33L168.12 117.93L169.46 117.56L170.82 117.21L172.17 116.88L173.54 116.57L174.9 116.29L176.27 116.02L177.65 115.78L179.03 115.57L180.41 115.37L181.8 115.2L183.19 115.05L184.58 114.93L185.97 114.82L187.37 114.74L188.76 114.68L190.16 114.65L191.56 114.64L192.95 114.65L194.35 114.68L195.74 114.74L197.14 114.81L198.53 114.92L199.92 115.04L201.31 115.19L202.7 115.36L204.08 115.55L205.46 115.77L206.84 116.01L208.21 116.27L209.58 116.55L210.94 116.85L212.3 117.18L213.65 117.53L215.0 117.9L216.34 118.3L217.67 118.71L219.0 119.15L220.32 119.61L221.63 120.09L222.93 120.59L224.23 121.11L225.51 121.66L226.79 122.22L228.06 122.81L229.32 123.42L230.56 124.04L231.8 124.69L233.03 125.36L234.24 126.05L235.45 126.75L236.64 127.48L237.82 128.23L238.99 128.99L240.15 129.78L241.29 130.58L242.42 131.4L243.53 132.24L244.63 133.1L245.72 133.98L246.8 134.87L247.85 135.78L248.9 136.71L249.92 137.66L250.94 138.62L251.93 139.6L252.91 140.6L253.88 141.61L254.82 142.63L255.75 143.67L256.67 144.73L257.56 145.8L258.44 146.89L259.3 147.99L260.14 149.11L260.97 150.23L261.77 151.37L262.56 152.53L263.35 153.74L263.39 153.8L263.52 153.99L263.66 154.21L264.06 154.77L264.21 154.98L264.64 155.52L264.8 155.72L265.25 156.23L265.43 156.42L265.9 156.92L266.09 157.1L266.59 157.57L266.78 157.74L267.3 158.19L267.5 158.35L268.05 158.77L268.26 158.92L268.82 159.31L269.04 159.45L269.62 159.81L269.84 159.94L270.45 160.27L270.67 160.39L271.29 160.69L271.53 160.8L272.16 161.07L272.4 161.16L273.04 161.4L273.29 161.48L273.94 161.69L274.19 161.76L274.86 161.93L275.11 161.99L275.78 162.12L276.04 162.17L276.71 162.27L276.97 162.31L277.65 162.37L277.91 162.39L278.6 162.43L278.86 162.43L279.2 162.44L347.34 162.44L347.67 162.44L347.92 162.43L348.6 162.4L348.85 162.38L349.52 162.31L349.77 162.28L350.43 162.18L350.68 162.14L351.34 162.01L351.59 161.95L352.24 161.79L352.49 161.72L353.13 161.52L353.37 161.44L354.0 161.21L354.24 161.12L354.86 160.86L355.09 160.76L355.7 160.47L355.92 160.36L356.52 160.04L356.74 159.92L357.31 159.57L357.53 159.43L358.08 159.06L358.29 158.91L358.83 158.51L359.03 158.35L359.55 157.92L359.74 157.76L360.24 157.31L360.42 157.13L360.89 156.65L361.07 156.47L361.52 155.97L361.68 155.78L362.11 155.26L362.26 155.06L362.66 154.51L362.8 154.31L363.18 153.75L363.31 153.53L363.65 152.95L363.78 152.73L364.09 152.14L364.2 151.91L364.49 151.3L364.59 151.07L364.84 150.45L364.93 150.21L365.16 149.58L365.24 149.34L365.43 148.69L365.49 148.45L365.65 147.79L365.71 147.55L365.83 146.89L365.88 146.64L365.97 145.97L366.0 145.72L366.06 145.05L366.08 144.8L366.11 144.13L366.11 143.87L366.11 143.2L366.1 142.95L366.06 142.28L366.04 142.02L365.97 141.35L365.94 141.1L365.84 140.44L365.79 140.19L365.66 139.53L365.6 139.29L365.43 138.63L365.36 138.39L365.16 137.75L365.08 137.51L364.97 137.19L364.25 135.23L364.21 135.13L364.18 135.05L364.14 134.95L363.15 132.38L363.11 132.28L363.08 132.2L363.04 132.09L362.04 129.62L361.99 129.52L361.96 129.44L361.92 129.34L360.86 126.84L360.82 126.74L360.79 126.66L360.74 126.56L359.64 124.08L359.6 123.98L359.56 123.9L359.52 123.8L358.38 121.34L358.33 121.24L358.3 121.17L358.25 121.06L357.07 118.62L357.02 118.52L356.98 118.45L356.93 118.35L355.72 115.93L355.67 115.83L355.63 115.75L355.58 115.65L354.32 113.25L354.27 113.16L354.23 113.08L354.17 112.98L352.88 110.6L352.82 110.51L352.78 110.43L352.73 110.34L351.39 107.98L351.34 107.88L351.3 107.81L351.24 107.71L349.87 105.38L349.81 105.28L349.77 105.21L349.71 105.11L349.27 104.4L349.1 104.12L348.96 103.91L348.59 103.36L348.45 103.16L348.05 102.63L347.9 102.44L347.47 101.93L347.31 101.74L346.86 101.25L346.69 101.08L346.22 100.61L346.04 100.44L345.55 100.0L345.36 99.84L344.85 99.42L344.65 99.27L344.12 98.87L343.92 98.73L343.36 98.37L343.16 98.23L342.59 97.89L342.37 97.77L341.79 97.46L341.57 97.35L340.97 97.07L340.74 96.97L340.13 96.71L339.9 96.62L339.28 96.4L339.04 96.32L338.41 96.13L338.17 96.06L337.53 95.9L337.29 95.84L336.64 95.71L336.39 95.67L335.74 95.57L335.49 95.54L334.83 95.47L334.59 95.45L333.93 95.42L333.68 95.41L333.02 95.4L332.77 95.41L332.11 95.44L331.86 95.45L331.2 95.51L330.95 95.54L330.3 95.64L330.05 95.68L329.73 95.73L329.65 95.75L329.18 95.83L328.71 95.91L328.24 95.97L327.77 96.03L327.29 96.08L326.82 96.13L326.35 96.16L325.87 96.19L325.4 96.21L324.92 96.22L324.45 96.23L323.97 96.22L323.5 96.21L323.03 96.19L322.55 96.17L322.08 96.13L321.6 96.09L321.13 96.04L320.66 95.98L320.19 95.92L319.72 95.85L319.25 95.76L318.79 95.68L318.32 95.58L317.86 95.48L317.4 95.37L316.94 95.25L316.48 95.12L316.02 94.99L315.57 94.85L315.12 94.7L314.67 94.54L314.22 94.38L313.78 94.21L313.34 94.03L312.9 93.85L312.47 93.66L312.04 93.46L311.61 93.25L311.18 93.04L310.76 92.82L310.35 92.59L309.93 92.36L309.52 92.12L309.12 91.87L308.72 91.62L308.32 91.36L307.92 91.09L307.54 90.82L307.15 90.54L306.77 90.25L306.4 89.96L306.03 89.67L305.66 89.36L305.3 89.05L304.95 88.74L304.6 88.42L304.25 88.09L303.91 87.76L303.58 87.42L303.25 87.07L302.93 86.73L302.61 86.37L302.3 86.01L302.0 85.65L301.7 85.28L301.41 84.9L301.12 84.53L300.84 84.14L300.57 83.76L300.3 83.36L300.04 82.97L299.78 82.57L299.53 82.16L299.29 81.75L299.06 81.34L298.83 80.92L298.61 80.5L298.4 80.08L298.19 79.65L297.99 79.22L297.8 78.79L297.61 78.35L297.43 77.91L297.26 77.47L297.09 77.02L296.94 76.57L296.79 76.12L296.65 75.67L296.51 75.21L296.38 74.76L296.26 74.3L296.15 73.83L296.05 73.37L295.95 72.91L295.86 72.44L295.78 71.97L295.7 71.5L295.64 71.03L295.58 70.56L295.53 70.09L295.48 69.62L295.45 69.14L295.42 68.67L295.4 68.2L295.39 67.72L295.38 67.25L295.39 66.77L295.4 66.3L295.42 65.82L295.44 65.35L295.48 64.87L295.52 64.4L295.57 63.93L295.63 63.46L295.69 62.99L295.76 62.52L295.85 62.04L295.88 61.83L295.93 61.55L295.97 61.31L296.07 60.66L296.1 60.41L296.16 59.75L296.17 59.5L296.2 58.84L296.21 58.59L296.2 57.93L296.19 57.68L296.16 57.02L296.14 56.78L296.07 56.12L296.04 55.87L295.94 55.22L295.9 54.98L295.77 54.33L295.71 54.09L295.55 53.44L295.48 53.21L295.29 52.57L295.21 52.34L294.99 51.71L294.9 51.48L294.65 50.87L294.55 50.65L294.26 50.05L294.15 49.83L293.84 49.24L293.72 49.03L293.38 48.46L293.25 48.25L292.88 47.7L292.74 47.5L292.35 46.96L292.2 46.77L291.78 46.25L291.62 46.07L291.17 45.57L291.0 45.39L290.54 44.92L290.36 44.75L289.87 44.3L289.69 44.14L289.18 43.72L288.98 43.56L288.45 43.17L288.25 43.02L287.71 42.65L287.5 42.52L287.22 42.34L286.57 41.95L286.48 41.89L286.41 41.85L286.31 41.79L283.97 40.41L283.88 40.36L283.81 40.32L283.71 40.26L281.35 38.92L281.25 38.87L281.18 38.83L281.08 38.78L278.7 37.48L278.61 37.42L278.53 37.39L278.43 37.33L276.03 36.07L275.93 36.02L275.86 35.98L275.76 35.93L273.34 34.72L273.24 34.67L273.16 34.63L273.06 34.58L270.62 33.4L270.52 33.35L270.45 33.32L270.35 33.27L267.89 32.13L267.79 32.08L267.71 32.05L267.61 32.0L265.13 30.9L265.03 30.86L264.95 30.83L264.85 30.78L262.35 29.72L262.25 29.68L262.17 29.65L262.07 29.61L259.56 28.59L259.46 28.55L259.38 28.52L259.27 28.48L256.75 27.5L256.64 27.46L256.56 27.43L256.46 27.39L253.91 26.46L253.81 26.42L253.73 26.39L253.62 26.35L251.07 25.46L250.96 25.42L250.88 25.4L250.78 25.36L248.2 24.51L248.1 24.48L248.02 24.45L247.91 24.42L245.32 23.61L245.22 23.58L245.14 23.55L245.03 23.52L242.43 22.75L242.32 22.72L242.24 22.7L242.13 22.67L239.52 21.95L239.42 21.92L239.33 21.9L239.23 21.87L236.6 21.19L236.5 21.16L236.41 21.14L236.31 21.11L235.5 20.92L235.17 20.84L234.93 20.79L234.28 20.66L234.04 20.62L233.38 20.53L233.13 20.5L232.48 20.44L232.23 20.42L231.57 20.4L231.32 20.39L230.66 20.39L230.41 20.4L229.75 20.44L229.5 20.46L228.84 20.52L228.6 20.55L227.94 20.65L227.7 20.7L227.05 20.83L226.81 20.88L226.17 21.04L225.93 21.11L225.29 21.3L225.06 21.38L224.44 21.6L224.2 21.69L223.59 21.94L223.37 22.04L222.77 22.33L222.55 22.44L221.96 22.75L221.75 22.87L221.18 23.21L220.97 23.34L220.42 23.71L220.21 23.85L219.68 24.24L219.48 24.39L218.97 24.81L218.78 24.97L218.29 25.41L218.11 25.58L217.64 26.05L217.47 26.23L217.02 26.72L216.86 26.9L216.43 27.41L216.28 27.61L215.88 28.13L215.74 28.34L215.55 28.61L215.5 28.67L215.23 29.07L214.95 29.45L214.66 29.83L214.37 30.21L214.07 30.58L213.77 30.94L213.46 31.3L213.14 31.66L212.82 32.01L212.49 32.35L212.16 32.69L211.82 33.02L211.48 33.35L211.13 33.67L210.78 33.99L210.42 34.3L210.05 34.6L209.69 34.9L209.31 35.2L208.93 35.48L208.55 35.76L208.16 36.04L207.77 36.3L207.37 36.57L206.97 36.82L206.57 37.07L206.16 37.31L205.75 37.54L205.33 37.77L204.91 37.99L204.48 38.21L204.06 38.41L203.63 38.62L203.19 38.81L202.76 38.99L202.32 39.17L201.87 39.34L201.43 39.51L200.98 39.67L200.53 39.82L200.08 39.96L199.62 40.09L199.16 40.22L198.7 40.34L198.24 40.45L197.78 40.56L197.31 40.65L196.85 40.74L196.38 40.83L195.91 40.9L195.44 40.97L194.97 41.02L194.5 41.08L194.02 41.12L193.55 41.15L193.08 41.18L192.6 41.2L192.13 41.22L191.65 41.22L191.18 41.22L190.7 41.21L190.23 41.19L189.75 41.16L189.28 41.13L188.81 41.08L188.34 41.03L187.86 40.98L187.39 40.91L186.92 40.84L186.46 40.76L185.99 40.67L185.52 40.57L185.06 40.47L184.6 40.36L184.14 40.24L183.68 40.12L183.23 39.98L182.77 39.84L182.32 39.69L181.87 39.54L181.43 39.37L180.98 39.2L180.54 39.03L180.1 38.84L179.67 38.65L179.24 38.45L178.81 38.25L178.39 38.03L177.97 37.81L177.55 37.59L177.14 37.35L176.73 37.11L176.32 36.87L175.92 36.61L175.52 36.35L175.13 36.09L174.74 35.81L174.35 35.53L173.98 35.25L173.6 34.96L173.23 34.66L172.87 34.36L172.51 34.05L172.15 33.73L171.8 33.41L171.46 33.08L171.12 32.75L170.78 32.41L170.46 32.07L170.13 31.72L169.82 31.36L169.51 31.01L169.2 30.64L168.9 30.27L168.61 29.9L168.32 29.52L168.04 29.14L167.76 28.74L167.65 28.57L167.48 28.34L167.34 28.13L166.94 27.61L166.79 27.41L166.36 26.9L166.2 26.72L165.75 26.23L165.58 26.05L165.11 25.59L164.93 25.42L164.44 24.97L164.25 24.81L163.74 24.4L163.54 24.24L163.01 23.85L162.8 23.71L162.25 23.34L162.04 23.21L161.48 22.87L161.26 22.75L160.68 22.44L160.45 22.33L159.86 22.05L159.63 21.95L159.02 21.69L158.79 21.6L158.16 21.38L157.93 21.3L157.3 21.11L157.06 21.04L156.42 20.88L156.17 20.83L155.53 20.7L155.28 20.65L154.63 20.55L154.38 20.52L153.72 20.46L153.48 20.44L152.82 20.4L152.57 20.39L151.91 20.39L151.66 20.4L151.0 20.42L150.75 20.44L150.09 20.5L149.85 20.53L149.19 20.62L148.95 20.66L148.3 20.79L148.05 20.84L147.73 20.91L147.0 21.09L146.89 21.12L146.81 21.14L146.7 21.16L144.08 21.84L143.97 21.87L143.89 21.89L143.78 21.92L141.17 22.65L141.06 22.68L140.98 22.7L140.87 22.73L138.27 23.49L138.17 23.53L138.09 23.55L137.98 23.58L135.39 24.39L135.29 24.42L135.21 24.45L135.1 24.48L132.53 25.33L132.42 25.37L132.34 25.4L132.24 25.43L129.68 26.32L129.57 26.36L129.49 26.39L129.39 26.43L126.84 27.36L126.74 27.4L126.66 27.43L126.56 27.47L124.03 28.44L123.92 28.48L123.85 28.52L123.74 28.56L121.23 29.57L121.13 29.61L121.05 29.65L120.95 29.69L118.45 30.75L118.35 30.79L118.27 30.82L118.17 30.87L115.69 31.97L115.59 32.01L115.51 32.05L115.41 32.09L112.95 33.23L112.85 33.28L112.78 33.31L112.67 33.36L110.23 34.54L110.13 34.59L110.06 34.63L109.96 34.68L107.54 35.89L107.44 35.94L107.36 35.98L107.26 36.03L104.86 37.29L104.77 37.34L104.69 37.38L104.59 37.44L102.21 38.73L102.12 38.79L102.04 38.83L101.94 38.88L99.59 40.22L99.49 40.27L99.42 40.31L99.32 40.37L96.98 41.74L96.89 41.8L96.82 41.84L96.72 41.9L96.01 42.34L95.73 42.51L95.52 42.65L94.97 43.02L94.77 43.16L94.24 43.56L94.05 43.71L93.54 44.14L93.35 44.3L92.86 44.75L92.69 44.92L92.22 45.39L92.05 45.57L91.61 46.06L91.45 46.25L91.03 46.76L90.88 46.96L90.48 47.49L90.34 47.69L89.97 48.24L89.84 48.45L89.5 49.02L89.38 49.24L89.07 49.82L88.96 50.04L88.68 50.64L88.57 50.87L88.32 51.48L88.23 51.71L88.01 52.33L87.93 52.57L87.74 53.2L87.67 53.44L87.51 54.08L87.45 54.32L87.32 54.97L87.28 55.22L87.18 55.87L87.15 56.12L87.08 56.78L87.06 57.02L87.03 57.68L87.02 57.93L87.01 58.59L87.02 58.84L87.05 59.5L87.06 59.75L87.12 60.41L87.15 60.65L87.24 61.31L87.29 61.55L87.34 61.88L87.36 61.96L87.44 62.43L87.52 62.9L87.58 63.37L87.64 63.84L87.69 64.32L87.74 64.79L87.77 65.26L87.8 65.74L87.82 66.21L87.83 66.69L87.84 67.16L87.83 67.64L87.82 68.11L87.8 68.58L87.78 69.06L87.74 69.53L87.7 70.01L87.65 70.48L87.59 70.95L87.53 71.42L87.45 71.89L87.37 72.36L87.29 72.82L87.19 73.29L87.09 73.75L86.98 74.21L86.86 74.67L86.73 75.13L86.6 75.59L86.46 76.04L86.31 76.49L86.15 76.94L85.99 77.39L85.82 77.83L85.64 78.27L85.46 78.71L85.27 79.14L85.07 79.57L84.86 80.0L84.65 80.43L84.43 80.85L84.2 81.26L83.97 81.68L83.73 82.09L83.48 82.49L83.23 82.89L82.97 83.29L82.7 83.68L82.43 84.07L82.15 84.46L81.86 84.84L81.57 85.21L81.27 85.58L80.97 85.95L80.66 86.31L80.35 86.66L80.02 87.01L79.7 87.36L79.37 87.7L79.03 88.03L78.68 88.36L78.33 88.68L77.98 89.0L77.62 89.31L77.26 89.61L76.89 89.91L76.51 90.2L76.14 90.49L75.75 90.77L75.36 91.04L74.97 91.31L74.58 91.57L74.17 91.83L73.77 92.07L73.36 92.32L72.95 92.55L72.53 92.78L72.11 93.0L71.69 93.21L71.26 93.42L70.83 93.62L70.4 93.81L69.96 94.0L69.52 94.18L69.08 94.35L68.63 94.52L68.18 94.67L67.73 94.82L67.28 94.96L66.82 95.1L66.37 95.23L65.91 95.35L65.44 95.46L64.98 95.56L64.52 95.66L64.05 95.75L63.58 95.83L63.11 95.91L62.64 95.97L62.17 96.03L61.7 96.08L61.23 96.13L60.75 96.16L60.28 96.19L59.8 96.21L59.33 96.22L58.86 96.23L58.38 96.22L57.91 96.21L57.43 96.19L56.96 96.17L56.48 96.13L56.01 96.09L55.54 96.04L55.07 95.98L54.6 95.92L54.13 95.85L53.65 95.76L53.44 95.72L53.16 95.68L52.92 95.64L52.26 95.54L52.02 95.51L51.36 95.45L51.11 95.44L50.45 95.41L50.2 95.4L49.54 95.41L49.29 95.42L48.63 95.45L48.39 95.47L47.73 95.54L47.48 95.57L46.83 95.67L46.58 95.71L45.94 95.84L45.69 95.9L45.05 96.06L44.81 96.13L44.18 96.32L43.95 96.4L43.32 96.62L43.09 96.71L42.48 96.96L42.26 97.06L41.66 97.35L41.44 97.46L40.85 97.77L40.64 97.89L40.07 98.23L39.86 98.36L39.31 98.73L39.1 98.87L38.57 99.26L38.38 99.41L37.86 99.83L37.68 99.99L37.18 100.44L37.0 100.61L36.53 101.07L36.36 101.25L35.91 101.74L35.75 101.92L35.33 102.43L35.17 102.63L34.78 103.15L34.63 103.36L34.26 103.9L34.13 104.11L33.95 104.39L33.56 105.04L33.5 105.13L33.46 105.2L33.4 105.3L32.02 107.64L31.97 107.73L31.93 107.8L31.87 107.9L30.53 110.26L30.48 110.36L30.44 110.43L30.38 110.53L29.09 112.91L29.03 113.0L28.99 113.08L28.94 113.18L27.68 115.58L27.63 115.68L27.59 115.75L27.54 115.85L26.32 118.27L26.27 118.37L26.24 118.45L26.19 118.55L25.01 120.99L24.96 121.09L24.93 121.16L24.88 121.26L23.74 123.72L23.69 123.82L23.66 123.9L23.61 124.0L22.51 126.48L22.47 126.58L22.44 126.66L22.39 126.76L21.33 129.26L21.29 129.36L21.26 129.44L21.22 129.54L20.2 132.05L20.16 132.15L20.13 132.23L20.09 132.34L19.11 134.86L19.07 134.97L19.04 135.05L19.0 135.15L18.07 137.7L18.03 137.8L18.0 137.88L17.96 137.98L17.07 140.54L17.03 140.65L17.01 140.73L16.97 140.83L16.12 143.41L16.09 143.51L16.06 143.59L16.03 143.7L15.22 146.29L15.19 146.39L15.16 146.47L15.13 146.58L14.36 149.18L14.33 149.29L14.31 149.37L14.28 149.47L13.56 152.09L13.53 152.19L13.5 152.27L13.48 152.38L12.8 155.01L12.77 155.11L12.75 155.2L12.72 155.3L12.52 156.11L12.45 156.44L12.4 156.68L12.27 157.33L12.23 157.57L12.14 158.23L12.11 158.48L12.05 159.13L12.03 159.38L12.01 160.04L12.0 160.29L12.0 160.95L12.01 161.2L12.05 161.86L12.06 162.11L12.13 162.77L12.16 163.01L12.26 163.67L12.31 163.91L12.44 164.56L12.49 164.8L12.65 165.44L12.72 165.68L12.91 166.31L12.99 166.55L13.21 167.17L13.3 167.4L13.55 168.02L13.65 168.24L13.94 168.84L14.05 169.06L14.36 169.65L14.48 169.86L14.82 170.43L14.95 170.64L15.32 171.19L15.46 171.4L15.85 171.93L16.0 172.13L16.42 172.64L16.58 172.83L17.02 173.32L17.19 173.5L17.66 173.97L17.84 174.14L18.33 174.59L18.51 174.75L19.02 175.18L19.22 175.33L19.74 175.73L19.95 175.87L20.22 176.06L20.28 176.11L20.68 176.38L21.06 176.66L21.44 176.95L21.82 177.24L22.19 177.54L22.55 177.84L22.91 178.15L23.27 178.47L23.61 178.79L23.96 179.11L24.3 179.45L24.63 179.79L24.96 180.13L25.28 180.48L25.6 180.83L25.91 181.19L26.21 181.55L26.51 181.92L26.81 182.3L27.09 182.68L27.37 183.06L27.65 183.45L27.91 183.84L28.18 184.24L28.43 184.64L28.68 185.04L28.92 185.45L29.15 185.86L29.38 186.28L29.6 186.7L29.82 187.13L30.02 187.55L30.22 187.98L30.42 188.42L30.6 188.85L30.78 189.29L30.95 189.74L31.12 190.18L31.28 190.63L31.42 191.08L31.57 191.53L31.7 191.99L31.83 192.45L31.95 192.91L32.06 193.37L32.17 193.83L32.26 194.3L32.35 194.76L32.43 195.23L32.51 195.7L32.58 196.17L32.63 196.64L32.69 197.11L32.73 197.59L32.76 198.06L32.79 198.53L32.81 199.01L32.82 199.48L32.83 199.96L32.83 200.43L32.82 200.91L32.8 201.38L32.77 201.86L32.74 202.33L32.69 202.8L32.64 203.27L32.59 203.75L32.52 204.22L32.45 204.69L32.37 205.15L32.28 205.62L32.18 206.09L32.08 206.55L31.97 207.01L31.85 207.47L31.73 207.93L31.59 208.38L31.45 208.84L31.3 209.29L31.15 209.74L30.98 210.18L30.81 210.63L30.64 211.07L30.45 211.5L30.26 211.94L30.06 212.37L29.86 212.8L29.64 213.22L29.42 213.64L29.2 214.06L28.96 214.47L28.72 214.88L28.48 215.29L28.22 215.69L27.96 216.09L27.7 216.48L27.42 216.87L27.14 217.25L26.86 217.63L26.57 218.01L26.27 218.38L25.96 218.74L25.66 219.1L25.34 219.46L25.02 219.81L24.69 220.15L24.36 220.49L24.02 220.83L23.68 221.15L23.33 221.48L22.97 221.79L22.62 222.1L22.25 222.41L21.88 222.71L21.51 223.0L21.13 223.29L20.75 223.57L20.35 223.85Z"/><path fill="#FF7A1A" fill-rule="evenodd" d="M27.9 235.23L27.7 235.38L27.5 235.53L27.31 235.69L27.14 235.87L26.97 236.05L26.8 236.23L26.65 236.43L26.51 236.63L26.38 236.84L26.26 237.06L26.15 237.28L26.05 237.51L25.96 237.74L25.88 237.98L25.81 238.21L25.76 238.46L25.71 238.7L25.68 238.95L25.66 239.19L25.66 239.44L25.66 239.69L25.68 239.94L25.71 240.18L25.75 240.43L25.8 240.67L25.98 241.4L26.0 241.49L26.68 244.11L26.7 244.19L27.42 246.8L27.44 246.88L28.21 249.48L28.23 249.56L29.04 252.15L29.06 252.23L29.91 254.8L29.94 254.88L30.83 257.44L30.86 257.52L31.79 260.06L31.82 260.14L32.8 262.67L32.83 262.75L33.84 265.26L33.88 265.34L34.93 267.83L34.97 267.91L36.06 270.39L36.1 270.46L37.24 272.92L37.27 273.0L38.45 275.44L38.49 275.51L39.7 277.93L39.74 278.01L41.0 280.41L41.04 280.48L42.34 282.86L42.38 282.94L43.71 285.29L43.75 285.37L45.13 287.7L45.17 287.77L45.6 288.49L45.74 288.69L45.88 288.9L46.04 289.09L46.2 289.28L46.37 289.46L46.55 289.63L46.74 289.79L46.94 289.94L47.14 290.08L47.35 290.21L47.57 290.34L47.79 290.45L48.01 290.55L48.25 290.64L48.48 290.72L48.72 290.78L48.96 290.84L49.21 290.88L49.45 290.91L49.7 290.93L49.95 290.94L50.2 290.93L50.44 290.92L50.69 290.89L50.94 290.85L51.11 290.82L51.23 290.79L51.8 290.7L51.92 290.67L52.49 290.59L52.61 290.57L53.18 290.49L53.3 290.47L53.87 290.4L54.0 290.39L54.57 290.33L54.69 290.31L55.26 290.26L55.39 290.25L55.96 290.21L56.08 290.2L56.66 290.17L56.78 290.16L57.35 290.14L57.48 290.14L58.05 290.12L58.18 290.12L58.75 290.12L58.88 290.12L59.45 290.12L59.57 290.12L60.15 290.14L60.27 290.14L60.84 290.16L60.97 290.17L61.54 290.2L61.67 290.21L62.24 290.25L62.36 290.26L62.93 290.31L63.06 290.33L63.63 290.39L63.75 290.4L64.32 290.47L64.45 290.49L65.01 290.57L65.14 290.59L65.7 290.67L65.83 290.7L66.39 290.79L66.52 290.82L67.08 290.92L67.2 290.95L67.76 291.06L67.88 291.09L68.44 291.22L68.57 291.24L69.12 291.38L69.24 291.41L69.8 291.55L69.92 291.59L70.47 291.74L70.59 291.77L71.14 291.93L71.26 291.97L71.81 292.14L71.93 292.18L72.47 292.36L72.59 292.4L73.13 292.59L73.25 292.63L73.79 292.83L73.91 292.87L74.44 293.08L74.56 293.13L75.09 293.34L75.2 293.39L75.73 293.61L75.85 293.66L76.37 293.89L76.48 293.95L77.0 294.19L77.12 294.24L77.63 294.49L77.75 294.54L78.26 294.8L78.37 294.86L78.88 295.13L78.99 295.18L79.49 295.46L79.6 295.52L80.1 295.8L80.21 295.86L80.7 296.16L80.81 296.22L81.3 296.52L81.4 296.58L81.89 296.89L81.99 296.96L82.47 297.27L82.58 297.34L83.05 297.67L83.15 297.74L83.62 298.07L83.72 298.14L84.19 298.48L84.29 298.55L84.75 298.9L84.85 298.97L85.3 299.33L85.4 299.4L85.84 299.76L85.94 299.84L86.38 300.21L86.47 300.29L86.91 300.67L87.0 300.75L87.43 301.13L87.52 301.21L87.94 301.6L88.04 301.69L88.45 302.08L88.54 302.17L88.95 302.57L89.04 302.66L89.44 303.07L89.53 303.16L89.92 303.57L90.01 303.67L90.4 304.09L90.48 304.18L90.86 304.61L90.94 304.7L91.32 305.14L91.4 305.23L91.77 305.67L91.85 305.77L92.21 306.21L92.28 306.31L92.64 306.76L92.71 306.86L93.06 307.32L93.13 307.42L93.47 307.88L93.54 307.99L93.87 308.46L93.94 308.56L94.27 309.03L94.34 309.14L94.65 309.62L94.72 309.72L95.03 310.2L95.09 310.31L95.39 310.8L95.45 310.91L95.74 311.4L95.81 311.51L96.09 312.01L96.15 312.12L96.43 312.62L96.48 312.73L96.75 313.24L96.81 313.35L97.07 313.86L97.12 313.98L97.37 314.49L97.42 314.61L97.66 315.12L97.72 315.24L97.95 315.76L98.0 315.88L98.22 316.41L98.27 316.52L98.48 317.05L98.53 317.17L98.74 317.7L98.78 317.82L98.98 318.36L99.02 318.48L99.21 319.02L99.25 319.14L99.43 319.68L99.47 319.8L99.64 320.35L99.67 320.47L99.84 321.02L99.87 321.14L100.02 321.69L100.06 321.81L100.2 322.37L100.23 322.49L100.37 323.04L100.39 323.17L100.52 323.73L100.55 323.85L100.66 324.41L100.69 324.53L100.79 325.09L100.82 325.22L100.91 325.78L100.93 325.91L101.02 326.47L101.04 326.6L101.12 327.16L101.14 327.29L101.21 327.86L101.22 327.98L101.28 328.55L101.3 328.68L101.35 329.25L101.36 329.37L101.4 329.94L101.41 330.07L101.44 330.64L101.45 330.77L101.47 331.34L101.47 331.46L101.49 332.04L101.49 332.16L101.49 332.73L101.49 332.86L101.49 333.43L101.49 333.56L101.47 334.13L101.47 334.26L101.45 334.83L101.44 334.95L101.41 335.53L101.4 335.65L101.36 336.22L101.35 336.35L101.3 336.92L101.28 337.04L101.22 337.61L101.21 337.74L101.14 338.31L101.12 338.43L101.04 339.0L101.02 339.12L100.93 339.69L100.91 339.81L100.82 340.38L100.79 340.5L100.76 340.67L100.72 340.92L100.69 341.17L100.67 341.41L100.67 341.66L100.68 341.91L100.7 342.16L100.73 342.4L100.77 342.65L100.83 342.89L100.89 343.13L100.97 343.36L101.06 343.59L101.16 343.82L101.27 344.04L101.39 344.26L101.53 344.47L101.67 344.67L101.82 344.87L101.98 345.06L102.15 345.24L102.33 345.41L102.52 345.57L102.71 345.73L102.91 345.87L103.12 346.0L103.77 346.4L103.84 346.44L106.17 347.82L106.25 347.86L108.6 349.19L108.68 349.23L111.06 350.53L111.13 350.57L113.53 351.83L113.6 351.87L116.02 353.09L116.1 353.12L118.54 354.3L118.61 354.34L121.07 355.48L121.15 355.51L123.63 356.61L123.7 356.64L126.2 357.7L126.28 357.73L128.79 358.75L128.86 358.78L131.39 359.76L131.47 359.79L134.01 360.72L134.09 360.75L136.65 361.64L136.73 361.67L139.3 362.52L139.38 362.55L141.97 363.35L142.05 363.38L144.65 364.14L144.73 364.17L147.34 364.89L147.42 364.91L150.05 365.59L150.13 365.61L150.94 365.81L151.18 365.86L151.42 365.9L151.67 365.93L151.92 365.95L152.17 365.95L152.41 365.95L152.66 365.93L152.91 365.9L153.15 365.85L153.39 365.8L153.63 365.73L153.87 365.65L154.1 365.56L154.33 365.46L154.55 365.35L154.77 365.23L154.98 365.1L155.18 364.96L155.37 364.8L155.56 364.64L155.74 364.47L155.92 364.29L156.08 364.11L156.23 363.91L156.38 363.71L156.48 363.56L156.55 363.46L156.88 362.99L156.95 362.89L157.29 362.43L157.36 362.33L157.71 361.87L157.79 361.77L158.14 361.32L158.22 361.22L158.58 360.77L158.66 360.68L159.02 360.24L159.1 360.14L159.48 359.71L159.56 359.61L159.94 359.19L160.03 359.09L160.41 358.67L160.5 358.58L160.9 358.17L160.98 358.08L161.38 357.67L161.47 357.58L161.88 357.18L161.97 357.09L162.39 356.69L162.48 356.61L162.9 356.22L162.99 356.14L163.42 355.75L163.51 355.67L163.95 355.3L164.04 355.22L164.48 354.85L164.58 354.77L165.03 354.41L165.13 354.33L165.58 353.98L165.68 353.9L166.13 353.56L166.23 353.48L166.7 353.15L166.8 353.07L167.27 352.74L167.37 352.67L167.84 352.35L167.95 352.28L168.43 351.97L168.53 351.9L169.02 351.59L169.12 351.52L169.61 351.23L169.72 351.16L170.21 350.87L170.32 350.81L170.82 350.53L170.93 350.46L171.43 350.19L171.54 350.13L172.05 349.87L172.16 349.81L172.68 349.55L172.79 349.5L173.3 349.25L173.42 349.19L173.94 348.95L174.05 348.9L174.58 348.67L174.69 348.62L175.22 348.39L175.33 348.35L175.86 348.13L175.98 348.09L176.52 347.88L176.63 347.83L177.17 347.64L177.29 347.6L177.83 347.41L177.95 347.37L178.49 347.19L178.61 347.15L179.16 346.98L179.28 346.94L179.83 346.78L179.95 346.74L180.5 346.59L180.62 346.56L181.18 346.42L181.3 346.39L181.86 346.25L181.98 346.22L182.54 346.1L182.66 346.07L183.22 345.95L183.34 345.93L183.91 345.82L184.03 345.8L184.59 345.7L184.72 345.68L185.28 345.59L185.41 345.57L185.98 345.49L186.1 345.48L186.67 345.41L186.79 345.39L187.36 345.33L187.49 345.32L188.06 345.27L188.18 345.26L188.76 345.22L188.88 345.21L189.45 345.18L189.58 345.17L190.15 345.15L190.28 345.14L190.85 345.13L190.97 345.13L191.55 345.12L191.67 345.12L192.25 345.13L192.37 345.13L192.94 345.14L193.07 345.15L193.64 345.17L193.77 345.18L194.34 345.21L194.46 345.22L195.03 345.26L195.16 345.27L195.73 345.32L195.86 345.33L196.43 345.39L196.55 345.41L197.12 345.48L197.24 345.49L197.81 345.57L197.93 345.59L198.5 345.68L198.62 345.7L199.19 345.8L199.31 345.82L199.87 345.93L200.0 345.95L200.56 346.07L200.68 346.1L201.24 346.22L201.36 346.25L201.92 346.39L202.04 346.42L202.6 346.56L202.72 346.59L203.27 346.74L203.39 346.78L203.94 346.94L204.06 346.98L204.61 347.15L204.73 347.19L205.27 347.37L205.39 347.41L205.93 347.6L206.05 347.64L206.59 347.83L206.7 347.88L207.24 348.09L207.35 348.13L207.89 348.35L208.0 348.39L208.53 348.62L208.64 348.67L209.17 348.9L209.28 348.95L209.8 349.19L209.92 349.25L210.43 349.5L210.54 349.55L211.06 349.81L211.17 349.87L211.67 350.13L211.79 350.19L212.29 350.46L212.4 350.53L212.9 350.81L213.01 350.87L213.5 351.16L213.61 351.23L214.1 351.52L214.2 351.59L214.69 351.9L214.79 351.97L215.27 352.28L215.37 352.35L215.85 352.67L215.95 352.74L216.42 353.07L216.52 353.15L216.98 353.48L217.09 353.56L217.54 353.9L217.64 353.98L218.09 354.33L218.19 354.41L218.64 354.77L218.74 354.85L219.18 355.22L219.27 355.3L219.7 355.67L219.8 355.75L220.23 356.14L220.32 356.22L220.74 356.61L220.83 356.69L221.25 357.09L221.34 357.18L221.75 357.58L221.83 357.67L222.24 358.08L222.32 358.17L222.72 358.58L222.8 358.67L223.19 359.09L223.28 359.19L223.66 359.61L223.74 359.71L224.12 360.14L224.2 360.24L224.56 360.68L224.64 360.77L225.0 361.22L225.08 361.32L225.43 361.77L225.51 361.87L225.85 362.33L225.93 362.43L226.27 362.89L226.34 362.99L226.67 363.46L226.74 363.56L226.84 363.71L226.99 363.91L227.14 364.11L227.3 364.29L227.48 364.47L227.66 364.64L227.84 364.8L228.04 364.96L228.24 365.1L228.45 365.23L228.67 365.35L228.89 365.46L229.12 365.56L229.35 365.65L229.58 365.73L229.82 365.8L230.07 365.85L230.31 365.9L230.56 365.93L230.8 365.95L231.05 365.95L231.3 365.95L231.55 365.93L231.79 365.9L232.04 365.86L232.28 365.81L233.01 365.63L233.09 365.61L235.72 364.93L235.8 364.91L238.41 364.19L238.49 364.17L241.09 363.4L241.17 363.38L243.76 362.57L243.84 362.55L246.41 361.7L246.49 361.67L249.05 360.78L249.13 360.75L251.67 359.82L251.75 359.79L254.28 358.81L254.36 358.78L256.87 357.77L256.95 357.73L259.44 356.68L259.52 356.64L262.0 355.55L262.07 355.51L264.53 354.37L264.61 354.34L267.05 353.16L267.12 353.12L269.54 351.9L269.62 351.87L272.02 350.61L272.09 350.57L274.47 349.27L274.54 349.23L276.9 347.9L276.98 347.86L279.31 346.48L279.38 346.44L280.1 346.0L280.3 345.87L280.51 345.73L280.7 345.57L280.89 345.41L281.07 345.24L281.24 345.06L281.4 344.87L281.55 344.67L281.69 344.47L281.82 344.26L281.95 344.04L282.06 343.82L282.16 343.59L282.25 343.36L282.33 343.13L282.39 342.89L282.45 342.65L282.49 342.4L282.52 342.16L282.54 341.91L282.55 341.66L282.54 341.41L282.53 341.17L282.5 340.92L282.46 340.67L282.43 340.5L282.4 340.38L282.3 339.81L282.28 339.69L282.2 339.12L282.18 339.0L282.1 338.43L282.08 338.31L282.01 337.74L282.0 337.61L281.94 337.04L281.92 336.92L281.87 336.35L281.86 336.22L281.82 335.65L281.81 335.53L281.78 334.95L281.77 334.83L281.75 334.26L281.75 334.13L281.73 333.56L281.73 333.43L281.72 332.86L281.72 332.73L281.73 332.16L281.73 332.04L281.75 331.46L281.75 331.34L281.77 330.77L281.78 330.64L281.81 330.07L281.82 329.94L281.86 329.37L281.87 329.25L281.92 328.68L281.94 328.55L282.0 327.98L282.01 327.86L282.08 327.29L282.1 327.16L282.18 326.6L282.2 326.47L282.28 325.91L282.3 325.78L282.4 325.22L282.43 325.09L282.53 324.53L282.56 324.41L282.67 323.85L282.7 323.73L282.83 323.17L282.85 323.04L282.99 322.49L283.02 322.37L283.16 321.81L283.2 321.69L283.35 321.14L283.38 321.02L283.54 320.47L283.58 320.35L283.75 319.8L283.79 319.68L283.97 319.14L284.01 319.02L284.2 318.48L284.24 318.36L284.44 317.82L284.48 317.7L284.69 317.17L284.73 317.05L284.95 316.52L285.0 316.41L285.22 315.88L285.27 315.76L285.5 315.24L285.56 315.12L285.8 314.61L285.85 314.49L286.1 313.98L286.15 313.86L286.41 313.35L286.47 313.24L286.73 312.73L286.79 312.62L287.07 312.12L287.13 312.01L287.41 311.51L287.47 311.4L287.76 310.91L287.83 310.8L288.13 310.31L288.19 310.2L288.5 309.72L288.57 309.62L288.88 309.14L288.95 309.03L289.27 308.56L289.35 308.46L289.68 307.99L289.75 307.88L290.09 307.42L290.16 307.32L290.51 306.86L290.58 306.76L290.94 306.31L291.01 306.21L291.37 305.77L291.45 305.67L291.82 305.23L291.9 305.14L292.28 304.7L292.36 304.61L292.74 304.18L292.82 304.09L293.21 303.67L293.3 303.57L293.69 303.16L293.78 303.07L294.18 302.66L294.27 302.57L294.68 302.17L294.77 302.08L295.18 301.69L295.28 301.6L295.7 301.21L295.79 301.13L296.22 300.75L296.31 300.67L296.75 300.29L296.84 300.21L297.28 299.84L297.38 299.76L297.82 299.4L297.92 299.33L298.37 298.97L298.47 298.9L298.93 298.55L299.03 298.48L299.49 298.14L299.6 298.07L300.06 297.74L300.17 297.67L300.64 297.34L300.75 297.27L301.22 296.96L301.33 296.89L301.81 296.58L301.92 296.52L302.41 296.22L302.52 296.16L303.01 295.86L303.12 295.8L303.62 295.52L303.73 295.46L304.23 295.18L304.34 295.13L304.85 294.86L304.96 294.8L305.47 294.54L305.59 294.49L306.1 294.24L306.21 294.19L306.73 293.95L306.85 293.89L307.37 293.66L307.49 293.61L308.01 293.39L308.13 293.34L308.66 293.13L308.78 293.08L309.31 292.87L309.43 292.83L309.97 292.63L310.09 292.59L310.63 292.4L310.75 292.36L311.29 292.18L311.41 292.14L311.96 291.97L312.08 291.93L312.63 291.77L312.75 291.74L313.3 291.59L313.42 291.55L313.97 291.41L314.1 291.38L314.65 291.24L314.78 291.22L315.33 291.09L315.46 291.06L316.02 290.95L316.14 290.92L316.7 290.82L316.83 290.79L317.39 290.7L317.52 290.67L318.08 290.59L318.21 290.57L318.77 290.49L318.9 290.47L319.47 290.4L319.59 290.39L320.16 290.33L320.29 290.31L320.86 290.26L320.98 290.25L321.55 290.21L321.68 290.2L322.25 290.17L322.38 290.16L322.95 290.14L323.07 290.14L323.65 290.12L323.77 290.12L324.34 290.12L324.47 290.12L325.04 290.12L325.17 290.12L325.74 290.14L325.87 290.14L326.44 290.16L326.56 290.17L327.14 290.2L327.26 290.21L327.83 290.25L327.96 290.26L328.53 290.31L328.65 290.33L329.22 290.39L329.35 290.4L329.92 290.47L330.04 290.49L330.61 290.57L330.73 290.59L331.3 290.67L331.42 290.7L331.99 290.79L332.11 290.82L332.28 290.85L332.53 290.89L332.78 290.92L333.02 290.93L333.27 290.94L333.52 290.93L333.77 290.91L334.01 290.88L334.26 290.84L334.5 290.78L334.74 290.72L334.97 290.64L335.2 290.55L335.43 290.45L335.65 290.34L335.87 290.22L336.08 290.08L336.28 289.94L336.48 289.79L336.67 289.63L336.85 289.46L337.02 289.28L337.18 289.09L337.33 288.9L337.48 288.7L337.61 288.49L338.01 287.84L338.05 287.77L339.42 285.44L339.47 285.36L340.8 283.01L340.84 282.93L342.14 280.55L342.18 280.48L343.44 278.08L343.48 278.01L344.7 275.59L344.73 275.51L345.91 273.07L345.95 273.0L347.09 270.54L347.12 270.46L348.22 267.98L348.25 267.91L349.31 265.41L349.34 265.33L350.36 262.82L350.39 262.74L351.37 260.22L351.4 260.14L352.14 258.11L352.22 257.87L352.29 257.63L352.35 257.38L352.4 257.13L352.43 256.88L352.45 256.63L352.46 256.38L352.45 256.12L352.44 255.87L352.41 255.62L352.36 255.37L352.31 255.13L352.25 254.88L352.17 254.64L352.08 254.41L351.98 254.17L351.86 253.95L351.74 253.73L351.61 253.51L351.46 253.31L351.31 253.11L351.14 252.92L350.97 252.73L350.79 252.56L350.6 252.39L350.4 252.24L350.19 252.09L349.98 251.95L349.76 251.83L349.53 251.72L349.3 251.61L349.07 251.52L348.83 251.44L348.59 251.37L348.34 251.32L348.09 251.28L347.84 251.24L347.59 251.23L347.34 251.22L279.2 251.22L278.94 251.23L278.69 251.24L278.43 251.28L278.18 251.32L277.93 251.38L277.69 251.45L277.44 251.53L277.21 251.62L276.97 251.73L276.74 251.85L276.52 251.97L276.31 252.11L276.1 252.26L275.9 252.42L275.71 252.59L275.53 252.77L275.35 252.96L275.19 253.15L275.03 253.36L274.89 253.57L274.8 253.72L273.98 254.96L273.91 255.07L273.07 256.3L273.0 256.41L272.14 257.63L272.06 257.73L271.18 258.94L271.11 259.04L270.21 260.23L270.13 260.33L269.21 261.51L269.13 261.61L268.2 262.77L268.12 262.87L267.16 264.02L267.08 264.11L266.1 265.24L266.02 265.34L265.02 266.45L264.94 266.55L263.93 267.65L263.84 267.74L262.81 268.82L262.72 268.91L261.67 269.98L261.59 270.06L260.52 271.11L260.43 271.2L259.35 272.23L259.26 272.32L258.16 273.33L258.06 273.41L256.95 274.41L256.85 274.49L255.72 275.47L255.63 275.55L254.48 276.51L254.38 276.59L253.22 277.52L253.12 277.6L251.94 278.52L251.84 278.6L250.65 279.5L250.55 279.57L249.34 280.45L249.24 280.53L248.02 281.39L247.91 281.46L246.68 282.3L246.57 282.37L245.32 283.19L245.22 283.26L243.95 284.06L243.85 284.12L242.57 284.9L242.46 284.97L241.18 285.73L241.07 285.79L239.77 286.52L239.66 286.59L238.34 287.3L238.23 287.36L236.91 288.05L236.8 288.11L235.46 288.78L235.35 288.84L234.0 289.49L233.89 289.54L232.53 290.17L232.42 290.22L231.05 290.83L230.94 290.88L229.56 291.46L229.45 291.51L228.06 292.07L227.94 292.12L226.55 292.65L226.43 292.7L225.03 293.21L224.91 293.26L223.5 293.75L223.38 293.79L221.96 294.26L221.84 294.3L220.41 294.74L220.29 294.78L218.86 295.2L218.74 295.23L217.3 295.63L217.18 295.67L215.73 296.04L215.61 296.07L214.16 296.42L214.03 296.45L212.58 296.78L212.45 296.8L210.99 297.11L210.87 297.13L209.4 297.41L209.27 297.43L207.8 297.69L207.68 297.71L206.2 297.94L206.08 297.96L204.6 298.17L204.47 298.18L202.99 298.37L202.86 298.38L201.38 298.54L201.25 298.55L199.76 298.69L199.64 298.7L198.15 298.81L198.02 298.82L196.53 298.9L196.41 298.91L194.91 298.97L194.79 298.97L193.29 299.01L193.17 299.01L191.67 299.02L191.55 299.02L190.05 299.01L189.93 299.01L188.43 298.97L188.31 298.97L186.81 298.91L186.69 298.9L185.2 298.82L185.07 298.81L183.58 298.7L183.45 298.69L181.97 298.55L181.84 298.54L180.35 298.38L180.23 298.37L178.75 298.18L178.62 298.17L177.14 297.96L177.02 297.94L175.54 297.71L175.42 297.69L173.94 297.43L173.82 297.41L172.35 297.13L172.23 297.11L170.77 296.8L170.64 296.78L169.19 296.45L169.06 296.42L167.61 296.07L167.49 296.04L166.04 295.67L165.92 295.63L164.48 295.23L164.36 295.2L162.92 294.78L162.8 294.74L161.38 294.3L161.26 294.26L159.84 293.79L159.72 293.75L158.31 293.26L158.19 293.21L156.79 292.7L156.67 292.65L155.28 292.12L155.16 292.07L153.77 291.51L153.66 291.46L152.28 290.88L152.17 290.83L150.8 290.22L150.68 290.17L149.33 289.54L149.21 289.49L147.87 288.84L147.76 288.78L146.42 288.11L146.31 288.05L144.99 287.36L144.87 287.3L143.56 286.59L143.45 286.52L142.15 285.79L142.04 285.73L140.76 284.97L140.65 284.9L139.37 284.12L139.27 284.06L138.0 283.26L137.9 283.19L136.65 282.37L136.54 282.3L135.31 281.46L135.2 281.39L133.98 280.53L133.88 280.45L132.67 279.57L132.57 279.5L131.38 278.6L131.28 278.52L130.1 277.6L130.0 277.52L128.84 276.59L128.74 276.51L127.59 275.55L127.5 275.47L126.37 274.49L126.27 274.41L125.16 273.41L125.06 273.33L123.96 272.32L123.87 272.23L122.79 271.2L122.7 271.11L121.63 270.06L121.55 269.98L120.5 268.91L120.41 268.82L119.38 267.74L119.29 267.65L118.28 266.55L118.2 266.45L117.2 265.34L117.12 265.24L116.14 264.11L116.06 264.02L115.1 262.87L115.02 262.77L114.09 261.61L114.01 261.51L113.09 260.33L113.01 260.23L112.11 259.04L112.04 258.94L111.16 257.73L111.08 257.63L110.22 256.41L110.15 256.3L109.31 255.07L109.24 254.96L108.42 253.71L108.35 253.61L107.55 252.34L107.49 252.24L106.71 250.96L106.64 250.85L105.88 249.57L105.82 249.46L105.08 248.16L105.02 248.05L104.31 246.73L104.25 246.62L103.56 245.3L103.5 245.19L102.83 243.85L102.77 243.74L102.12 242.39L102.07 242.28L101.44 240.92L101.39 240.81L100.78 239.44L100.73 239.33L100.15 237.95L100.1 237.84L99.54 236.45L99.49 236.33L98.96 234.94L98.91 234.82L98.4 233.42L98.35 233.3L97.86 231.89L97.82 231.77L97.35 230.35L97.31 230.23L96.87 228.81L96.83 228.68L96.41 227.25L96.38 227.13L95.98 225.69L95.94 225.57L95.57 224.12L95.54 224.0L95.19 222.55L95.16 222.42L94.83 220.97L94.8 220.84L94.5 219.38L94.48 219.26L94.2 217.79L94.17 217.66L93.92 216.19L93.9 216.07L93.67 214.59L93.65 214.47L93.44 212.99L93.43 212.86L93.24 211.38L93.23 211.25L93.07 209.77L93.06 209.64L92.92 208.15L92.91 208.03L92.8 206.54L92.79 206.41L92.71 204.92L92.7 204.8L92.64 203.3L92.64 203.18L92.6 201.68L92.6 201.56L92.59 200.06L92.59 199.94L92.6 198.44L92.6 198.32L92.64 196.82L92.64 196.7L92.7 195.2L92.71 195.08L92.79 193.59L92.8 193.46L92.91 191.97L92.92 191.85L93.06 190.36L93.07 190.23L93.23 188.75L93.24 188.62L93.43 187.14L93.44 187.01L93.65 185.53L93.67 185.41L93.9 183.93L93.92 183.81L94.17 182.34L94.2 182.21L94.48 180.74L94.5 180.62L94.8 179.16L94.83 179.03L95.16 177.58L95.19 177.45L95.54 176.0L95.57 175.88L95.94 174.43L95.98 174.31L96.38 172.87L96.41 172.75L96.83 171.32L96.87 171.19L97.31 169.77L97.35 169.65L97.82 168.23L97.86 168.11L98.35 166.7L98.4 166.58L98.91 165.18L98.96 165.06L99.49 163.67L99.54 163.55L100.1 162.16L100.15 162.05L100.73 160.67L100.78 160.56L101.39 159.19L101.44 159.08L102.07 157.72L102.12 157.61L102.77 156.26L102.83 156.15L103.5 154.81L103.56 154.7L104.25 153.38L104.31 153.27L105.02 151.95L105.08 151.84L105.82 150.54L105.88 150.43L106.64 149.15L106.71 149.04L107.49 147.76L107.55 147.66L108.35 146.39L108.42 146.29L109.24 145.04L109.31 144.93L110.15 143.7L110.22 143.59L111.08 142.37L111.16 142.27L112.04 141.06L112.11 140.96L113.01 139.77L113.09 139.67L114.01 138.49L114.09 138.39L115.02 137.23L115.1 137.13L116.06 135.98L116.14 135.89L117.12 134.76L117.2 134.66L118.2 133.55L118.28 133.45L119.29 132.35L119.38 132.26L120.41 131.18L120.5 131.09L121.55 130.02L121.63 129.94L122.7 128.89L122.79 128.8L123.87 127.77L123.96 127.68L125.06 126.67L125.16 126.59L126.27 125.59L126.37 125.51L127.5 124.53L127.59 124.45L128.74 123.49L128.84 123.41L130.0 122.48L130.1 122.4L131.28 121.48L131.38 121.4L132.57 120.5L132.67 120.43L133.88 119.55L133.98 119.47L135.2 118.61L135.31 118.54L136.54 117.7L136.65 117.63L137.9 116.81L138.0 116.74L139.27 115.94L139.37 115.88L140.65 115.1L140.76 115.03L142.04 114.27L142.15 114.21L143.45 113.48L143.56 113.41L144.87 112.7L144.99 112.64L146.31 111.95L146.42 111.89L147.76 111.22L147.87 111.16L149.21 110.51L149.33 110.46L150.68 109.83L150.8 109.78L152.17 109.17L152.28 109.12L153.66 108.54L153.77 108.49L155.16 107.93L155.28 107.88L156.67 107.35L156.79 107.3L158.19 106.79L158.31 106.74L159.72 106.25L159.84 106.21L161.26 105.74L161.38 105.7L162.8 105.26L162.92 105.22L164.36 104.8L164.48 104.77L165.92 104.37L166.04 104.33L167.49 103.96L167.61 103.93L169.06 103.58L169.19 103.55L170.64 103.22L170.77 103.2L172.23 102.89L172.35 102.87L173.82 102.59L173.94 102.57L175.42 102.31L175.54 102.29L177.02 102.06L177.14 102.04L178.62 101.83L178.75 101.82L180.23 101.63L180.35 101.62L181.84 101.46L181.97 101.45L183.45 101.31L183.58 101.3L185.07 101.19L185.2 101.18L186.69 101.1L186.81 101.09L188.31 101.03L188.43 101.03L189.93 100.99L190.05 100.99L191.55 100.98L191.67 100.98L193.17 100.99L193.29 100.99L194.79 101.03L194.91 101.03L196.41 101.09L196.53 101.1L198.02 101.18L198.15 101.19L199.64 101.3L199.76 101.31L201.25 101.45L201.38 101.46L202.86 101.62L202.99 101.63L204.47 101.82L204.6 101.83L206.08 102.04L206.2 102.06L207.68 102.29L207.8 102.31L209.27 102.57L209.4 102.59L210.87 102.87L210.99 102.89L212.45 103.2L212.58 103.22L214.03 103.55L214.16 103.58L215.61 103.93L215.73 103.96L217.18 104.33L217.3 104.37L218.74 104.77L218.86 104.8L220.29 105.22L220.41 105.26L221.84 105.7L221.96 105.74L223.38 106.21L223.5 106.25L224.91 106.74L225.03 106.79L226.43 107.3L226.55 107.35L227.94 107.88L228.06 107.93L229.45 108.49L229.56 108.54L230.94 109.12L231.05 109.17L232.42 109.78L232.53 109.83L233.89 110.46L234.0 110.51L235.35 111.16L235.46 111.22L236.8 111.89L236.91 111.95L238.23 112.64L238.34 112.7L239.66 113.41L239.77 113.48L241.07 114.21L241.18 114.27L242.46 115.03L242.57 115.1L243.85 115.88L243.95 115.94L245.22 116.74L245.32 116.81L246.57 117.63L246.68 117.7L247.91 118.54L248.02 118.61L249.24 119.47L249.34 119.55L250.55 120.43L250.65 120.5L251.84 121.4L251.94 121.48L253.12 122.4L253.22 122.48L254.38 123.41L254.48 123.49L255.63 124.45L255.72 124.53L256.85 125.51L256.95 125.59L258.06 126.59L258.16 126.67L259.26 127.68L259.35 127.77L260.43 128.8L260.52 128.89L261.59 129.94L261.67 130.02L262.72 131.09L262.81 131.18L263.84 132.26L263.93 132.35L264.94 133.45L265.02 133.55L266.02 134.66L266.1 134.76L267.08 135.89L267.16 135.98L268.12 137.13L268.2 137.23L269.13 138.39L269.21 138.49L270.13 139.67L270.21 139.77L271.11 140.96L271.18 141.06L272.06 142.27L272.14 142.37L273.0 143.59L273.07 143.7L273.91 144.93L273.98 145.04L274.8 146.29L274.87 146.39L274.87 146.4L275.01 146.61L275.17 146.82L275.33 147.02L275.51 147.21L275.69 147.39L275.88 147.56L276.08 147.72L276.29 147.88L276.51 148.02L276.73 148.15L276.96 148.26L277.19 148.37L277.43 148.47L277.68 148.55L277.92 148.62L278.17 148.68L278.43 148.72L278.68 148.75L278.94 148.77L279.2 148.78L347.34 148.78L347.59 148.77L347.84 148.76L348.09 148.72L348.34 148.68L348.58 148.63L348.83 148.56L349.07 148.48L349.3 148.39L349.53 148.29L349.76 148.17L349.98 148.05L350.19 147.91L350.4 147.76L350.6 147.61L350.79 147.44L350.97 147.27L351.14 147.09L351.31 146.89L351.46 146.69L351.61 146.49L351.74 146.27L351.86 146.05L351.98 145.83L352.08 145.6L352.17 145.36L352.24 145.12L352.31 144.88L352.36 144.63L352.41 144.38L352.44 144.13L352.45 143.88L352.46 143.63L352.45 143.37L352.43 143.12L352.4 142.87L352.35 142.62L352.29 142.38L352.22 142.13L352.14 141.9L351.43 139.94L351.4 139.86L350.41 137.29L350.38 137.21L349.37 134.74L349.34 134.66L348.29 132.17L348.25 132.09L347.16 129.61L347.12 129.54L345.98 127.08L345.95 127.0L344.77 124.56L344.73 124.49L343.51 122.07L343.48 121.99L342.22 119.59L342.18 119.52L340.88 117.14L340.84 117.06L339.51 114.71L339.47 114.63L338.09 112.3L338.05 112.23L337.61 111.51L337.48 111.31L337.34 111.1L337.18 110.91L337.02 110.72L336.85 110.54L336.67 110.37L336.48 110.21L336.28 110.06L336.08 109.92L335.87 109.79L335.65 109.66L335.43 109.55L335.2 109.45L334.97 109.36L334.74 109.28L334.5 109.22L334.26 109.16L334.01 109.12L333.77 109.09L333.52 109.07L333.27 109.06L333.02 109.07L332.78 109.08L332.53 109.11L332.28 109.15L332.11 109.18L331.99 109.21L331.42 109.3L331.3 109.33L330.73 109.41L330.61 109.43L330.04 109.51L329.92 109.53L329.35 109.6L329.22 109.61L328.65 109.67L328.53 109.69L327.96 109.74L327.83 109.75L327.26 109.79L327.14 109.8L326.56 109.83L326.44 109.84L325.87 109.86L325.74 109.86L325.17 109.88L325.04 109.88L324.47 109.88L324.34 109.88L323.77 109.88L323.65 109.88L323.07 109.86L322.95 109.86L322.38 109.84L322.25 109.83L321.68 109.8L321.55 109.79L320.98 109.75L320.86 109.74L320.29 109.69L320.16 109.67L319.59 109.61L319.47 109.6L318.9 109.53L318.77 109.51L318.21 109.43L318.08 109.41L317.52 109.33L317.39 109.3L316.83 109.21L316.7 109.18L316.14 109.08L316.02 109.05L315.46 108.94L315.33 108.91L314.78 108.78L314.65 108.76L314.1 108.62L313.97 108.59L313.42 108.45L313.3 108.41L312.75 108.26L312.63 108.23L312.08 108.07L311.96 108.03L311.41 107.86L311.29 107.82L310.75 107.64L310.63 107.6L310.09 107.41L309.97 107.37L309.43 107.17L309.31 107.13L308.78 106.92L308.66 106.87L308.13 106.66L308.01 106.61L307.49 106.39L307.37 106.34L306.85 106.11L306.73 106.05L306.21 105.81L306.1 105.76L305.59 105.51L305.47 105.46L304.96 105.2L304.85 105.14L304.34 104.87L304.23 104.82L303.73 104.54L303.62 104.48L303.12 104.2L303.01 104.14L302.52 103.84L302.41 103.78L301.92 103.48L301.81 103.42L301.33 103.11L301.22 103.04L300.75 102.73L300.64 102.66L300.17 102.33L300.06 102.26L299.6 101.93L299.49 101.86L299.03 101.52L298.93 101.45L298.47 101.1L298.37 101.03L297.92 100.67L297.82 100.6L297.38 100.24L297.28 100.16L296.84 99.79L296.75 99.71L296.31 99.33L296.22 99.25L295.79 98.87L295.7 98.79L295.28 98.4L295.18 98.31L294.77 97.92L294.68 97.83L294.27 97.43L294.18 97.34L293.78 96.93L293.69 96.84L293.3 96.43L293.21 96.33L292.82 95.91L292.74 95.82L292.36 95.39L292.28 95.3L291.9 94.86L291.82 94.77L291.45 94.33L291.37 94.23L291.01 93.79L290.94 93.69L290.58 93.24L290.51 93.14L290.16 92.68L290.09 92.58L289.75 92.12L289.68 92.01L289.35 91.54L289.27 91.44L288.95 90.97L288.88 90.86L288.57 90.38L288.5 90.28L288.19 89.8L288.13 89.69L287.83 89.2L287.76 89.09L287.47 88.6L287.41 88.49L287.13 87.99L287.07 87.88L286.79 87.38L286.73 87.27L286.47 86.76L286.41 86.65L286.15 86.14L286.1 86.02L285.85 85.51L285.8 85.39L285.56 84.88L285.5 84.76L285.27 84.24L285.22 84.12L285.0 83.59L284.95 83.48L284.73 82.95L284.69 82.83L284.48 82.3L284.44 82.18L284.24 81.64L284.2 81.52L284.01 80.98L283.97 80.86L283.79 80.32L283.75 80.2L283.58 79.65L283.54 79.53L283.38 78.98L283.35 78.86L283.2 78.31L283.16 78.19L283.02 77.63L282.99 77.51L282.85 76.96L282.83 76.83L282.7 76.27L282.67 76.15L282.56 75.59L282.53 75.47L282.43 74.91L282.4 74.78L282.3 74.22L282.28 74.09L282.2 73.53L282.18 73.4L282.1 72.84L282.08 72.71L282.01 72.14L282.0 72.02L281.94 71.45L281.92 71.32L281.87 70.75L281.86 70.63L281.82 70.06L281.81 69.93L281.78 69.36L281.77 69.23L281.75 68.66L281.75 68.54L281.73 67.96L281.73 67.84L281.72 67.27L281.72 67.14L281.73 66.57L281.73 66.44L281.75 65.87L281.75 65.74L281.77 65.17L281.78 65.05L281.81 64.47L281.82 64.35L281.86 63.78L281.87 63.65L281.92 63.08L281.94 62.96L282.0 62.39L282.01 62.26L282.08 61.69L282.1 61.57L282.18 61.0L282.2 60.88L282.28 60.31L282.3 60.19L282.4 59.62L282.43 59.5L282.46 59.33L282.5 59.08L282.53 58.83L282.54 58.59L282.55 58.34L282.54 58.09L282.52 57.84L282.49 57.6L282.45 57.35L282.39 57.11L282.33 56.87L282.25 56.64L282.16 56.41L282.06 56.18L281.95 55.96L281.83 55.74L281.69 55.53L281.55 55.33L281.4 55.13L281.24 54.94L281.07 54.76L280.89 54.59L280.7 54.43L280.51 54.27L280.31 54.13L280.1 54.0L279.45 53.6L279.38 53.56L277.05 52.18L276.97 52.14L274.62 50.81L274.54 50.77L272.16 49.47L272.09 49.43L269.69 48.17L269.62 48.13L267.2 46.91L267.12 46.88L264.68 45.7L264.6 45.66L262.15 44.52L262.07 44.49L259.59 43.39L259.52 43.36L257.02 42.3L256.94 42.27L254.43 41.25L254.35 41.22L251.83 40.24L251.75 40.21L249.2 39.28L249.13 39.25L246.57 38.36L246.49 38.33L243.91 37.48L243.84 37.45L241.25 36.65L241.17 36.62L238.57 35.86L238.49 35.83L235.88 35.11L235.8 35.09L233.17 34.41L233.09 34.39L232.28 34.19L232.04 34.14L231.79 34.1L231.55 34.07L231.3 34.05L231.05 34.05L230.8 34.05L230.56 34.07L230.31 34.1L230.07 34.15L229.82 34.2L229.59 34.27L229.35 34.35L229.12 34.44L228.89 34.54L228.67 34.65L228.45 34.77L228.24 34.9L228.04 35.04L227.84 35.2L227.66 35.36L227.48 35.53L227.3 35.71L227.14 35.89L226.99 36.09L226.84 36.29L226.74 36.44L226.67 36.54L226.34 37.01L226.27 37.11L225.93 37.57L225.85 37.67L225.51 38.13L225.43 38.23L225.08 38.68L225.0 38.78L224.64 39.23L224.56 39.32L224.2 39.76L224.12 39.86L223.74 40.29L223.66 40.39L223.28 40.81L223.19 40.91L222.8 41.33L222.72 41.42L222.32 41.83L222.24 41.92L221.83 42.33L221.75 42.42L221.34 42.82L221.25 42.91L220.83 43.31L220.74 43.39L220.32 43.78L220.23 43.86L219.8 44.25L219.7 44.33L219.27 44.7L219.18 44.78L218.74 45.15L218.64 45.23L218.19 45.59L218.09 45.67L217.64 46.02L217.54 46.1L217.09 46.44L216.98 46.52L216.52 46.85L216.42 46.93L215.95 47.26L215.85 47.33L215.37 47.65L215.27 47.72L214.79 48.03L214.69 48.1L214.2 48.41L214.1 48.48L213.61 48.77L213.5 48.84L213.01 49.13L212.9 49.19L212.4 49.47L212.29 49.54L211.79 49.81L211.67 49.87L211.17 50.13L211.06 50.19L210.54 50.45L210.43 50.5L209.92 50.75L209.8 50.81L209.28 51.05L209.17 51.1L208.64 51.33L208.53 51.38L208.0 51.61L207.89 51.65L207.35 51.87L207.24 51.91L206.7 52.12L206.59 52.17L206.05 52.36L205.93 52.4L205.39 52.59L205.27 52.63L204.73 52.81L204.61 52.85L204.06 53.02L203.94 53.06L203.39 53.22L203.27 53.26L202.72 53.41L202.6 53.44L202.04 53.58L201.92 53.61L201.36 53.75L201.24 53.78L200.68 53.9L200.56 53.93L200.0 54.05L199.87 54.07L199.31 54.18L199.19 54.2L198.62 54.3L198.5 54.32L197.93 54.41L197.81 54.43L197.24 54.51L197.12 54.52L196.55 54.59L196.43 54.61L195.86 54.67L195.73 54.68L195.16 54.73L195.03 54.74L194.46 54.78L194.34 54.79L193.77 54.82L193.64 54.83L193.07 54.85L192.94 54.86L192.37 54.87L192.25 54.87L191.67 54.88L191.55 54.88L190.97 54.87L190.85 54.87L190.28 54.86L190.15 54.85L189.58 54.83L189.45 54.82L188.88 54.79L188.76 54.78L188.18 54.74L188.06 54.73L187.49 54.68L187.36 54.67L186.79 54.61L186.67 54.59L186.1 54.52L185.98 54.51L185.41 54.43L185.28 54.41L184.72 54.32L184.59 54.3L184.03 54.2L183.91 54.18L183.34 54.07L183.22 54.05L182.66 53.93L182.54 53.9L181.98 53.78L181.86 53.75L181.3 53.61L181.18 53.58L180.62 53.44L180.5 53.41L179.95 53.26L179.83 53.22L179.28 53.06L179.16 53.02L178.61 52.85L178.49 52.81L177.95 52.63L177.83 52.59L177.29 52.4L177.17 52.36L176.63 52.17L176.52 52.12L175.98 51.91L175.86 51.87L175.33 51.65L175.22 51.61L174.69 51.38L174.58 51.33L174.05 51.1L173.94 51.05L173.42 50.81L173.3 50.75L172.79 50.5L172.68 50.45L172.16 50.19L172.05 50.13L171.54 49.87L171.43 49.81L170.93 49.54L170.82 49.47L170.32 49.19L170.21 49.13L169.72 48.84L169.61 48.77L169.12 48.48L169.02 48.41L168.53 48.1L168.43 48.03L167.95 47.72L167.84 47.65L167.37 47.33L167.27 47.26L166.8 46.93L166.7 46.85L166.23 46.52L166.13 46.44L165.68 46.1L165.58 46.02L165.13 45.67L165.03 45.59L164.58 45.23L164.48 45.15L164.04 44.78L163.95 44.7L163.51 44.33L163.42 44.25L162.99 43.86L162.9 43.78L162.48 43.39L162.39 43.31L161.97 42.91L161.88 42.82L161.47 42.42L161.38 42.33L160.98 41.92L160.9 41.83L160.5 41.42L160.41 41.33L160.03 40.91L159.94 40.81L159.56 40.39L159.48 40.29L159.1 39.86L159.02 39.76L158.66 39.32L158.58 39.23L158.22 38.78L158.14 38.68L157.79 38.23L157.71 38.13L157.36 37.67L157.29 37.57L156.95 37.11L156.88 37.01L156.55 36.54L156.48 36.44L156.38 36.29L156.23 36.09L156.08 35.89L155.92 35.71L155.74 35.53L155.56 35.36L155.37 35.2L155.18 35.04L154.98 34.9L154.77 34.77L154.55 34.65L154.33 34.54L154.1 34.44L153.87 34.35L153.63 34.27L153.4 34.2L153.15 34.15L152.91 34.1L152.66 34.07L152.42 34.05L152.17 34.05L151.92 34.05L151.67 34.07L151.43 34.1L151.18 34.14L150.94 34.19L150.21 34.37L150.12 34.39L147.5 35.07L147.42 35.09L144.81 35.81L144.73 35.83L142.13 36.6L142.05 36.62L139.46 37.43L139.38 37.45L136.81 38.3L136.73 38.33L134.17 39.22L134.09 39.25L131.55 40.18L131.47 40.21L128.94 41.19L128.86 41.22L126.35 42.23L126.27 42.27L123.78 43.32L123.7 43.36L121.22 44.45L121.15 44.49L118.69 45.63L118.61 45.66L116.17 46.84L116.1 46.88L113.68 48.1L113.6 48.13L111.2 49.39L111.13 49.43L108.75 50.73L108.67 50.77L106.32 52.1L106.24 52.14L103.91 53.52L103.84 53.56L103.12 54.0L102.92 54.13L102.71 54.27L102.52 54.43L102.33 54.59L102.15 54.76L101.98 54.94L101.82 55.13L101.67 55.33L101.53 55.53L101.39 55.74L101.27 55.96L101.16 56.18L101.06 56.41L100.97 56.64L100.89 56.87L100.83 57.11L100.77 57.35L100.73 57.6L100.7 57.84L100.68 58.09L100.67 58.34L100.67 58.59L100.69 58.83L100.72 59.08L100.76 59.33L100.79 59.5L100.82 59.62L100.91 60.19L100.93 60.31L101.02 60.88L101.04 61.0L101.12 61.57L101.14 61.69L101.21 62.26L101.22 62.39L101.28 62.96L101.3 63.08L101.35 63.65L101.36 63.78L101.4 64.35L101.41 64.47L101.44 65.05L101.45 65.17L101.47 65.74L101.47 65.87L101.49 66.44L101.49 66.57L101.49 67.14L101.49 67.27L101.49 67.84L101.49 67.96L101.47 68.54L101.47 68.66L101.45 69.23L101.44 69.36L101.41 69.93L101.4 70.06L101.36 70.63L101.35 70.75L101.3 71.32L101.28 71.45L101.22 72.02L101.21 72.14L101.14 72.71L101.12 72.84L101.04 73.4L101.02 73.53L100.93 74.09L100.91 74.22L100.82 74.78L100.79 74.91L100.69 75.47L100.66 75.59L100.55 76.15L100.52 76.27L100.39 76.83L100.37 76.96L100.23 77.51L100.2 77.63L100.06 78.19L100.02 78.31L99.87 78.86L99.84 78.98L99.67 79.53L99.64 79.65L99.47 80.2L99.43 80.32L99.25 80.86L99.21 80.98L99.02 81.52L98.98 81.64L98.78 82.18L98.74 82.3L98.53 82.83L98.48 82.95L98.27 83.48L98.22 83.59L98.0 84.12L97.95 84.24L97.72 84.76L97.66 84.88L97.42 85.39L97.37 85.51L97.12 86.02L97.07 86.14L96.81 86.65L96.75 86.76L96.48 87.27L96.43 87.38L96.15 87.88L96.09 87.99L95.81 88.49L95.74 88.6L95.45 89.09L95.39 89.2L95.09 89.69L95.03 89.8L94.72 90.28L94.65 90.38L94.34 90.86L94.27 90.97L93.94 91.44L93.87 91.54L93.54 92.01L93.47 92.12L93.13 92.58L93.06 92.68L92.71 93.14L92.64 93.24L92.28 93.69L92.21 93.79L91.85 94.23L91.77 94.33L91.4 94.77L91.32 94.86L90.94 95.3L90.86 95.39L90.48 95.82L90.4 95.91L90.01 96.33L89.92 96.43L89.53 96.84L89.44 96.93L89.04 97.34L88.95 97.43L88.54 97.83L88.45 97.92L88.04 98.31L87.94 98.4L87.52 98.79L87.43 98.87L87.0 99.25L86.91 99.33L86.47 99.71L86.38 99.79L85.94 100.16L85.84 100.24L85.4 100.6L85.3 100.67L84.85 101.03L84.75 101.1L84.29 101.45L84.19 101.52L83.72 101.86L83.62 101.93L83.15 102.26L83.05 102.33L82.58 102.66L82.47 102.73L81.99 103.04L81.89 103.11L81.4 103.42L81.3 103.48L80.81 103.78L80.7 103.84L80.21 104.14L80.1 104.2L79.6 104.48L79.49 104.54L78.99 104.82L78.88 104.87L78.37 105.14L78.26 105.2L77.75 105.46L77.63 105.51L77.12 105.76L77.0 105.81L76.48 106.05L76.37 106.11L75.85 106.34L75.73 106.39L75.2 106.61L75.09 106.66L74.56 106.87L74.44 106.92L73.91 107.13L73.79 107.17L73.25 107.37L73.13 107.41L72.59 107.6L72.47 107.64L71.93 107.82L71.81 107.86L71.26 108.03L71.14 108.07L70.59 108.23L70.47 108.26L69.92 108.41L69.8 108.45L69.24 108.59L69.12 108.62L68.57 108.76L68.44 108.78L67.88 108.91L67.76 108.94L67.2 109.05L67.08 109.08L66.52 109.18L66.39 109.21L65.83 109.3L65.7 109.33L65.14 109.41L65.01 109.43L64.45 109.51L64.32 109.53L63.75 109.6L63.63 109.61L63.06 109.67L62.93 109.69L62.36 109.74L62.24 109.75L61.67 109.79L61.54 109.8L60.97 109.83L60.84 109.84L60.27 109.86L60.15 109.86L59.57 109.88L59.45 109.88L58.88 109.88L58.75 109.88L58.18 109.88L58.05 109.88L57.48 109.86L57.35 109.86L56.78 109.84L56.66 109.83L56.08 109.8L55.96 109.79L55.39 109.75L55.26 109.74L54.69 109.69L54.57 109.67L54.0 109.61L53.87 109.6L53.3 109.53L53.18 109.51L52.61 109.43L52.49 109.41L51.92 109.33L51.8 109.3L51.23 109.21L51.11 109.18L50.93 109.15L50.69 109.11L50.44 109.08L50.2 109.07L49.95 109.06L49.7 109.07L49.45 109.09L49.21 109.12L48.96 109.16L48.72 109.22L48.48 109.28L48.25 109.36L48.02 109.45L47.79 109.55L47.57 109.66L47.35 109.78L47.14 109.92L46.94 110.06L46.74 110.21L46.55 110.37L46.37 110.54L46.2 110.72L46.04 110.91L45.88 111.1L45.74 111.3L45.61 111.51L45.21 112.16L45.17 112.23L43.79 114.56L43.75 114.64L42.42 116.99L42.38 117.07L41.08 119.45L41.04 119.52L39.78 121.92L39.74 121.99L38.52 124.41L38.49 124.49L37.31 126.93L37.27 127.0L36.13 129.46L36.1 129.54L35.0 132.02L34.97 132.09L33.91 134.59L33.88 134.67L32.86 137.18L32.83 137.26L31.85 139.78L31.82 139.86L30.89 142.41L30.86 142.48L29.97 145.04L29.94 145.12L29.09 147.69L29.06 147.77L28.26 150.36L28.23 150.44L27.47 153.04L27.44 153.12L26.72 155.73L26.7 155.81L26.02 158.44L26.0 158.52L25.8 159.33L25.75 159.57L25.71 159.81L25.68 160.06L25.66 160.31L25.66 160.56L25.66 160.8L25.68 161.05L25.71 161.3L25.76 161.54L25.81 161.78L25.88 162.02L25.96 162.26L26.05 162.49L26.15 162.72L26.26 162.94L26.38 163.16L26.51 163.37L26.65 163.57L26.8 163.76L26.97 163.95L27.14 164.13L27.31 164.31L27.5 164.47L27.7 164.62L27.9 164.77L28.04 164.87L28.15 164.94L28.62 165.27L28.72 165.34L29.18 165.68L29.28 165.75L29.74 166.1L29.84 166.18L30.29 166.53L30.39 166.61L30.83 166.97L30.93 167.05L31.37 167.41L31.47 167.49L31.9 167.87L32.0 167.95L32.42 168.33L32.52 168.42L32.94 168.8L33.03 168.89L33.44 169.29L33.53 169.37L33.94 169.77L34.03 169.86L34.43 170.27L34.52 170.36L34.92 170.78L35.0 170.87L35.39 171.29L35.47 171.38L35.85 171.81L35.94 171.9L36.31 172.34L36.39 172.43L36.76 172.87L36.84 172.97L37.2 173.42L37.28 173.52L37.63 173.97L37.71 174.07L38.05 174.52L38.13 174.62L38.46 175.09L38.54 175.19L38.87 175.66L38.94 175.76L39.26 176.23L39.33 176.34L39.64 176.82L39.71 176.92L40.02 177.41L40.09 177.51L40.38 178.0L40.45 178.11L40.74 178.6L40.8 178.71L41.08 179.21L41.14 179.32L41.42 179.82L41.48 179.94L41.74 180.44L41.8 180.55L42.06 181.07L42.11 181.18L42.36 181.69L42.42 181.81L42.66 182.33L42.71 182.44L42.94 182.97L42.99 183.08L43.22 183.61L43.26 183.72L43.48 184.26L43.52 184.37L43.73 184.91L43.77 185.02L43.97 185.56L44.01 185.68L44.2 186.22L44.24 186.34L44.42 186.88L44.46 187.0L44.63 187.55L44.67 187.67L44.83 188.22L44.86 188.34L45.02 188.89L45.05 189.01L45.19 189.57L45.22 189.69L45.36 190.25L45.39 190.37L45.51 190.93L45.54 191.05L45.66 191.61L45.68 191.73L45.79 192.3L45.81 192.42L45.91 192.99L45.93 193.11L46.02 193.68L46.04 193.8L46.11 194.37L46.13 194.49L46.2 195.06L46.22 195.18L46.28 195.75L46.29 195.88L46.34 196.45L46.35 196.57L46.39 197.15L46.4 197.27L46.43 197.84L46.44 197.97L46.46 198.54L46.47 198.67L46.48 199.24L46.48 199.36L46.49 199.94L46.49 200.06L46.48 200.64L46.48 200.76L46.47 201.33L46.46 201.46L46.44 202.03L46.43 202.16L46.4 202.73L46.39 202.85L46.35 203.43L46.34 203.55L46.29 204.12L46.28 204.25L46.22 204.82L46.2 204.94L46.13 205.51L46.11 205.63L46.04 206.2L46.02 206.32L45.93 206.89L45.91 207.01L45.81 207.58L45.79 207.7L45.68 208.27L45.66 208.39L45.54 208.95L45.51 209.07L45.39 209.63L45.36 209.75L45.22 210.31L45.19 210.43L45.05 210.99L45.02 211.11L44.86 211.66L44.83 211.78L44.67 212.33L44.63 212.45L44.46 213.0L44.42 213.12L44.24 213.66L44.2 213.78L44.01 214.32L43.97 214.44L43.77 214.98L43.73 215.09L43.52 215.63L43.48 215.74L43.26 216.28L43.22 216.39L42.99 216.92L42.94 217.03L42.71 217.56L42.66 217.67L42.42 218.19L42.36 218.31L42.11 218.82L42.06 218.93L41.8 219.45L41.74 219.56L41.48 220.06L41.42 220.18L41.14 220.68L41.08 220.79L40.8 221.29L40.74 221.4L40.45 221.89L40.38 222.0L40.09 222.49L40.02 222.59L39.71 223.08L39.64 223.18L39.33 223.66L39.26 223.77L38.94 224.24L38.87 224.34L38.54 224.81L38.46 224.91L38.13 225.38L38.05 225.48L37.71 225.93L37.63 226.03L37.28 226.48L37.2 226.58L36.84 227.03L36.76 227.13L36.39 227.57L36.31 227.66L35.94 228.1L35.85 228.19L35.47 228.62L35.39 228.71L35.0 229.13L34.92 229.22L34.52 229.64L34.43 229.73L34.03 230.14L33.94 230.23L33.53 230.63L33.44 230.71L33.03 231.11L32.94 231.2L32.52 231.58L32.42 231.67L32.0 232.05L31.9 232.13L31.47 232.51L31.37 232.59L30.93 232.95L30.83 233.03L30.39 233.39L30.29 233.47L29.84 233.82L29.74 233.9L29.28 234.25L29.18 234.32L28.72 234.66L28.62 234.73L28.15 235.06L28.04 235.13Z"/><path fill="#000000" fill-rule="evenodd" d="M73.48 280.02L73.32 280.62L73.18 281.23L73.08 281.85L73.01 282.47L72.96 283.1L72.95 283.73L72.97 284.35L73.02 284.98L73.1 285.6L73.21 286.21L73.35 286.82L73.52 287.43L73.72 288.02L73.95 288.6L74.2 289.18L74.49 289.74L74.8 290.28L75.13 290.81L75.5 291.32L75.88 291.81L76.29 292.28L76.73 292.74L77.18 293.17L77.66 293.57L78.15 293.96L78.66 294.32L79.19 294.65L79.74 294.96L80.3 295.24L80.87 295.49L81.46 295.72L82.05 295.92L82.66 296.08L83.27 296.22L83.88 296.33L84.51 296.4L85.13 296.45L85.76 296.46L134.64 296.46L135.26 296.45L135.88 296.4L136.49 296.33L137.1 296.22L137.7 296.09L138.3 295.93L138.89 295.74L139.47 295.52L140.04 295.27L140.59 294.99L141.13 294.69L141.66 294.37L142.17 294.01L142.66 293.64L143.13 293.24L143.59 292.82L144.02 292.37L144.43 291.91L144.82 291.43L145.18 290.92L145.52 290.41L145.83 289.87L146.12 289.32L146.38 288.76L146.62 288.19L146.82 287.6L147.0 287.01L152.22 267.77L186.21 267.77L191.62 287.11L191.8 287.72L192.02 288.32L192.27 288.91L192.55 289.48L192.85 290.05L193.18 290.59L193.54 291.12L193.93 291.63L194.34 292.12L194.77 292.59L195.23 293.04L195.71 293.46L196.21 293.86L196.73 294.23L197.26 294.58L197.82 294.9L198.39 295.19L198.97 295.45L199.56 295.69L200.17 295.89L200.78 296.07L201.41 296.21L202.04 296.32L202.67 296.4L203.31 296.45L203.95 296.46L253.8 296.46L254.43 296.45L255.05 296.4L255.67 296.33L256.29 296.22L256.9 296.08L257.5 295.92L258.1 295.72L258.68 295.5L259.26 295.24L259.82 294.96L260.36 294.66L260.89 294.32L261.4 293.96L261.9 293.58L262.37 293.17L262.83 292.74L263.26 292.29L263.67 291.82L264.06 291.32L264.42 290.81L264.76 290.29L265.07 289.74L265.35 289.19L265.61 288.61L265.84 288.03L266.04 287.44L266.21 286.84L266.35 286.23L266.46 285.61L266.54 284.99L266.59 284.37L266.61 283.74L266.6 283.11L266.55 282.49L266.48 281.87L266.38 281.25L266.25 280.64L266.08 280.03L232.53 166.33L233.05 166.58L233.62 166.84L234.21 167.07L234.8 167.26L235.41 167.43L236.02 167.57L236.64 167.68L237.27 167.75L237.89 167.8L238.52 167.81L269.0 167.81L269.0 283.66L269.02 284.29L269.07 284.91L269.14 285.54L269.25 286.16L269.39 286.77L269.56 287.37L269.75 287.97L269.98 288.56L270.23 289.13L270.52 289.69L270.83 290.24L271.16 290.77L271.52 291.29L271.91 291.78L272.32 292.26L272.76 292.71L273.21 293.15L273.69 293.56L274.18 293.94L274.7 294.3L275.23 294.64L275.77 294.95L276.33 295.23L276.91 295.49L277.5 295.71L278.09 295.91L278.7 296.08L279.31 296.22L279.93 296.32L280.55 296.4L281.18 296.45L281.81 296.46L331.91 296.46L332.54 296.45L333.16 296.4L333.79 296.32L334.41 296.22L335.02 296.08L335.62 295.91L336.22 295.71L336.81 295.49L337.38 295.23L337.94 294.95L338.49 294.64L339.02 294.3L339.53 293.94L340.03 293.56L340.51 293.15L340.96 292.71L341.39 292.26L341.81 291.78L342.19 291.29L342.55 290.77L342.89 290.24L343.2 289.69L343.48 289.13L343.74 288.56L343.96 287.97L344.16 287.37L344.33 286.77L344.47 286.16L344.57 285.54L344.65 284.91L344.7 284.29L344.71 283.66L344.71 167.81L375.2 167.81L375.82 167.8L376.45 167.75L377.07 167.68L377.69 167.57L378.31 167.43L378.91 167.26L379.51 167.07L380.1 166.84L380.67 166.58L381.23 166.3L381.78 165.99L382.31 165.66L382.82 165.29L383.32 164.91L383.79 164.5L384.25 164.06L384.68 163.61L385.09 163.13L385.48 162.64L385.84 162.12L386.18 161.59L386.49 161.05L386.77 160.48L387.03 159.91L387.25 159.32L387.45 158.73L387.62 158.12L387.75 157.51L387.86 156.89L387.94 156.26L387.98 155.64L388.0 155.01L388.0 116.34L387.98 115.71L387.94 115.09L387.86 114.46L387.75 113.84L387.62 113.23L387.45 112.63L387.25 112.03L387.03 111.44L386.77 110.87L386.49 110.31L386.18 109.76L385.84 109.23L385.48 108.71L385.09 108.22L384.68 107.74L384.25 107.29L383.79 106.85L383.32 106.44L382.82 106.06L382.31 105.7L381.78 105.36L381.23 105.05L380.67 104.77L380.1 104.51L379.51 104.29L378.91 104.09L378.31 103.92L377.69 103.78L377.07 103.68L376.45 103.6L375.82 103.55L375.2 103.54L238.52 103.54L237.89 103.55L237.27 103.6L236.64 103.68L236.02 103.78L235.41 103.92L234.8 104.09L234.21 104.29L233.62 104.51L233.05 104.77L232.49 105.05L231.94 105.36L231.41 105.7L230.89 106.06L230.4 106.44L229.92 106.85L229.47 107.29L229.03 107.74L228.62 108.22L228.24 108.71L227.87 109.23L227.54 109.76L227.23 110.31L226.95 110.87L226.69 111.44L226.47 112.03L226.27 112.63L226.1 113.23L225.96 113.84L225.86 114.46L225.78 115.09L225.73 115.71L225.72 116.34L225.72 143.22L216.72 112.72L216.52 112.12L216.3 111.53L216.05 110.95L215.77 110.38L215.46 109.83L215.12 109.29L214.76 108.77L214.38 108.27L213.96 107.79L213.53 107.33L213.07 106.89L212.6 106.48L212.1 106.09L211.59 105.72L211.05 105.38L210.5 105.07L209.94 104.78L209.36 104.52L208.77 104.29L208.17 104.1L207.56 103.93L206.95 103.79L206.32 103.68L205.7 103.6L205.07 103.55L204.43 103.54L135.37 103.54L134.74 103.55L134.11 103.6L133.48 103.68L132.86 103.79L132.24 103.92L131.63 104.09L131.03 104.29L130.44 104.52L129.87 104.78L129.3 105.06L128.76 105.38L128.22 105.72L127.71 106.08L127.21 106.47L126.73 106.89L126.28 107.32L125.84 107.78L125.43 108.26L125.05 108.76L124.69 109.28L124.35 109.81L124.04 110.37L123.76 110.93L123.51 111.51L123.29 112.1L123.09 112.7ZM168.1 206.65L169.01 203.25L169.93 206.65Z"/><path fill="#FFFFFF" fill-rule="evenodd" d="M85.76 283.66L134.64 283.66L142.42 254.96L195.92 254.96L203.95 283.66L253.8 283.66L204.43 116.34L135.37 116.34ZM151.42 219.46L167.96 157.68L169.9 157.68L186.68 219.46ZM331.91 283.66L331.91 155.01L375.2 155.01L375.2 116.34L238.52 116.34L238.52 155.01L281.81 155.01L281.81 283.66Z"/></svg>
