<svg xmlns="http://www.w3.org/2000/svg" width="1200" height="1400" viewBox="0 0 1200 1400"><title>AT-SUIT</title><path fill="#FFFFFF" fill-rule="evenodd" d="M336.96 722.65L336.9 723.07L336.85 723.49L336.82 723.91L336.8 724.34L336.79 724.76L336.8 725.19L336.83 725.61L336.86 726.03L336.91 726.45L336.98 726.87L337.06 727.29L337.15 727.71L337.25 728.12L337.37 728.52L337.5 728.93L337.65 729.33L337.8 729.72L337.98 730.11L338.16 730.49L338.35 730.87L338.56 731.24L338.78 731.6L339.01 731.96L339.25 732.31L339.51 732.65L339.77 732.98L340.05 733.3L340.33 733.61L340.63 733.92L340.94 734.21L341.25 734.5L341.57 734.77L341.91 735.03L342.25 735.29L342.6 735.53L342.96 735.76L343.32 735.97L343.69 736.18L344.07 736.37L344.45 736.55L344.84 736.72L345.24 736.88L345.64 737.02L346.04 737.15L346.45 737.26L346.86 737.37L347.28 737.46L347.69 737.53L348.11 737.59L348.53 737.64L348.96 737.68L349.38 737.7L349.8 737.7L452.14 737.7L452.56 737.7L452.99 737.68L453.41 737.64L453.83 737.59L454.25 737.53L454.67 737.46L455.09 737.37L455.5 737.26L455.91 737.15L456.31 737.02L456.71 736.87L457.11 736.72L457.5 736.55L457.88 736.37L458.26 736.17L458.63 735.97L458.99 735.75L459.35 735.52L459.7 735.28L460.04 735.03L460.38 734.76L460.7 734.49L461.01 734.21L461.32 733.91L461.62 733.61L461.9 733.29L462.18 732.97L462.44 732.64L462.7 732.3L462.94 731.95L463.17 731.59L463.39 731.23L463.6 730.86L463.79 730.48L463.97 730.09L464.14 729.71L464.3 729.31L464.45 728.91L464.58 728.51L464.69 728.1L478.38 677.63L570.56 677.63L584.71 728.2L584.83 728.6L584.96 729.0L585.11 729.4L585.27 729.79L585.44 730.18L585.62 730.56L585.82 730.93L586.03 731.3L586.25 731.66L586.48 732.01L586.72 732.36L586.98 732.69L587.24 733.02L587.52 733.34L587.8 733.65L588.1 733.95L588.4 734.25L588.72 734.53L589.04 734.8L589.37 735.06L589.71 735.31L590.06 735.55L590.42 735.77L590.78 735.99L591.15 736.19L591.53 736.38L591.91 736.56L592.3 736.73L592.69 736.88L593.09 737.03L593.49 737.15L593.9 737.27L594.31 737.37L594.72 737.46L595.13 737.53L595.55 737.59L595.97 737.64L596.39 737.68L596.81 737.7L597.24 737.7L701.61 737.7L702.03 737.7L702.45 737.68L702.88 737.64L703.3 737.59L703.72 737.53L704.13 737.46L704.55 737.37L704.96 737.26L705.37 737.15L705.77 737.02L706.17 736.88L706.56 736.72L706.95 736.55L707.34 736.37L707.72 736.18L708.09 735.98L708.45 735.76L708.81 735.53L709.16 735.29L709.5 735.04L709.83 734.77L710.15 734.5L710.47 734.22L710.78 733.92L711.07 733.62L711.36 733.31L711.63 732.98L711.9 732.65L712.15 732.31L712.39 731.97L712.63 731.61L712.84 731.25L713.05 730.88L713.25 730.5L713.43 730.12L713.6 729.73L713.76 729.34L713.9 728.94L714.04 728.54L714.15 728.13L714.26 727.72L714.35 727.3L714.43 726.89L714.49 726.47L714.54 726.05L714.58 725.62L714.61 725.2L714.62 724.78L714.61 724.35L714.59 723.93L714.56 723.51L714.52 723.09L714.46 722.67L714.38 722.25L714.3 721.83L714.2 721.42L714.08 721.01L610.73 370.74L610.6 370.33L610.46 369.93L610.31 369.53L610.14 369.13L609.96 368.74L609.77 368.36L609.56 367.99L609.34 367.62L609.11 367.26L608.87 366.9L608.62 366.56L608.35 366.22L608.08 365.89L607.79 365.57L607.5 365.26L607.19 364.97L606.87 364.68L606.55 364.4L606.21 364.13L605.87 363.87L605.52 363.63L605.16 363.4L604.79 363.17L604.42 362.97L604.04 362.77L603.65 362.58L603.26 362.41L602.86 362.25L602.46 362.11L602.05 361.98L601.64 361.86L601.23 361.75L600.81 361.66L600.39 361.59L599.96 361.52L599.54 361.47L599.11 361.44L598.68 361.42L598.25 361.41L453.66 361.41L453.24 361.42L452.81 361.44L452.38 361.47L451.96 361.52L451.54 361.59L451.11 361.66L450.7 361.75L450.28 361.86L449.87 361.98L449.46 362.11L449.06 362.25L448.66 362.41L448.27 362.58L447.88 362.77L447.5 362.96L447.13 363.17L446.76 363.39L446.41 363.62L446.05 363.87L445.71 364.12L445.38 364.39L445.05 364.67L444.74 364.96L444.43 365.26L444.13 365.57L443.85 365.88L443.57 366.21L443.31 366.55L443.05 366.89L442.81 367.25L442.58 367.61L442.36 367.97L442.16 368.35L441.97 368.73L441.78 369.12L441.62 369.51L441.46 369.91L441.32 370.31L441.19 370.72L337.33 721.0L337.22 721.4L337.12 721.82L337.03 722.23ZM524.0 503.39L544.07 577.28L504.22 577.28ZM97.5 442.62L97.45 443.27L97.44 443.56L97.42 444.22L97.42 444.51L97.43 445.16L97.44 445.45L97.49 446.11L97.52 446.4L97.59 447.05L97.64 447.33L97.74 447.98L97.8 448.27L97.94 448.91L98.01 449.19L98.18 449.82L98.26 450.1L98.46 450.72L98.56 451.0L98.79 451.61L98.9 451.88L99.16 452.48L99.28 452.75L99.57 453.33L99.71 453.59L100.03 454.16L100.17 454.41L100.52 454.97L100.68 455.22L101.05 455.75L101.22 455.99L101.62 456.51L101.8 456.74L102.22 457.24L102.41 457.46L102.86 457.94L103.06 458.15L103.53 458.6L103.75 458.8L104.24 459.24L104.46 459.42L104.97 459.83L105.2 460.01L105.73 460.4L105.97 460.56L106.52 460.92L106.76 461.07L107.33 461.4L107.58 461.55L107.87 461.7L108.77 462.17L108.8 462.19L110.19 462.95L110.22 462.96L111.6 463.75L111.63 463.76L113.0 464.57L113.03 464.59L114.38 465.41L114.42 465.43L115.75 466.28L115.78 466.3L117.11 467.17L117.14 467.19L118.45 468.08L118.48 468.1L119.78 469.01L119.81 469.03L121.09 469.97L121.12 469.99L122.38 470.94L122.41 470.97L123.66 471.94L123.69 471.96L124.92 472.96L124.95 472.98L126.16 474.0L126.19 474.02L127.39 475.06L127.42 475.08L128.6 476.13L128.63 476.16L129.8 477.23L129.82 477.26L130.97 478.35L131.0 478.38L132.13 479.49L132.15 479.51L133.26 480.64L133.29 480.67L134.38 481.82L134.41 481.84L135.48 483.01L135.5 483.04L136.56 484.22L136.58 484.25L137.62 485.45L137.64 485.47L138.66 486.69L138.68 486.72L139.67 487.95L139.7 487.98L140.67 489.23L140.69 489.26L141.65 490.52L141.67 490.55L142.6 491.83L142.63 491.86L143.54 493.16L143.56 493.19L144.45 494.5L144.47 494.53L145.34 495.85L145.36 495.88L146.21 497.22L146.23 497.25L147.05 498.61L147.07 498.64L147.87 500.0L147.89 500.04L148.67 501.41L148.69 501.45L149.45 502.84L149.47 502.87L150.2 504.27L150.22 504.31L150.93 505.72L150.95 505.75L151.64 507.18L151.65 507.21L152.32 508.65L152.33 508.68L152.98 510.13L152.99 510.17L153.61 511.63L153.62 511.66L154.22 513.13L154.23 513.16L154.8 514.64L154.81 514.68L155.36 516.16L155.37 516.2L155.89 517.69L155.91 517.73L156.4 519.23L156.41 519.27L156.89 520.78L156.9 520.81L157.34 522.33L157.35 522.37L157.78 523.9L157.79 523.93L158.18 525.47L158.19 525.5L158.56 527.04L158.57 527.08L158.92 528.62L158.93 528.66L159.25 530.21L159.26 530.25L159.55 531.8L159.56 531.84L159.83 533.4L159.84 533.44L160.08 535.0L160.09 535.04L160.31 536.61L160.31 536.64L160.51 538.22L160.51 538.25L160.68 539.83L160.68 539.86L160.82 541.44L160.83 541.48L160.94 543.06L160.95 543.1L161.04 544.68L161.04 544.71L161.1 546.3L161.1 546.33L161.14 547.92L161.14 547.95L161.16 549.54L161.16 549.58L161.14 551.16L161.14 551.2L161.1 552.78L161.1 552.82L161.04 554.4L161.04 554.44L160.95 556.02L160.94 556.06L160.83 557.64L160.82 557.67L160.68 559.25L160.68 559.29L160.51 560.86L160.51 560.9L160.31 562.47L160.31 562.51L160.09 564.08L160.08 564.11L159.84 565.68L159.83 565.71L159.56 567.28L159.55 567.31L159.26 568.87L159.25 568.9L158.93 570.46L158.92 570.49L158.57 572.04L158.56 572.07L158.19 573.61L158.18 573.65L157.79 575.18L157.78 575.22L157.35 576.75L157.34 576.78L156.9 578.3L156.89 578.34L156.41 579.85L156.4 579.88L155.91 581.39L155.89 581.42L155.37 582.92L155.36 582.95L154.81 584.44L154.8 584.47L154.23 585.95L154.22 585.99L153.62 587.46L153.61 587.49L152.99 588.95L152.98 588.98L152.33 590.43L152.32 590.46L151.65 591.9L151.64 591.93L150.95 593.36L150.93 593.39L150.22 594.81L150.2 594.84L149.47 596.25L149.45 596.28L148.69 597.67L148.67 597.7L147.89 599.08L147.87 599.11L147.07 600.48L147.05 600.51L146.23 601.86L146.21 601.89L145.36 603.23L145.34 603.26L144.47 604.59L144.45 604.62L143.56 605.93L143.54 605.96L142.63 607.25L142.6 607.28L141.67 608.56L141.65 608.59L140.69 609.86L140.67 609.89L139.7 611.14L139.67 611.16L138.68 612.4L138.66 612.43L137.64 613.64L137.62 613.67L136.58 614.87L136.56 614.9L135.5 616.08L135.48 616.11L134.41 617.27L134.38 617.3L133.29 618.45L133.26 618.47L132.15 619.6L132.13 619.63L131.0 620.74L130.97 620.76L129.82 621.86L129.8 621.88L128.63 622.96L128.6 622.98L127.42 624.04L127.39 624.06L126.19 625.09L126.16 625.12L124.95 626.13L124.92 626.16L123.69 627.15L123.66 627.17L122.41 628.15L122.38 628.17L121.12 629.13L121.09 629.15L119.81 630.08L119.78 630.1L118.48 631.01L118.45 631.04L117.14 631.93L117.11 631.95L115.78 632.82L115.75 632.84L114.42 633.68L114.38 633.7L113.03 634.53L113.0 634.55L111.63 635.35L111.6 635.37L110.22 636.15L110.19 636.17L108.8 636.93L108.77 636.94L107.87 637.41L107.58 637.57L107.33 637.71L106.77 638.04L106.52 638.2L105.97 638.55L105.73 638.72L105.2 639.1L104.97 639.28L104.46 639.69L104.24 639.88L103.75 640.31L103.53 640.51L103.06 640.97L102.86 641.18L102.42 641.66L102.22 641.87L101.8 642.38L101.62 642.6L101.22 643.12L101.05 643.36L100.68 643.9L100.52 644.14L100.17 644.7L100.03 644.95L99.71 645.52L99.57 645.78L99.29 646.37L99.16 646.63L98.9 647.23L98.79 647.5L98.56 648.12L98.47 648.39L98.26 649.01L98.18 649.29L98.01 649.92L97.94 650.21L97.8 650.85L97.75 651.13L97.64 651.78L97.6 652.07L97.52 652.72L97.49 653.01L97.44 653.66L97.43 653.95L97.42 654.61L97.42 654.9L97.44 655.55L97.45 655.84L97.5 656.49L97.53 656.78L97.61 657.43L97.65 657.72L97.77 658.37L97.82 658.65L97.89 658.97L99.48 666.05L99.5 666.16L99.52 666.25L99.55 666.36L101.45 674.22L101.48 674.33L101.5 674.42L101.53 674.53L103.56 682.36L103.59 682.47L103.61 682.56L103.64 682.67L105.8 690.47L105.83 690.57L105.85 690.67L105.88 690.77L108.17 698.53L108.2 698.64L108.23 698.73L108.26 698.84L110.67 706.56L110.7 706.67L110.73 706.76L110.77 706.87L113.31 714.55L113.34 714.65L113.37 714.74L113.41 714.85L116.07 722.49L116.11 722.59L116.14 722.68L116.18 722.79L118.96 730.38L119.0 730.49L119.04 730.58L119.08 730.68L121.99 738.23L122.03 738.33L122.06 738.42L122.11 738.53L125.14 746.02L125.18 746.13L125.22 746.22L125.26 746.32L128.42 753.77L128.46 753.87L128.5 753.96L128.54 754.06L131.82 761.46L131.87 761.56L131.91 761.65L131.95 761.75L135.35 769.09L135.4 769.19L135.44 769.28L135.49 769.38L139.01 776.66L139.05 776.76L139.1 776.85L139.15 776.95L142.78 784.17L142.83 784.27L142.88 784.36L142.93 784.46L146.68 791.62L146.73 791.72L146.78 791.81L146.83 791.9L150.7 799.01L150.76 799.1L150.8 799.19L150.86 799.29L154.85 806.33L154.9 806.42L154.95 806.51L155.0 806.6L159.11 813.57L159.16 813.67L159.21 813.75L159.27 813.85L163.48 820.75L163.54 820.85L163.59 820.93L163.65 821.02L167.58 827.23L167.76 827.51L167.92 827.75L168.3 828.28L168.47 828.52L168.88 829.03L169.06 829.26L169.49 829.76L169.68 829.97L170.13 830.45L170.34 830.66L170.81 831.11L171.03 831.3L171.52 831.73L171.74 831.92L172.26 832.32L172.49 832.5L173.03 832.88L173.27 833.04L173.82 833.4L174.07 833.55L174.63 833.87L174.89 834.01L175.47 834.31L175.74 834.44L176.33 834.71L176.6 834.82L177.21 835.06L177.48 835.16L178.1 835.37L178.38 835.46L179.01 835.64L179.29 835.71L179.93 835.86L180.22 835.92L180.86 836.04L181.15 836.09L181.8 836.17L182.09 836.21L182.74 836.26L183.03 836.28L183.68 836.3L183.97 836.31L184.63 836.3L184.92 836.29L185.57 836.25L185.86 836.22L186.52 836.15L186.8 836.11L187.45 836.01L187.74 835.96L188.38 835.83L188.66 835.76L189.3 835.59L189.58 835.51L189.89 835.42L190.86 835.12L190.89 835.11L192.41 834.66L192.45 834.65L193.97 834.23L194.01 834.22L195.54 833.82L195.58 833.81L197.12 833.44L197.15 833.43L198.7 833.08L198.74 833.08L200.29 832.75L200.32 832.75L201.88 832.45L201.92 832.44L203.48 832.17L203.51 832.17L205.08 831.92L205.11 831.92L206.68 831.7L206.72 831.69L208.29 831.5L208.33 831.49L209.9 831.33L209.94 831.32L211.52 831.18L211.56 831.18L213.14 831.06L213.17 831.06L214.75 830.97L214.79 830.97L216.37 830.9L216.41 830.9L217.99 830.86L218.03 830.86L219.62 830.85L219.65 830.85L221.24 830.86L221.27 830.86L222.86 830.9L222.89 830.9L224.48 830.97L224.51 830.97L226.1 831.06L226.13 831.06L227.71 831.18L227.75 831.18L229.33 831.32L229.36 831.33L230.94 831.49L230.98 831.5L232.55 831.69L232.58 831.7L234.15 831.92L234.19 831.92L235.75 832.17L235.79 832.17L237.35 832.44L237.39 832.45L238.94 832.75L238.98 832.75L240.53 833.08L240.57 833.08L242.11 833.43L242.15 833.44L243.69 833.81L243.73 833.82L245.26 834.22L245.29 834.23L246.82 834.65L246.86 834.66L248.38 835.11L248.41 835.12L249.92 835.59L249.96 835.6L251.46 836.1L251.5 836.11L252.99 836.63L253.03 836.65L254.52 837.19L254.55 837.2L256.03 837.77L256.06 837.79L257.53 838.38L257.57 838.4L259.02 839.01L259.06 839.03L260.51 839.67L260.54 839.69L261.98 840.35L262.01 840.37L263.44 841.06L263.47 841.07L264.89 841.79L264.92 841.8L266.32 842.54L266.35 842.55L267.75 843.31L267.78 843.33L269.16 844.11L269.19 844.13L270.55 844.93L270.58 844.95L271.94 845.78L271.97 845.8L273.31 846.65L273.34 846.67L274.66 847.53L274.69 847.55L276.0 848.45L276.03 848.47L277.33 849.38L277.36 849.4L278.64 850.33L278.67 850.36L279.93 851.31L279.96 851.33L281.21 852.31L281.24 852.33L282.47 853.32L282.5 853.35L283.72 854.36L283.75 854.39L284.95 855.42L284.97 855.45L286.16 856.5L286.18 856.53L287.35 857.6L287.38 857.62L288.52 858.72L288.55 858.74L289.68 859.85L289.7 859.88L290.82 861.01L290.84 861.04L291.93 862.18L291.96 862.21L293.03 863.37L293.06 863.4L294.11 864.58L294.14 864.61L295.17 865.81L295.19 865.84L296.21 867.06L296.23 867.08L297.23 868.32L297.25 868.35L298.23 869.6L298.25 869.62L299.2 870.89L299.22 870.92L300.16 872.2L300.18 872.23L301.09 873.52L301.11 873.55L302.0 874.86L302.02 874.9L302.89 876.22L302.91 876.25L303.76 877.59L303.78 877.62L304.6 878.97L304.62 879.0L305.43 880.37L305.45 880.4L306.23 881.78L306.24 881.81L307.0 883.2L307.02 883.24L307.76 884.64L307.77 884.67L308.48 886.09L308.5 886.12L309.19 887.55L309.21 887.58L309.87 889.02L309.89 889.05L310.53 890.5L310.54 890.53L311.16 891.99L311.18 892.03L311.77 893.49L311.78 893.53L312.35 895.01L312.37 895.04L312.91 896.53L312.92 896.56L313.45 898.06L313.46 898.09L313.96 899.6L313.97 899.63L314.44 901.15L314.45 901.18L314.9 902.7L314.91 902.74L315.33 904.26L315.34 904.3L315.74 905.83L315.75 905.87L316.12 907.41L316.13 907.44L316.47 908.99L316.48 909.03L316.8 910.58L316.81 910.61L317.11 912.17L317.11 912.21L317.38 913.77L317.39 913.8L317.64 915.37L317.64 915.4L317.86 916.97L317.86 917.01L318.06 918.58L318.06 918.62L318.23 920.19L318.23 920.23L318.38 921.81L318.38 921.85L318.5 923.43L318.5 923.46L318.59 925.04L318.59 925.08L318.66 926.66L318.66 926.7L318.7 928.28L318.7 928.32L318.71 929.91L318.71 929.94L318.7 931.53L318.7 931.56L318.66 933.15L318.66 933.18L318.59 934.77L318.59 934.8L318.5 936.39L318.5 936.42L318.38 938.0L318.38 938.04L318.23 939.62L318.23 939.65L318.06 941.23L318.06 941.27L317.86 942.84L317.86 942.87L317.64 944.44L317.64 944.48L317.39 946.04L317.38 946.08L317.11 947.64L317.11 947.68L316.81 949.23L316.8 949.27L316.48 950.82L316.47 950.86L316.13 952.4L316.12 952.44L315.75 953.98L315.74 954.02L315.34 955.55L315.33 955.58L314.91 957.11L314.9 957.15L314.45 958.67L314.44 958.7L314.14 959.67L314.04 959.98L313.96 960.26L313.8 960.89L313.73 961.18L313.6 961.82L313.55 962.11L313.44 962.75L313.4 963.04L313.33 963.69L313.31 963.98L313.27 964.64L313.26 964.93L313.25 965.58L313.25 965.87L313.28 966.53L313.3 966.82L313.35 967.47L313.38 967.76L313.47 968.41L313.52 968.7L313.64 969.34L313.7 969.62L313.84 970.26L313.92 970.54L314.1 971.17L314.19 971.45L314.4 972.07L314.5 972.34L314.74 972.95L314.85 973.22L315.12 973.82L315.25 974.08L315.54 974.66L315.68 974.92L316.01 975.49L316.16 975.74L316.51 976.29L316.68 976.53L317.06 977.06L317.23 977.3L317.64 977.81L317.82 978.03L318.25 978.53L318.45 978.74L318.9 979.22L319.11 979.42L319.58 979.87L319.8 980.07L320.29 980.49L320.52 980.68L321.04 981.08L321.27 981.25L321.81 981.63L322.05 981.79L322.32 981.97L328.45 985.85L328.54 985.91L328.63 985.96L328.72 986.02L335.62 990.24L335.72 990.29L335.8 990.34L335.9 990.4L342.87 994.5L342.96 994.56L343.05 994.61L343.15 994.66L350.18 998.65L350.28 998.7L350.37 998.75L350.46 998.81L357.56 1002.68L357.66 1002.73L357.75 1002.78L357.85 1002.83L365.01 1006.58L365.11 1006.63L365.2 1006.68L365.3 1006.73L372.52 1010.37L372.62 1010.42L372.71 1010.46L372.81 1010.51L380.09 1014.03L380.19 1014.08L380.28 1014.12L380.38 1014.16L387.72 1017.56L387.82 1017.61L387.91 1017.65L388.01 1017.7L395.41 1020.97L395.51 1021.02L395.6 1021.06L395.7 1021.1L403.15 1024.26L403.25 1024.3L403.34 1024.34L403.44 1024.38L410.94 1027.42L411.04 1027.46L411.13 1027.49L411.24 1027.53L418.78 1030.45L418.89 1030.48L418.98 1030.52L419.08 1030.56L426.68 1033.35L426.78 1033.38L426.87 1033.42L426.98 1033.45L434.61 1036.12L434.72 1036.15L434.81 1036.18L434.92 1036.22L442.6 1038.76L442.7 1038.79L442.8 1038.82L442.9 1038.86L450.62 1041.27L450.73 1041.3L450.82 1041.33L450.93 1041.36L458.69 1043.65L458.79 1043.68L458.89 1043.7L458.99 1043.73L466.79 1045.89L466.9 1045.92L466.99 1045.95L467.1 1045.97L474.93 1048.0L475.04 1048.03L475.13 1048.06L475.24 1048.08L483.1 1049.98L483.21 1050.01L483.3 1050.03L483.41 1050.06L490.58 1051.67L490.9 1051.74L491.19 1051.79L491.83 1051.9L492.12 1051.95L492.77 1052.03L493.06 1052.06L493.71 1052.11L494.0 1052.12L494.66 1052.14L494.95 1052.14L495.6 1052.13L495.89 1052.11L496.55 1052.07L496.84 1052.04L497.49 1051.96L497.78 1051.92L498.42 1051.81L498.71 1051.76L499.35 1051.62L499.63 1051.55L500.26 1051.38L500.54 1051.29L501.17 1051.09L501.44 1051.0L502.05 1050.77L502.32 1050.66L502.92 1050.4L503.19 1050.27L503.78 1049.98L504.03 1049.85L504.61 1049.53L504.86 1049.38L505.41 1049.04L505.66 1048.88L506.2 1048.51L506.43 1048.34L506.95 1047.94L507.18 1047.76L507.68 1047.34L507.9 1047.14L508.38 1046.7L508.59 1046.49L509.05 1046.03L509.24 1045.81L509.68 1045.32L509.87 1045.1L510.28 1044.59L510.45 1044.36L510.84 1043.83L511.0 1043.59L511.36 1043.04L511.51 1042.79L511.85 1042.23L511.99 1041.97L512.14 1041.69L512.61 1040.79L512.63 1040.76L513.39 1039.37L513.41 1039.33L514.19 1037.95L514.21 1037.92L515.01 1036.56L515.03 1036.53L515.85 1035.17L515.87 1035.14L516.72 1033.8L516.74 1033.77L517.61 1032.45L517.63 1032.42L518.52 1031.11L518.54 1031.08L519.46 1029.78L519.48 1029.75L520.41 1028.47L520.43 1028.44L521.39 1027.18L521.41 1027.15L522.38 1025.9L522.41 1025.87L523.4 1024.64L523.42 1024.61L524.44 1023.39L524.46 1023.36L525.5 1022.16L525.52 1022.14L526.58 1020.95L526.6 1020.93L527.67 1019.76L527.7 1019.74L528.79 1018.59L528.82 1018.56L529.93 1017.43L529.96 1017.41L531.08 1016.29L531.11 1016.27L532.26 1015.18L532.29 1015.15L533.45 1014.08L533.48 1014.05L534.66 1013.0L534.69 1012.97L535.89 1011.94L535.92 1011.92L537.13 1010.9L537.16 1010.88L538.39 1009.88L538.42 1009.86L539.67 1008.89L539.7 1008.86L540.97 1007.91L540.99 1007.89L542.28 1006.95L542.3 1006.93L543.6 1006.02L543.63 1006.0L544.94 1005.11L544.97 1005.09L546.3 1004.22L546.33 1004.2L547.67 1003.35L547.7 1003.33L549.05 1002.51L549.08 1002.49L550.45 1001.68L550.48 1001.66L551.86 1000.88L551.89 1000.87L553.28 1000.11L553.31 1000.09L554.72 999.35L554.75 999.34L556.16 998.63L556.2 998.61L557.62 997.92L557.66 997.9L559.09 997.24L559.13 997.22L560.58 996.58L560.61 996.57L562.07 995.95L562.1 995.93L563.57 995.34L563.6 995.33L565.08 994.76L565.12 994.74L566.6 994.2L566.64 994.19L568.14 993.66L568.17 993.65L569.67 993.16L569.71 993.14L571.22 992.67L571.26 992.66L572.78 992.21L572.81 992.2L574.34 991.78L574.37 991.77L575.91 991.37L575.94 991.36L577.48 990.99L577.52 990.98L579.07 990.64L579.1 990.63L580.65 990.31L580.69 990.3L582.25 990.0L582.28 990.0L583.84 989.73L583.88 989.72L585.44 989.48L585.48 989.47L587.05 989.25L587.09 989.25L588.66 989.05L588.7 989.05L590.27 988.88L590.31 988.88L591.88 988.73L591.92 988.73L593.5 988.61L593.54 988.61L595.12 988.52L595.16 988.52L596.74 988.45L596.78 988.45L598.36 988.41L598.4 988.41L599.98 988.4L600.02 988.4L601.6 988.41L601.64 988.41L603.22 988.45L603.26 988.45L604.84 988.52L604.88 988.52L606.46 988.61L606.5 988.61L608.08 988.73L608.11 988.73L609.69 988.88L609.73 988.88L611.3 989.05L611.34 989.05L612.91 989.25L612.95 989.25L614.52 989.47L614.56 989.48L616.12 989.72L616.16 989.73L617.72 990.0L617.75 990.0L619.31 990.3L619.35 990.31L620.9 990.63L620.93 990.64L622.48 990.98L622.52 990.99L624.06 991.36L624.09 991.37L625.63 991.77L625.66 991.78L627.19 992.2L627.22 992.21L628.74 992.66L628.78 992.67L630.29 993.14L630.33 993.16L631.83 993.65L631.86 993.66L633.36 994.19L633.4 994.2L634.88 994.74L634.92 994.76L636.4 995.33L636.43 995.34L637.9 995.93L637.93 995.95L639.39 996.57L639.42 996.58L640.87 997.22L640.91 997.24L642.34 997.9L642.38 997.92L643.8 998.61L643.84 998.63L645.25 999.34L645.28 999.35L646.69 1000.09L646.72 1000.11L648.11 1000.87L648.14 1000.88L649.52 1001.66L649.55 1001.68L650.92 1002.49L650.95 1002.51L652.3 1003.33L652.33 1003.35L653.67 1004.2L653.7 1004.22L655.03 1005.09L655.06 1005.11L656.37 1006.0L656.4 1006.02L657.69 1006.93L657.72 1006.95L659.01 1007.89L659.03 1007.91L660.3 1008.86L660.33 1008.89L661.58 1009.86L661.61 1009.88L662.84 1010.88L662.87 1010.9L664.08 1011.92L664.11 1011.94L665.31 1012.97L665.34 1013.0L666.52 1014.05L666.55 1014.08L667.71 1015.15L667.74 1015.18L668.89 1016.27L668.92 1016.29L670.04 1017.41L670.07 1017.43L671.18 1018.56L671.21 1018.59L672.3 1019.74L672.32 1019.76L673.4 1020.93L673.42 1020.95L674.48 1022.14L674.5 1022.16L675.54 1023.36L675.56 1023.39L676.58 1024.61L676.6 1024.64L677.59 1025.87L677.62 1025.9L678.59 1027.15L678.61 1027.18L679.57 1028.44L679.59 1028.47L680.52 1029.75L680.54 1029.78L681.46 1031.08L681.48 1031.11L682.37 1032.42L682.39 1032.45L683.26 1033.77L683.28 1033.8L684.13 1035.14L684.15 1035.17L684.97 1036.53L684.99 1036.56L685.79 1037.92L685.81 1037.95L686.59 1039.33L686.61 1039.37L687.37 1040.76L687.39 1040.79L687.86 1041.68L688.01 1041.97L688.15 1042.23L688.48 1042.79L688.64 1043.04L689.0 1043.59L689.16 1043.83L689.55 1044.36L689.72 1044.59L690.13 1045.1L690.32 1045.32L690.76 1045.81L690.95 1046.02L691.41 1046.49L691.62 1046.7L692.1 1047.14L692.32 1047.33L692.82 1047.76L693.05 1047.94L693.57 1048.34L693.8 1048.51L694.34 1048.88L694.58 1049.04L695.14 1049.38L695.39 1049.53L695.96 1049.85L696.22 1049.98L696.81 1050.27L697.07 1050.39L697.67 1050.66L697.94 1050.76L698.56 1051.0L698.83 1051.09L699.46 1051.29L699.73 1051.38L700.37 1051.55L700.65 1051.62L701.29 1051.76L701.57 1051.81L702.22 1051.92L702.51 1051.96L703.16 1052.04L703.45 1052.07L704.1 1052.11L704.39 1052.13L705.05 1052.14L705.34 1052.14L705.99 1052.12L706.28 1052.11L706.94 1052.06L707.23 1052.03L707.88 1051.95L708.16 1051.9L708.81 1051.79L709.1 1051.74L709.42 1051.67L716.49 1050.08L716.6 1050.06L716.69 1050.03L716.8 1050.01L724.66 1048.11L724.77 1048.08L724.87 1048.06L724.97 1048.03L732.8 1046.0L732.91 1045.97L733.01 1045.95L733.11 1045.92L740.91 1043.76L741.02 1043.73L741.11 1043.7L741.22 1043.67L748.98 1041.39L749.08 1041.36L749.18 1041.33L749.28 1041.3L757.0 1038.89L757.11 1038.85L757.2 1038.82L757.31 1038.79L764.99 1036.25L765.09 1036.22L765.19 1036.18L765.29 1036.15L772.93 1033.49L773.03 1033.45L773.13 1033.42L773.23 1033.38L780.82 1030.59L780.93 1030.55L781.02 1030.52L781.12 1030.48L788.67 1027.57L788.77 1027.53L788.87 1027.49L788.97 1027.45L796.47 1024.42L796.57 1024.38L796.66 1024.34L796.76 1024.3L804.21 1021.14L804.31 1021.1L804.4 1021.06L804.5 1021.01L811.9 1017.74L812.0 1017.69L812.09 1017.65L812.19 1017.6L819.53 1014.21L819.63 1014.16L819.72 1014.12L819.82 1014.07L827.1 1010.55L827.2 1010.5L827.29 1010.46L827.39 1010.41L834.62 1006.77L834.71 1006.72L834.8 1006.68L834.9 1006.63L842.07 1002.87L842.16 1002.82L842.25 1002.78L842.35 1002.72L849.45 998.85L849.55 998.8L849.63 998.75L849.73 998.7L856.77 994.71L856.86 994.66L856.95 994.61L857.04 994.55L864.02 990.45L864.11 990.39L864.2 990.34L864.29 990.29L871.2 986.07L871.29 986.01L871.37 985.96L871.47 985.9L877.67 981.97L877.95 981.8L878.19 981.63L878.73 981.26L878.96 981.08L879.48 980.68L879.7 980.5L880.2 980.07L880.42 979.88L880.89 979.43L881.1 979.22L881.55 978.75L881.75 978.53L882.18 978.04L882.36 977.81L882.77 977.3L882.94 977.07L883.32 976.53L883.48 976.29L883.84 975.74L883.99 975.49L884.32 974.92L884.45 974.67L884.75 974.08L884.88 973.82L885.15 973.22L885.26 972.96L885.5 972.35L885.6 972.07L885.81 971.45L885.9 971.18L886.08 970.55L886.15 970.26L886.3 969.63L886.36 969.34L886.48 968.7L886.53 968.41L886.62 967.76L886.65 967.47L886.7 966.82L886.72 966.53L886.75 965.87L886.75 965.58L886.74 964.93L886.73 964.64L886.69 963.98L886.67 963.69L886.6 963.04L886.56 962.75L886.45 962.11L886.4 961.82L886.27 961.18L886.2 960.9L886.04 960.26L885.96 959.98L885.86 959.67L885.56 958.7L885.55 958.67L885.1 957.15L885.09 957.11L884.67 955.58L884.66 955.55L884.26 954.02L884.25 953.98L883.88 952.44L883.87 952.4L883.53 950.86L883.52 950.82L883.2 949.27L883.19 949.23L882.89 947.68L882.89 947.64L882.62 946.08L882.61 946.04L882.36 944.48L882.36 944.44L882.14 942.87L882.13 942.84L881.94 941.27L881.94 941.23L881.77 939.65L881.76 939.62L881.62 938.04L881.62 938.0L881.5 936.42L881.5 936.39L881.41 934.8L881.41 934.77L881.34 933.18L881.34 933.15L881.3 931.56L881.3 931.53L881.29 929.94L881.29 929.91L881.3 928.32L881.3 928.28L881.34 926.7L881.34 926.66L881.41 925.08L881.41 925.04L881.5 923.46L881.5 923.43L881.62 921.85L881.62 921.81L881.76 920.23L881.77 920.19L881.94 918.62L881.94 918.58L882.13 917.01L882.14 916.97L882.36 915.4L882.36 915.37L882.61 913.8L882.62 913.77L882.89 912.21L882.89 912.17L883.19 910.61L883.2 910.58L883.52 909.03L883.53 908.99L883.87 907.44L883.88 907.41L884.25 905.87L884.26 905.83L884.66 904.3L884.67 904.26L885.09 902.74L885.1 902.7L885.55 901.18L885.56 901.15L886.03 899.63L886.04 899.6L886.54 898.09L886.55 898.06L887.08 896.56L887.09 896.53L887.63 895.04L887.65 895.01L888.22 893.53L888.23 893.49L888.82 892.03L888.84 891.99L889.46 890.53L889.47 890.5L890.11 889.05L890.13 889.02L890.79 887.58L890.81 887.55L891.5 886.12L891.52 886.09L892.23 884.67L892.24 884.64L892.98 883.24L893.0 883.2L893.76 881.81L893.77 881.78L894.55 880.4L894.57 880.37L895.38 879.0L895.39 878.97L896.22 877.62L896.24 877.59L897.09 876.25L897.11 876.22L897.98 874.9L898.0 874.86L898.89 873.55L898.91 873.52L899.82 872.23L899.84 872.2L900.78 870.92L900.8 870.89L901.75 869.62L901.77 869.6L902.75 868.35L902.77 868.32L903.77 867.08L903.79 867.06L904.81 865.84L904.83 865.81L905.86 864.61L905.89 864.58L906.94 863.4L906.97 863.37L908.04 862.21L908.07 862.18L909.16 861.04L909.18 861.01L910.3 859.88L910.32 859.85L911.45 858.74L911.48 858.72L912.62 857.62L912.65 857.6L913.82 856.53L913.84 856.5L915.03 855.45L915.05 855.42L916.25 854.39L916.28 854.36L917.5 853.35L917.53 853.32L918.76 852.33L918.79 852.31L920.04 851.33L920.07 851.31L921.33 850.36L921.36 850.33L922.64 849.4L922.67 849.38L923.97 848.47L924.0 848.45L925.31 847.55L925.34 847.53L926.66 846.67L926.69 846.65L928.03 845.8L928.06 845.78L929.41 844.95L929.45 844.93L930.81 844.13L930.84 844.11L932.22 843.33L932.25 843.31L933.65 842.55L933.68 842.54L935.08 841.8L935.11 841.79L936.53 841.07L936.56 841.06L937.99 840.37L938.02 840.35L939.46 839.69L939.49 839.67L940.94 839.03L940.98 839.01L942.43 838.4L942.47 838.38L943.94 837.79L943.97 837.77L945.45 837.2L945.48 837.19L946.97 836.65L947.01 836.63L948.5 836.11L948.54 836.1L950.04 835.6L950.08 835.59L951.59 835.12L951.62 835.11L953.14 834.66L953.18 834.65L954.71 834.23L954.74 834.22L956.27 833.82L956.31 833.81L957.85 833.44L957.89 833.43L959.43 833.08L959.47 833.08L961.02 832.75L961.06 832.75L962.61 832.45L962.65 832.44L964.21 832.17L964.25 832.17L965.81 831.92L965.85 831.92L967.42 831.7L967.45 831.69L969.02 831.5L969.06 831.49L970.64 831.33L970.67 831.32L972.25 831.18L972.29 831.18L973.87 831.06L973.9 831.06L975.49 830.97L975.52 830.97L977.11 830.9L977.14 830.9L978.73 830.86L978.76 830.86L980.35 830.85L980.38 830.85L981.97 830.86L982.01 830.86L983.59 830.9L983.63 830.9L985.21 830.97L985.25 830.97L986.83 831.06L986.86 831.06L988.44 831.18L988.48 831.18L990.06 831.32L990.1 831.33L991.67 831.49L991.71 831.5L993.28 831.69L993.32 831.7L994.89 831.92L994.92 831.92L996.49 832.17L996.52 832.17L998.08 832.44L998.12 832.45L999.68 832.75L999.71 832.75L1001.26 833.08L1001.3 833.08L1002.85 833.43L1002.88 833.44L1004.42 833.81L1004.46 833.82L1005.99 834.22L1006.03 834.23L1007.55 834.65L1007.59 834.66L1009.11 835.11L1009.14 835.12L1010.11 835.42L1010.42 835.51L1010.7 835.59L1011.34 835.76L1011.62 835.83L1012.26 835.96L1012.55 836.01L1013.19 836.11L1013.48 836.15L1014.13 836.22L1014.42 836.25L1015.08 836.29L1015.37 836.3L1016.02 836.31L1016.31 836.3L1016.97 836.28L1017.26 836.26L1017.91 836.21L1018.2 836.17L1018.85 836.09L1019.14 836.04L1019.78 835.92L1020.07 835.86L1020.7 835.71L1020.99 835.64L1021.62 835.46L1021.89 835.37L1022.51 835.16L1022.79 835.06L1023.4 834.82L1023.66 834.71L1024.26 834.44L1024.52 834.31L1025.11 834.01L1025.36 833.87L1025.93 833.55L1026.18 833.4L1026.73 833.04L1026.97 832.88L1027.51 832.5L1027.74 832.33L1028.25 831.92L1028.48 831.74L1028.97 831.31L1029.19 831.11L1029.66 830.66L1029.86 830.45L1030.32 829.98L1030.51 829.76L1030.94 829.26L1031.12 829.04L1031.52 828.52L1031.7 828.29L1032.07 827.75L1032.24 827.51L1032.41 827.23L1036.29 821.11L1036.35 821.02L1036.4 820.93L1036.46 820.84L1040.68 813.93L1040.74 813.84L1040.79 813.76L1040.84 813.66L1044.95 806.69L1045.0 806.59L1045.05 806.51L1045.1 806.41L1049.09 799.37L1049.15 799.28L1049.19 799.19L1049.25 799.1L1053.12 791.99L1053.17 791.9L1053.22 791.81L1053.27 791.71L1057.03 784.55L1057.08 784.45L1057.12 784.36L1057.17 784.26L1060.81 777.04L1060.86 776.94L1060.9 776.85L1060.95 776.75L1062.18 774.22L1062.32 773.91L1062.44 773.64L1062.57 773.34L1062.7 773.03L1062.81 772.76L1062.93 772.44L1063.04 772.13L1063.13 771.85L1063.23 771.53L1063.33 771.22L1063.41 770.93L1063.5 770.61L1063.58 770.29L1063.64 770.0L1063.72 769.67L1063.78 769.35L1063.83 769.05L1063.89 768.73L1063.93 768.4L1063.97 768.1L1064.01 767.77L1064.04 767.44L1064.07 767.15L1064.09 766.81L1064.1 766.48L1064.11 766.19L1064.12 765.85L1064.12 765.52L1064.11 765.22L1064.1 764.89L1064.08 764.56L1064.06 764.26L1064.04 763.93L1064.0 763.6L1063.97 763.31L1063.92 762.98L1063.87 762.65L1063.82 762.35L1063.77 762.03L1063.7 761.7L1063.63 761.41L1063.56 761.09L1063.48 760.77L1063.4 760.48L1063.31 760.16L1063.21 759.84L1063.12 759.56L1063.01 759.24L1062.9 758.93L1062.79 758.66L1062.67 758.35L1062.54 758.04L1062.42 757.77L1062.28 757.46L1062.14 757.16L1062.01 756.9L1061.86 756.6L1061.7 756.31L1061.55 756.05L1061.38 755.76L1061.21 755.48L1061.05 755.23L1060.87 754.95L1060.69 754.67L1060.52 754.43L1060.32 754.16L1060.12 753.9L1059.94 753.66L1059.73 753.4L1059.52 753.15L1059.33 752.92L1059.11 752.67L1058.88 752.43L1058.68 752.21L1058.45 751.97L1058.21 751.74L1058.0 751.53L1057.75 751.31L1057.5 751.08L1057.28 750.89L1057.03 750.68L1056.77 750.47L1056.53 750.28L1056.27 750.08L1056.0 749.89L1055.76 749.72L1055.49 749.53L1055.21 749.34L1054.96 749.18L1054.67 749.01L1054.39 748.84L1054.13 748.69L1053.84 748.53L1053.54 748.38L1053.28 748.25L1052.98 748.1L1052.68 747.96L1052.41 747.84L1052.1 747.71L1051.79 747.58L1051.52 747.48L1051.2 747.36L1050.89 747.25L1050.61 747.16L1050.29 747.06L1049.97 746.96L1049.69 746.89L1049.36 746.8L1049.04 746.72L1048.75 746.66L1048.43 746.59L1048.1 746.53L1047.81 746.48L1047.48 746.42L1047.15 746.38L1046.86 746.34L1046.52 746.31L1046.19 746.28L1045.9 746.26L1045.57 746.23L1045.23 746.22L1044.94 746.21L1044.6 746.21L883.07 746.21L882.7 746.51L882.37 746.77L881.98 747.07L881.64 747.33L881.24 747.61L880.89 747.86L880.48 748.13L880.12 748.36L879.7 748.62L879.34 748.84L878.91 749.08L878.54 749.29L878.11 749.52L877.73 749.72L877.29 749.93L876.9 750.11L876.46 750.32L876.07 750.49L875.61 750.67L875.22 750.83L874.76 751.0L874.36 751.15L873.89 751.31L873.49 751.44L873.02 751.58L872.61 751.7L872.13 751.82L871.72 751.93L871.24 752.04L870.82 752.13L870.34 752.22L869.92 752.3L869.44 752.38L869.02 752.44L868.53 752.51L868.11 752.55L867.62 752.6L867.19 752.64L866.7 752.67L866.28 752.69L865.79 752.71L865.36 752.71L865.12 752.72L855.95 752.72L855.94 752.73L855.72 752.98L855.52 753.21L855.31 753.47L852.6 756.83L852.57 756.86L849.17 760.94L849.15 760.97L845.68 764.99L845.65 765.02L842.12 768.98L842.1 769.01L838.5 772.91L838.47 772.94L834.81 776.78L834.79 776.81L831.06 780.59L831.04 780.62L827.25 784.34L827.23 784.37L823.38 788.03L823.35 788.06L819.45 791.65L819.42 791.68L815.46 795.21L815.43 795.24L811.41 798.7L811.38 798.73L807.3 802.13L807.28 802.15L803.14 805.49L803.12 805.51L798.93 808.78L798.9 808.8L794.66 812.0L794.63 812.02L790.34 815.15L790.31 815.17L785.97 818.23L785.94 818.25L781.55 821.23L781.52 821.25L777.08 824.17L777.05 824.19L772.56 827.03L772.53 827.05L768.0 829.81L767.97 829.83L763.39 832.53L763.36 832.54L758.74 835.16L758.71 835.18L754.05 837.72L754.01 837.74L749.31 840.2L749.28 840.22L744.54 842.61L744.5 842.62L739.72 844.93L739.69 844.95L734.87 847.18L734.84 847.19L729.98 849.35L729.95 849.36L725.06 851.43L725.03 851.45L720.1 853.44L720.07 853.45L715.12 855.36L715.08 855.38L710.1 857.2L710.06 857.22L705.05 858.96L705.01 858.98L699.97 860.64L699.94 860.65L694.87 862.24L694.83 862.25L689.74 863.75L689.71 863.76L684.59 865.17L684.55 865.18L679.41 866.51L679.38 866.52L674.22 867.77L674.18 867.78L669.0 868.94L668.96 868.95L663.76 870.03L663.73 870.04L658.51 871.03L658.48 871.04L653.24 871.94L653.21 871.95L647.96 872.77L647.93 872.78L642.67 873.51L642.63 873.52L637.36 874.17L637.33 874.17L632.05 874.74L632.01 874.74L626.72 875.22L626.68 875.22L621.39 875.61L621.35 875.61L616.05 875.92L616.01 875.92L610.71 876.14L610.67 876.14L605.36 876.27L605.33 876.27L600.02 876.31L599.98 876.31L594.67 876.27L594.64 876.27L589.33 876.14L589.29 876.14L583.99 875.92L583.95 875.92L578.65 875.61L578.61 875.61L573.32 875.22L573.28 875.22L567.99 874.74L567.95 874.74L562.67 874.17L562.64 874.17L557.37 873.52L557.33 873.51L552.07 872.78L552.04 872.77L546.79 871.95L546.75 871.94L541.52 871.04L541.49 871.03L536.27 870.04L536.24 870.03L531.04 868.95L531.0 868.94L525.82 867.78L525.78 867.77L520.62 866.52L520.59 866.51L515.45 865.18L515.41 865.17L510.29 863.76L510.26 863.75L505.17 862.25L505.13 862.24L500.06 860.65L500.03 860.64L494.99 858.98L494.95 858.96L489.94 857.22L489.9 857.2L484.92 855.38L484.88 855.36L479.93 853.45L479.9 853.44L474.97 851.45L474.94 851.43L470.05 849.36L470.02 849.35L465.16 847.19L465.13 847.18L460.31 844.95L460.28 844.93L455.5 842.62L455.46 842.61L450.72 840.22L450.69 840.2L445.99 837.74L445.95 837.72L441.29 835.18L441.26 835.16L436.64 832.54L436.61 832.53L432.03 829.83L432.0 829.81L427.47 827.05L427.44 827.03L422.95 824.19L422.92 824.17L418.48 821.25L418.45 821.23L414.06 818.25L414.03 818.23L409.69 815.17L409.66 815.15L405.37 812.02L405.34 812.0L401.1 808.8L401.07 808.78L396.88 805.51L396.86 805.49L392.72 802.15L392.7 802.13L388.62 798.73L388.59 798.7L384.57 795.24L384.54 795.21L380.58 791.68L380.55 791.65L376.65 788.06L376.62 788.03L372.77 784.37L372.75 784.34L368.96 780.62L368.94 780.59L365.21 776.81L365.19 776.78L361.53 772.94L361.5 772.91L357.9 769.01L357.88 768.98L354.35 765.02L354.32 764.99L350.85 760.97L350.83 760.94L347.43 756.86L347.4 756.83L344.07 752.7L344.05 752.67L343.52 752.0L343.22 751.93L342.81 751.83L342.34 751.7L341.93 751.59L341.46 751.44L341.06 751.32L340.6 751.16L340.2 751.02L339.74 750.84L339.34 750.69L338.89 750.5L338.5 750.33L338.05 750.13L337.67 749.95L337.23 749.74L336.85 749.54L336.42 749.31L336.05 749.11L335.63 748.86L335.26 748.65L334.84 748.39L334.49 748.16L334.08 747.89L333.73 747.65L333.33 747.36L332.99 747.11L332.6 746.81L332.27 746.55L331.89 746.24L331.57 745.97L331.2 745.64L330.88 745.36L330.52 745.03L330.22 744.73L329.87 744.39L329.57 744.08L329.24 743.73L328.95 743.41L328.63 743.05L328.35 742.72L328.04 742.35L327.78 742.01L327.48 741.63L327.22 741.29L326.94 740.89L326.7 740.54L326.42 740.13L326.19 739.78L325.93 739.36L325.71 739.0L325.47 738.58L325.26 738.21L325.03 737.78L324.83 737.4L324.61 736.96L324.43 736.58L324.23 736.13L324.06 735.74L323.87 735.29L323.71 734.9L323.53 734.44L323.39 734.04L323.23 733.58L323.1 733.18L322.95 732.71L322.84 732.3L322.71 731.83L322.6 731.42L322.49 730.94L322.4 730.53L322.3 730.05L322.22 729.63L322.14 729.15L322.08 728.73L322.01 728.24L321.96 727.82L321.91 727.33L321.87 726.91L321.84 726.42L321.81 726.0L321.8 725.51L321.79 725.09L321.78 724.6L321.79 724.17L321.8 723.68L321.82 723.26L321.85 722.77L321.88 722.35L321.93 721.86L321.97 721.44L322.0 721.25L319.74 717.56L319.72 717.53L317.03 712.95L317.01 712.92L314.4 708.3L314.38 708.27L311.84 703.6L311.82 703.57L309.36 698.87L309.34 698.84L306.95 694.09L306.93 694.06L304.63 689.28L304.61 689.25L302.38 684.43L302.36 684.39L300.21 679.54L300.2 679.51L298.13 674.62L298.11 674.58L296.12 669.66L296.11 669.63L294.2 664.67L294.18 664.64L292.35 659.66L292.34 659.62L290.59 654.61L290.58 654.57L288.92 649.53L288.9 649.5L287.32 644.43L287.31 644.39L285.81 639.3L285.8 639.26L284.38 634.15L284.37 634.11L283.04 628.97L283.03 628.93L281.79 623.77L281.78 623.74L280.61 618.56L280.61 618.52L279.53 613.32L279.52 613.29L278.53 608.07L278.52 608.03L277.61 602.8L277.61 602.77L276.79 597.52L276.78 597.48L276.04 592.23L276.04 592.19L275.39 586.92L275.38 586.88L274.82 581.6L274.82 581.57L274.34 576.28L274.34 576.24L273.95 570.95L273.94 570.91L273.64 565.61L273.64 565.57L273.42 560.27L273.42 560.23L273.29 554.92L273.29 554.89L273.25 549.58L273.25 549.54L273.29 544.23L273.29 544.19L273.42 538.88L273.42 538.85L273.64 533.54L273.64 533.51L273.94 528.21L273.95 528.17L274.34 522.87L274.34 522.84L274.82 517.55L274.82 517.51L275.38 512.23L275.39 512.2L276.04 506.93L276.04 506.89L276.78 501.63L276.79 501.59L277.61 496.35L277.61 496.31L278.52 491.08L278.53 491.04L279.52 485.83L279.53 485.79L280.61 480.59L280.61 480.56L281.78 475.38L281.79 475.34L283.03 470.18L283.04 470.14L284.37 465.01L284.38 464.97L285.8 459.85L285.81 459.82L287.31 454.72L287.32 454.69L288.9 449.62L288.92 449.58L290.58 444.54L290.59 444.51L292.34 439.49L292.35 439.46L294.18 434.48L294.2 434.44L296.11 429.49L296.12 429.45L298.11 424.53L298.13 424.5L300.2 419.61L300.21 419.57L302.36 414.72L302.38 414.69L304.61 409.87L304.63 409.84L306.93 405.05L306.95 405.02L309.34 400.28L309.36 400.25L311.82 395.54L311.84 395.51L314.38 390.85L314.4 390.82L317.01 386.2L317.03 386.16L319.72 381.59L319.74 381.56L322.51 377.02L322.53 376.99L325.37 372.51L325.39 372.48L328.3 368.04L328.32 368.01L331.31 363.62L331.33 363.59L334.39 359.25L334.41 359.22L337.54 354.93L337.56 354.9L340.76 350.66L340.78 350.63L344.05 346.44L344.07 346.41L347.4 342.28L347.43 342.25L350.83 338.18L350.85 338.15L354.32 334.13L354.35 334.1L357.88 330.14L357.9 330.11L361.5 326.2L361.53 326.18L365.19 322.33L365.21 322.31L368.94 318.52L368.96 318.49L372.75 314.77L372.77 314.75L376.62 311.08L376.65 311.06L380.55 307.46L380.58 307.44L384.54 303.9L384.57 303.88L388.59 300.41L388.62 300.39L392.7 296.98L392.72 296.96L396.86 293.63L396.88 293.6L401.07 290.34L401.1 290.31L405.34 287.12L405.37 287.1L409.66 283.97L409.69 283.95L414.03 280.89L414.06 280.87L418.45 277.88L418.48 277.86L422.92 274.95L422.95 274.93L427.44 272.09L427.47 272.07L432.0 269.3L432.03 269.28L436.61 266.59L436.64 266.57L441.26 263.95L441.29 263.94L445.95 261.39L445.99 261.38L450.69 258.91L450.72 258.9L455.46 256.51L455.5 256.49L460.28 254.18L460.31 254.17L465.13 251.94L465.16 251.92L470.02 249.77L470.05 249.76L474.94 247.68L474.97 247.67L479.9 245.68L479.93 245.66L484.88 243.75L484.92 243.74L489.9 241.91L489.94 241.9L494.95 240.15L494.99 240.14L500.03 238.47L500.06 238.46L505.13 236.88L505.17 236.87L510.26 235.37L510.29 235.36L515.41 233.94L515.45 233.93L520.59 232.6L520.62 232.59L525.78 231.34L525.82 231.34L531.0 230.17L531.04 230.16L536.24 229.09L536.27 229.08L541.49 228.09L541.52 228.08L546.75 227.17L546.79 227.16L552.04 226.34L552.07 226.34L557.33 225.6L557.37 225.6L562.64 224.95L562.67 224.94L567.95 224.38L567.99 224.38L573.28 223.9L573.32 223.89L578.61 223.5L578.65 223.5L583.95 223.2L583.99 223.2L589.29 222.98L589.33 222.98L594.64 222.85L594.67 222.85L599.98 222.8L600.02 222.8L605.33 222.85L605.36 222.85L610.67 222.98L610.71 222.98L616.01 223.2L616.05 223.2L621.35 223.5L621.39 223.5L626.68 223.89L626.72 223.9L632.01 224.38L632.05 224.38L637.33 224.94L637.36 224.95L642.63 225.6L642.67 225.6L647.93 226.34L647.96 226.34L653.21 227.16L653.24 227.17L658.48 228.08L658.51 228.09L663.73 229.08L663.76 229.09L668.96 230.16L669.0 230.17L674.18 231.34L674.22 231.34L679.38 232.59L679.41 232.6L684.55 233.93L684.59 233.94L689.71 235.36L689.74 235.37L694.83 236.87L694.87 236.88L699.94 238.46L699.97 238.47L705.01 240.14L705.05 240.15L710.06 241.9L710.1 241.91L715.08 243.74L715.12 243.75L720.07 245.66L720.1 245.68L725.03 247.67L725.06 247.68L729.95 249.76L729.98 249.77L734.84 251.92L734.87 251.94L739.69 254.17L739.72 254.18L744.5 256.49L744.54 256.51L749.28 258.9L749.31 258.91L754.01 261.38L754.05 261.39L758.71 263.94L758.74 263.95L763.36 266.57L763.39 266.59L767.97 269.28L768.0 269.3L772.53 272.07L772.56 272.09L777.05 274.93L777.08 274.95L781.52 277.86L781.55 277.88L785.94 280.87L785.97 280.89L790.31 283.95L790.34 283.97L794.63 287.1L794.66 287.12L798.9 290.31L798.93 290.34L803.12 293.6L803.14 293.63L807.28 296.96L807.3 296.98L811.38 300.39L811.41 300.41L815.43 303.88L815.46 303.9L819.42 307.44L819.45 307.46L823.35 311.06L823.38 311.08L827.23 314.75L827.25 314.77L831.04 318.49L831.06 318.52L834.79 322.31L834.81 322.33L838.47 326.18L838.5 326.2L842.1 330.11L842.12 330.14L845.65 334.1L845.68 334.13L849.15 338.15L849.17 338.18L852.57 342.25L852.6 342.28L855.31 345.65L855.52 345.9L855.72 346.13L855.94 346.38L855.95 346.4L955.74 346.4L955.99 346.4L956.41 346.41L956.9 346.42L957.33 346.45L957.82 346.48L958.24 346.51L958.73 346.56L959.15 346.61L959.64 346.67L960.06 346.74L960.55 346.82L960.97 346.89L961.45 346.99L961.86 347.08L962.34 347.19L962.75 347.29L963.23 347.42L963.64 347.54L964.11 347.68L964.51 347.81L964.98 347.97L965.38 348.11L965.84 348.28L966.24 348.44L966.69 348.63L967.08 348.8L967.53 349.0L967.91 349.18L968.35 349.4L968.73 349.59L969.16 349.83L969.54 350.03L969.96 350.28L970.33 350.5L970.74 350.76L971.1 350.99L971.51 351.26L971.86 351.5L972.26 351.79L972.6 352.04L972.99 352.34L973.33 352.61L973.69 352.9L1044.6 352.9L1044.94 352.9L1045.23 352.89L1045.57 352.88L1045.9 352.86L1046.19 352.84L1046.52 352.81L1046.86 352.77L1047.15 352.74L1047.48 352.69L1047.81 352.64L1048.1 352.59L1048.43 352.53L1048.75 352.46L1049.04 352.39L1049.37 352.31L1049.69 352.23L1049.97 352.15L1050.29 352.06L1050.61 351.96L1050.89 351.86L1051.2 351.75L1051.52 351.64L1051.79 351.53L1052.1 351.41L1052.41 351.28L1052.68 351.15L1052.98 351.02L1053.28 350.87L1053.54 350.74L1053.84 350.58L1054.13 350.42L1054.39 350.27L1054.67 350.11L1054.96 349.93L1055.21 349.77L1055.49 349.59L1055.76 349.4L1056.0 349.23L1056.27 349.03L1056.53 348.83L1056.77 348.65L1057.03 348.44L1057.28 348.22L1057.5 348.03L1057.75 347.81L1058.0 347.58L1058.21 347.38L1058.45 347.14L1058.68 346.91L1058.88 346.69L1059.11 346.45L1059.33 346.2L1059.52 345.97L1059.73 345.72L1059.94 345.45L1060.12 345.22L1060.32 344.95L1060.52 344.68L1060.69 344.44L1060.87 344.17L1061.05 343.89L1061.21 343.64L1061.39 343.35L1061.55 343.06L1061.7 342.81L1061.86 342.51L1062.01 342.22L1062.14 341.95L1062.28 341.65L1062.42 341.35L1062.54 341.08L1062.67 340.77L1062.79 340.46L1062.9 340.18L1063.01 339.87L1063.12 339.56L1063.21 339.27L1063.31 338.96L1063.4 338.64L1063.48 338.35L1063.56 338.03L1063.64 337.7L1063.7 337.42L1063.77 337.09L1063.82 336.76L1063.87 336.47L1063.92 336.14L1063.97 335.81L1064.0 335.52L1064.04 335.19L1064.06 334.85L1064.08 334.56L1064.1 334.23L1064.11 333.89L1064.12 333.6L1064.12 333.26L1064.11 332.93L1064.1 332.64L1064.09 332.3L1064.07 331.97L1064.04 331.68L1064.01 331.34L1063.97 331.01L1063.93 330.72L1063.89 330.39L1063.83 330.06L1063.78 329.77L1063.72 329.44L1063.65 329.12L1063.58 328.83L1063.5 328.51L1063.41 328.19L1063.33 327.9L1063.24 327.58L1063.13 327.27L1063.04 326.99L1062.93 326.67L1062.81 326.36L1062.7 326.09L1062.57 325.78L1062.44 325.47L1062.32 325.2L1062.18 324.9L1060.99 322.45L1060.95 322.35L1060.9 322.27L1060.85 322.17L1057.22 314.94L1057.17 314.84L1057.12 314.76L1057.07 314.66L1053.32 307.49L1053.27 307.39L1053.22 307.31L1053.17 307.21L1049.3 300.11L1049.24 300.01L1049.2 299.92L1049.14 299.83L1045.15 292.79L1045.1 292.69L1045.05 292.61L1044.99 292.51L1040.89 285.54L1040.84 285.45L1040.79 285.36L1040.73 285.27L1036.51 278.36L1036.46 278.27L1036.41 278.18L1036.35 278.09L1032.42 271.88L1032.24 271.61L1032.08 271.37L1031.7 270.83L1031.53 270.6L1031.12 270.08L1030.94 269.85L1030.51 269.36L1030.32 269.14L1029.87 268.67L1029.66 268.46L1029.19 268.01L1028.97 267.81L1028.48 267.38L1028.26 267.2L1027.74 266.79L1027.51 266.62L1026.97 266.24L1026.73 266.07L1026.18 265.72L1025.93 265.57L1025.36 265.24L1025.11 265.1L1024.53 264.8L1024.26 264.68L1023.67 264.41L1023.4 264.3L1022.79 264.05L1022.52 263.95L1021.9 263.74L1021.62 263.66L1020.99 263.48L1020.71 263.4L1020.07 263.25L1019.78 263.19L1019.14 263.07L1018.85 263.03L1018.2 262.94L1017.91 262.91L1017.26 262.85L1016.97 262.84L1016.32 262.81L1016.03 262.81L1015.37 262.82L1015.08 262.83L1014.43 262.87L1014.14 262.89L1013.48 262.96L1013.2 263.0L1012.55 263.1L1012.26 263.16L1011.62 263.29L1011.34 263.36L1010.7 263.52L1010.42 263.6L1010.11 263.69L1009.14 264.0L1009.11 264.01L1007.59 264.45L1007.55 264.46L1006.03 264.89L1005.99 264.9L1004.46 265.29L1004.42 265.3L1002.88 265.68L1002.85 265.68L1001.3 266.03L1001.26 266.04L999.71 266.36L999.68 266.37L998.12 266.66L998.08 266.67L996.52 266.94L996.49 266.95L994.92 267.19L994.89 267.2L993.32 267.42L993.28 267.42L991.71 267.62L991.67 267.62L990.1 267.79L990.06 267.79L988.48 267.93L988.44 267.94L986.86 268.05L986.83 268.06L985.25 268.15L985.21 268.15L983.63 268.21L983.59 268.22L982.01 268.25L981.97 268.25L980.38 268.27L980.35 268.27L978.76 268.25L978.73 268.25L977.14 268.22L977.11 268.21L975.52 268.15L975.49 268.15L973.9 268.06L973.87 268.05L972.29 267.94L972.25 267.93L970.67 267.79L970.64 267.79L969.06 267.62L969.02 267.62L967.45 267.42L967.42 267.42L965.85 267.2L965.81 267.19L964.25 266.95L964.21 266.94L962.65 266.67L962.61 266.66L961.06 266.37L961.02 266.36L959.47 266.04L959.43 266.03L957.89 265.68L957.85 265.68L956.31 265.3L956.27 265.29L954.74 264.9L954.71 264.89L953.18 264.46L953.14 264.45L951.62 264.01L951.59 264.0L950.08 263.52L950.04 263.51L948.54 263.02L948.5 263.0L947.01 262.48L946.97 262.47L945.48 261.92L945.45 261.91L943.97 261.34L943.94 261.33L942.47 260.73L942.43 260.72L940.98 260.1L940.94 260.09L939.49 259.44L939.46 259.43L938.02 258.76L937.99 258.75L936.56 258.06L936.53 258.04L935.11 257.33L935.08 257.31L933.68 256.58L933.65 256.56L932.25 255.8L932.22 255.78L930.84 255.0L930.81 254.98L929.45 254.18L929.41 254.16L928.06 253.34L928.03 253.32L926.69 252.47L926.66 252.45L925.34 251.58L925.31 251.56L924.0 250.67L923.97 250.65L922.67 249.74L922.64 249.71L921.36 248.78L921.33 248.76L920.07 247.81L920.04 247.78L918.79 246.81L918.76 246.79L917.53 245.79L917.5 245.77L916.28 244.75L916.25 244.73L915.05 243.69L915.03 243.67L913.84 242.61L913.82 242.59L912.65 241.52L912.62 241.49L911.48 240.4L911.45 240.37L910.32 239.26L910.3 239.24L909.18 238.11L909.16 238.08L908.07 236.93L908.04 236.91L906.97 235.74L906.94 235.71L905.89 234.53L905.86 234.5L904.83 233.3L904.81 233.28L903.79 232.06L903.77 232.03L902.77 230.8L902.75 230.77L901.77 229.52L901.75 229.49L900.8 228.23L900.78 228.2L899.84 226.92L899.82 226.89L898.91 225.59L898.89 225.56L898.0 224.25L897.98 224.22L897.11 222.9L897.09 222.86L896.24 221.53L896.22 221.49L895.39 220.14L895.38 220.11L894.57 218.75L894.55 218.71L893.77 217.34L893.76 217.3L893.0 215.91L892.98 215.88L892.24 214.48L892.23 214.44L891.52 213.03L891.5 213.0L890.81 211.57L890.79 211.54L890.13 210.1L890.11 210.06L889.47 208.62L889.46 208.58L888.84 207.12L888.82 207.09L888.23 205.62L888.22 205.59L887.65 204.11L887.63 204.07L887.09 202.59L887.08 202.55L886.55 201.06L886.54 201.02L886.04 199.52L886.03 199.48L885.56 197.97L885.55 197.93L885.1 196.41L885.09 196.38L884.67 194.85L884.66 194.82L884.26 193.28L884.25 193.25L883.88 191.71L883.87 191.67L883.53 190.13L883.52 190.09L883.2 188.54L883.19 188.5L882.89 186.95L882.89 186.91L882.62 185.35L882.61 185.31L882.36 183.75L882.36 183.71L882.14 182.14L882.13 182.1L881.94 180.53L881.94 180.5L881.77 178.92L881.76 178.88L881.62 177.31L881.62 177.27L881.5 175.69L881.5 175.65L881.41 174.07L881.41 174.03L881.34 172.45L881.34 172.41L881.3 170.83L881.3 170.79L881.29 169.21L881.29 169.17L881.3 167.59L881.3 167.55L881.34 165.97L881.34 165.93L881.41 164.35L881.41 164.31L881.5 162.73L881.5 162.69L881.62 161.11L881.62 161.08L881.76 159.5L881.77 159.46L881.94 157.89L881.94 157.85L882.13 156.28L882.14 156.24L882.36 154.67L882.36 154.64L882.61 153.07L882.62 153.03L882.89 151.47L882.89 151.44L883.19 149.88L883.2 149.84L883.52 148.29L883.53 148.26L883.87 146.71L883.88 146.68L884.25 145.14L884.26 145.1L884.66 143.57L884.67 143.53L885.09 142.0L885.1 141.97L885.55 140.45L885.56 140.41L885.86 139.45L885.96 139.13L886.04 138.85L886.2 138.22L886.27 137.94L886.4 137.3L886.45 137.01L886.56 136.36L886.6 136.07L886.67 135.42L886.69 135.13L886.73 134.48L886.74 134.19L886.75 133.53L886.74 133.24L886.72 132.59L886.7 132.3L886.65 131.65L886.62 131.36L886.53 130.71L886.48 130.42L886.36 129.78L886.3 129.49L886.16 128.85L886.08 128.57L885.9 127.94L885.81 127.66L885.6 127.04L885.5 126.77L885.26 126.16L885.15 125.89L884.88 125.3L884.75 125.03L884.46 124.45L884.32 124.2L883.99 123.63L883.84 123.38L883.49 122.83L883.32 122.59L882.94 122.05L882.77 121.82L882.36 121.3L882.18 121.08L881.75 120.59L881.55 120.37L881.1 119.9L880.89 119.69L880.42 119.24L880.2 119.05L879.71 118.62L879.48 118.44L878.96 118.03L878.73 117.86L878.19 117.48L877.95 117.32L877.68 117.14L871.55 113.26L871.46 113.21L871.37 113.15L871.28 113.1L864.38 108.88L864.28 108.82L864.2 108.77L864.1 108.71L857.13 104.61L857.04 104.56L856.95 104.51L856.85 104.45L849.82 100.46L849.72 100.41L849.63 100.36L849.54 100.31L842.44 96.44L842.34 96.39L842.25 96.34L842.15 96.29L834.99 92.53L834.89 92.48L834.8 92.44L834.7 92.39L827.48 88.75L827.38 88.7L827.29 88.66L827.19 88.61L819.91 85.09L819.81 85.04L819.72 85.0L819.62 84.95L812.28 81.55L812.18 81.51L812.09 81.47L811.99 81.42L804.59 78.14L804.49 78.1L804.4 78.06L804.3 78.01L796.85 74.86L796.75 74.81L796.66 74.78L796.56 74.73L789.06 71.7L788.96 71.66L788.87 71.62L788.76 71.58L781.22 68.67L781.11 68.63L781.02 68.6L780.92 68.56L773.32 65.77L773.22 65.73L773.13 65.7L773.02 65.66L765.39 63.0L765.28 62.96L765.19 62.93L765.08 62.9L757.4 60.36L757.3 60.32L757.2 60.29L757.1 60.26L749.38 57.85L749.27 57.81L749.18 57.79L749.07 57.75L741.31 55.47L741.21 55.44L741.11 55.41L741.01 55.38L733.21 53.22L733.1 53.19L733.01 53.17L732.9 53.14L725.07 51.11L724.96 51.08L724.87 51.06L724.76 51.03L716.9 49.13L716.79 49.1L716.7 49.08L716.59 49.06L709.42 47.45L709.1 47.38L708.81 47.32L708.17 47.21L707.88 47.17L707.23 47.09L706.94 47.06L706.29 47.01L706.0 46.99L705.34 46.98L705.05 46.97L704.4 46.99L704.11 47.0L703.45 47.05L703.16 47.07L702.51 47.15L702.22 47.19L701.58 47.3L701.29 47.36L700.65 47.5L700.37 47.57L699.74 47.74L699.46 47.82L698.83 48.02L698.56 48.12L697.95 48.35L697.68 48.46L697.08 48.72L696.81 48.84L696.22 49.13L695.97 49.27L695.39 49.58L695.14 49.73L694.59 50.08L694.34 50.23L693.8 50.61L693.57 50.78L693.05 51.17L692.82 51.36L692.32 51.78L692.1 51.97L691.62 52.42L691.41 52.62L690.95 53.09L690.76 53.3L690.32 53.79L690.13 54.02L689.72 54.53L689.55 54.76L689.16 55.29L689.0 55.53L688.64 56.08L688.48 56.32L688.15 56.89L688.01 57.14L687.86 57.43L687.39 58.33L687.37 58.36L686.61 59.75L686.59 59.78L685.81 61.16L685.79 61.19L684.99 62.56L684.97 62.59L684.15 63.94L684.13 63.97L683.28 65.31L683.26 65.34L682.39 66.67L682.37 66.7L681.48 68.01L681.46 68.04L680.54 69.33L680.52 69.36L679.59 70.64L679.57 70.67L678.61 71.94L678.59 71.97L677.62 73.22L677.59 73.24L676.6 74.48L676.58 74.51L675.56 75.72L675.54 75.75L674.5 76.95L674.48 76.98L673.42 78.16L673.4 78.19L672.32 79.35L672.3 79.38L671.21 80.53L671.18 80.55L670.07 81.68L670.04 81.71L668.92 82.82L668.89 82.85L667.74 83.94L667.71 83.96L666.55 85.04L666.52 85.06L665.34 86.12L665.31 86.14L664.11 87.17L664.08 87.2L662.87 88.21L662.84 88.24L661.61 89.23L661.58 89.26L660.33 90.23L660.3 90.25L659.03 91.21L659.01 91.23L657.72 92.16L657.69 92.18L656.4 93.1L656.37 93.12L655.06 94.01L655.03 94.03L653.7 94.9L653.67 94.92L652.33 95.76L652.3 95.78L650.95 96.61L650.92 96.63L649.55 97.43L649.52 97.45L648.14 98.23L648.11 98.25L646.72 99.01L646.69 99.02L645.28 99.76L645.25 99.78L643.84 100.49L643.8 100.51L642.38 101.19L642.34 101.21L640.91 101.88L640.87 101.89L639.42 102.53L639.39 102.55L637.93 103.17L637.9 103.18L636.43 103.77L636.4 103.79L634.92 104.36L634.88 104.37L633.4 104.92L633.36 104.93L631.86 105.45L631.83 105.46L630.33 105.96L630.29 105.97L628.78 106.44L628.74 106.45L627.22 106.9L627.19 106.91L625.66 107.33L625.63 107.34L624.09 107.74L624.06 107.75L622.52 108.12L622.48 108.13L620.93 108.48L620.9 108.49L619.35 108.81L619.31 108.81L617.75 109.11L617.72 109.12L616.16 109.39L616.12 109.39L614.56 109.64L614.52 109.65L612.95 109.86L612.91 109.87L611.34 110.06L611.3 110.07L609.73 110.24L609.69 110.24L608.11 110.38L608.08 110.38L606.5 110.5L606.46 110.5L604.88 110.59L604.84 110.6L603.26 110.66L603.22 110.66L601.64 110.7L601.6 110.7L600.02 110.71L599.98 110.71L598.4 110.7L598.36 110.7L596.78 110.66L596.74 110.66L595.16 110.6L595.12 110.59L593.54 110.5L593.5 110.5L591.92 110.38L591.88 110.38L590.31 110.24L590.27 110.24L588.7 110.07L588.66 110.06L587.09 109.87L587.05 109.86L585.48 109.65L585.44 109.64L583.88 109.39L583.84 109.39L582.28 109.12L582.25 109.11L580.69 108.81L580.65 108.81L579.1 108.49L579.07 108.48L577.52 108.13L577.48 108.12L575.94 107.75L575.91 107.74L574.37 107.34L574.34 107.33L572.81 106.91L572.78 106.9L571.26 106.45L571.22 106.44L569.71 105.97L569.67 105.96L568.17 105.46L568.14 105.45L566.64 104.93L566.6 104.92L565.12 104.37L565.08 104.36L563.6 103.79L563.57 103.77L562.1 103.18L562.07 103.17L560.61 102.55L560.58 102.53L559.13 101.89L559.09 101.88L557.66 101.21L557.62 101.19L556.2 100.51L556.16 100.49L554.75 99.78L554.72 99.76L553.31 99.02L553.28 99.01L551.89 98.25L551.86 98.23L550.48 97.45L550.45 97.43L549.08 96.63L549.05 96.61L547.7 95.78L547.67 95.76L546.33 94.92L546.3 94.9L544.97 94.03L544.94 94.01L543.63 93.12L543.6 93.1L542.3 92.18L542.28 92.16L540.99 91.23L540.97 91.21L539.7 90.25L539.67 90.23L538.42 89.26L538.39 89.23L537.16 88.24L537.13 88.21L535.92 87.2L535.89 87.17L534.69 86.14L534.66 86.12L533.48 85.06L533.45 85.04L532.29 83.96L532.26 83.94L531.11 82.85L531.08 82.82L529.96 81.71L529.93 81.68L528.82 80.55L528.79 80.53L527.7 79.38L527.67 79.35L526.6 78.19L526.58 78.16L525.52 76.98L525.5 76.95L524.46 75.75L524.44 75.72L523.42 74.51L523.4 74.48L522.41 73.24L522.38 73.22L521.41 71.97L521.39 71.94L520.43 70.67L520.41 70.64L519.48 69.36L519.46 69.33L518.54 68.04L518.52 68.01L517.63 66.7L517.61 66.67L516.74 65.34L516.72 65.31L515.87 63.97L515.85 63.94L515.03 62.59L515.01 62.56L514.21 61.19L514.19 61.16L513.41 59.78L513.39 59.75L512.63 58.36L512.61 58.33L512.14 57.43L511.99 57.14L511.85 56.89L511.52 56.32L511.36 56.08L511.0 55.53L510.84 55.29L510.45 54.76L510.28 54.53L509.87 54.02L509.68 53.79L509.24 53.3L509.05 53.09L508.59 52.62L508.38 52.42L507.9 51.97L507.68 51.78L507.18 51.36L506.95 51.18L506.43 50.78L506.2 50.61L505.66 50.24L505.42 50.08L504.86 49.73L504.61 49.58L504.04 49.27L503.78 49.13L503.19 48.84L502.93 48.72L502.32 48.46L502.06 48.35L501.44 48.12L501.17 48.02L500.54 47.82L500.27 47.74L499.63 47.57L499.35 47.5L498.71 47.36L498.43 47.3L497.78 47.19L497.49 47.15L496.84 47.08L496.55 47.05L495.9 47.0L495.61 46.99L494.95 46.97L494.66 46.98L494.01 46.99L493.72 47.01L493.06 47.06L492.77 47.09L492.12 47.17L491.84 47.21L491.19 47.32L490.9 47.38L490.58 47.45L483.51 49.04L483.4 49.06L483.31 49.08L483.2 49.11L475.34 51.01L475.23 51.03L475.13 51.06L475.03 51.09L467.2 53.11L467.09 53.14L466.99 53.17L466.89 53.2L459.09 55.35L458.98 55.38L458.89 55.41L458.78 55.44L451.02 57.73L450.92 57.76L450.82 57.79L450.72 57.82L443.0 60.23L442.89 60.26L442.8 60.29L442.69 60.33L435.01 62.86L434.91 62.9L434.81 62.93L434.71 62.97L427.07 65.63L426.97 65.66L426.87 65.7L426.77 65.74L419.17 68.52L419.07 68.56L418.98 68.6L418.88 68.63L411.33 71.55L411.23 71.59L411.13 71.62L411.03 71.66L403.53 74.7L403.43 74.74L403.34 74.78L403.24 74.82L395.79 77.97L395.69 78.02L395.6 78.06L395.5 78.1L388.1 81.38L388.0 81.42L387.91 81.46L387.81 81.51L380.47 84.91L380.37 84.96L380.28 85.0L380.18 85.05L372.9 88.56L372.8 88.61L372.71 88.65L372.61 88.7L365.38 92.34L365.29 92.39L365.2 92.44L365.1 92.49L357.93 96.24L357.84 96.29L357.75 96.34L357.65 96.39L350.55 100.26L350.45 100.31L350.37 100.36L350.27 100.42L343.23 104.4L343.14 104.46L343.05 104.51L342.96 104.56L335.98 108.66L335.89 108.72L335.8 108.77L335.71 108.83L328.8 113.04L328.71 113.1L328.63 113.15L328.53 113.21L322.33 117.14L322.05 117.32L321.81 117.48L321.27 117.86L321.04 118.03L320.52 118.43L320.3 118.62L319.8 119.04L319.58 119.24L319.11 119.69L318.9 119.9L318.45 120.37L318.25 120.58L317.82 121.08L317.64 121.3L317.23 121.82L317.06 122.05L316.68 122.58L316.52 122.82L316.16 123.38L316.01 123.62L315.68 124.19L315.55 124.45L315.25 125.03L315.12 125.29L314.85 125.89L314.74 126.16L314.5 126.77L314.4 127.04L314.19 127.66L314.1 127.94L313.92 128.57L313.85 128.85L313.7 129.49L313.64 129.77L313.52 130.42L313.47 130.7L313.38 131.35L313.35 131.64L313.3 132.3L313.28 132.59L313.25 133.24L313.25 133.53L313.26 134.19L313.27 134.48L313.31 135.13L313.33 135.42L313.4 136.07L313.44 136.36L313.55 137.01L313.6 137.29L313.73 137.94L313.8 138.22L313.96 138.85L314.04 139.13L314.14 139.45L314.44 140.41L314.45 140.45L314.9 141.97L314.91 142.0L315.33 143.53L315.34 143.57L315.74 145.1L315.75 145.14L316.12 146.68L316.13 146.71L316.47 148.26L316.48 148.29L316.8 149.84L316.81 149.88L317.11 151.44L317.11 151.47L317.38 153.03L317.39 153.07L317.64 154.64L317.64 154.67L317.86 156.24L317.86 156.28L318.06 157.85L318.06 157.89L318.23 159.46L318.23 159.5L318.38 161.08L318.38 161.11L318.5 162.69L318.5 162.73L318.59 164.31L318.59 164.35L318.66 165.93L318.66 165.97L318.7 167.55L318.7 167.59L318.71 169.17L318.71 169.21L318.7 170.79L318.7 170.83L318.66 172.41L318.66 172.45L318.59 174.03L318.59 174.07L318.5 175.65L318.5 175.69L318.38 177.27L318.38 177.31L318.23 178.88L318.23 178.92L318.06 180.5L318.06 180.53L317.86 182.1L317.86 182.14L317.64 183.71L317.64 183.75L317.39 185.31L317.38 185.35L317.11 186.91L317.11 186.95L316.81 188.5L316.8 188.54L316.48 190.09L316.47 190.13L316.13 191.67L316.12 191.71L315.75 193.25L315.74 193.28L315.34 194.82L315.33 194.85L314.91 196.38L314.9 196.41L314.45 197.93L314.44 197.97L313.97 199.48L313.96 199.52L313.46 201.02L313.45 201.06L312.92 202.55L312.91 202.59L312.37 204.07L312.35 204.11L311.78 205.59L311.77 205.62L311.18 207.09L311.16 207.12L310.54 208.58L310.53 208.62L309.89 210.06L309.87 210.1L309.21 211.54L309.19 211.57L308.5 213.0L308.48 213.03L307.77 214.44L307.76 214.48L307.02 215.88L307.0 215.91L306.24 217.3L306.23 217.34L305.45 218.71L305.43 218.75L304.62 220.11L304.6 220.14L303.78 221.49L303.76 221.53L302.91 222.86L302.89 222.9L302.02 224.22L302.0 224.25L301.11 225.56L301.09 225.59L300.18 226.89L300.16 226.92L299.22 228.2L299.2 228.23L298.25 229.49L298.23 229.52L297.25 230.77L297.23 230.8L296.23 232.03L296.21 232.06L295.19 233.28L295.17 233.3L294.14 234.5L294.11 234.53L293.06 235.71L293.03 235.74L291.96 236.91L291.93 236.93L290.84 238.08L290.82 238.11L289.7 239.24L289.68 239.26L288.55 240.37L288.52 240.4L287.38 241.49L287.35 241.52L286.18 242.59L286.16 242.61L284.97 243.67L284.95 243.69L283.75 244.73L283.72 244.75L282.5 245.77L282.47 245.79L281.24 246.79L281.21 246.81L279.96 247.78L279.93 247.81L278.67 248.76L278.64 248.78L277.36 249.71L277.33 249.74L276.03 250.65L276.0 250.67L274.69 251.56L274.66 251.58L273.34 252.45L273.31 252.47L271.97 253.32L271.94 253.34L270.58 254.16L270.55 254.18L269.19 254.98L269.16 255.0L267.78 255.78L267.75 255.8L266.35 256.56L266.32 256.58L264.92 257.31L264.89 257.33L263.47 258.04L263.44 258.06L262.01 258.75L261.98 258.76L260.54 259.43L260.51 259.44L259.06 260.09L259.02 260.1L257.57 260.72L257.53 260.73L256.06 261.33L256.03 261.34L254.55 261.91L254.52 261.92L253.03 262.47L252.99 262.48L251.5 263.0L251.46 263.02L249.96 263.51L249.92 263.52L248.41 264.0L248.38 264.01L246.86 264.45L246.82 264.46L245.29 264.89L245.26 264.9L243.73 265.29L243.69 265.3L242.15 265.68L242.11 265.68L240.57 266.03L240.53 266.04L238.98 266.36L238.94 266.37L237.39 266.66L237.35 266.67L235.79 266.94L235.75 266.95L234.19 267.19L234.15 267.2L232.58 267.42L232.55 267.42L230.98 267.62L230.94 267.62L229.36 267.79L229.33 267.79L227.75 267.93L227.71 267.94L226.13 268.05L226.1 268.06L224.51 268.15L224.48 268.15L222.89 268.21L222.86 268.22L221.27 268.25L221.24 268.25L219.65 268.27L219.62 268.27L218.03 268.25L217.99 268.25L216.41 268.22L216.37 268.21L214.79 268.15L214.75 268.15L213.17 268.06L213.14 268.05L211.56 267.94L211.52 267.93L209.94 267.79L209.9 267.79L208.33 267.62L208.29 267.62L206.72 267.42L206.68 267.42L205.11 267.2L205.08 267.19L203.51 266.95L203.48 266.94L201.92 266.67L201.88 266.66L200.32 266.37L200.29 266.36L198.74 266.04L198.7 266.03L197.15 265.68L197.12 265.68L195.58 265.3L195.54 265.29L194.01 264.9L193.97 264.89L192.45 264.46L192.41 264.45L190.89 264.01L190.86 264.0L189.89 263.69L189.58 263.6L189.3 263.52L188.66 263.36L188.38 263.29L187.74 263.16L187.45 263.1L186.8 263.0L186.52 262.96L185.87 262.89L185.58 262.87L184.92 262.83L184.63 262.82L183.98 262.81L183.68 262.81L183.03 262.84L182.74 262.85L182.09 262.91L181.8 262.94L181.15 263.03L180.86 263.07L180.22 263.19L179.93 263.25L179.3 263.4L179.01 263.48L178.38 263.66L178.11 263.74L177.49 263.95L177.21 264.05L176.6 264.29L176.34 264.41L175.74 264.68L175.48 264.8L174.89 265.1L174.64 265.24L174.07 265.57L173.82 265.72L173.27 266.07L173.03 266.23L172.49 266.61L172.26 266.79L171.75 267.19L171.52 267.38L171.03 267.81L170.81 268.0L170.34 268.46L170.14 268.66L169.68 269.14L169.49 269.36L169.06 269.85L168.88 270.08L168.48 270.59L168.3 270.83L167.93 271.36L167.76 271.61L167.59 271.88L163.71 278.01L163.65 278.1L163.6 278.18L163.54 278.28L159.32 285.18L159.26 285.28L159.21 285.36L159.16 285.45L155.05 292.43L155.0 292.52L154.95 292.61L154.9 292.7L150.91 299.74L150.85 299.84L150.81 299.92L150.75 300.02L146.88 307.12L146.83 307.22L146.78 307.31L146.73 307.4L142.97 314.57L142.92 314.67L142.88 314.75L142.83 314.85L139.19 322.08L139.14 322.18L139.1 322.26L139.05 322.36L135.53 329.65L135.48 329.75L135.44 329.84L135.39 329.94L131.99 337.28L131.95 337.38L131.91 337.47L131.86 337.57L128.58 344.96L128.54 345.06L128.5 345.15L128.46 345.26L125.3 352.7L125.26 352.81L125.22 352.9L125.18 353.0L122.14 360.5L122.1 360.6L122.06 360.69L122.02 360.79L119.11 368.34L119.07 368.44L119.04 368.54L119.0 368.64L116.21 376.23L116.17 376.34L116.14 376.43L116.1 376.53L113.44 384.17L113.4 384.28L113.37 384.37L113.34 384.47L110.8 392.15L110.77 392.26L110.74 392.35L110.7 392.46L108.29 400.18L108.26 400.29L108.23 400.38L108.2 400.49L105.91 408.25L105.88 408.35L105.85 408.45L105.82 408.55L103.67 416.35L103.64 416.45L103.61 416.55L103.58 416.66L101.55 424.49L101.53 424.59L101.5 424.69L101.47 424.8L99.57 432.66L99.55 432.77L99.52 432.86L99.5 432.97L97.89 440.14L97.82 440.46L97.77 440.74L97.65 441.39L97.61 441.68L97.53 442.33ZM867.24 737.53L867.65 737.45L868.07 737.36L868.48 737.26L868.89 737.14L869.3 737.01L869.7 736.87L870.1 736.71L870.49 736.54L870.87 736.36L871.25 736.17L871.62 735.96L871.99 735.74L872.34 735.51L872.69 735.27L873.04 735.02L873.37 734.75L873.69 734.48L874.01 734.19L874.32 733.89L874.61 733.59L874.9 733.27L875.17 732.95L875.44 732.61L875.69 732.27L875.93 731.92L876.16 731.56L876.38 731.2L876.59 730.83L876.79 730.45L876.97 730.06L877.14 729.67L877.29 729.28L877.44 728.88L877.57 728.47L877.68 728.06L877.79 727.65L877.88 727.23L877.95 726.81L878.02 726.39L878.06 725.97L878.1 725.54L878.12 725.12L878.13 724.69L878.13 468.38L955.74 468.38L956.17 468.37L956.59 468.35L957.01 468.32L957.44 468.27L957.86 468.21L958.28 468.13L958.69 468.04L959.11 467.94L959.52 467.82L959.92 467.69L960.32 467.55L960.72 467.39L961.11 467.22L961.49 467.04L961.87 466.84L962.24 466.64L962.61 466.42L962.97 466.19L963.32 465.95L963.66 465.69L963.99 465.43L964.32 465.15L964.63 464.87L964.94 464.57L965.24 464.26L965.52 463.95L965.8 463.62L966.06 463.29L966.31 462.95L966.56 462.6L966.79 462.24L967.01 461.88L967.21 461.5L967.41 461.12L967.59 460.74L967.76 460.35L967.92 459.95L968.06 459.55L968.19 459.15L968.31 458.74L968.41 458.33L968.5 457.91L968.58 457.49L968.64 457.07L968.69 456.65L968.72 456.22L968.74 455.8L968.75 455.37L968.75 374.42L968.74 374.0L968.72 373.57L968.69 373.15L968.64 372.72L968.58 372.3L968.5 371.88L968.41 371.47L968.31 371.05L968.19 370.64L968.06 370.24L967.92 369.84L967.76 369.44L967.59 369.05L967.41 368.67L967.21 368.29L967.01 367.92L966.79 367.55L966.56 367.19L966.31 366.84L966.06 366.5L965.8 366.17L965.52 365.84L965.24 365.53L964.94 365.22L964.63 364.93L964.32 364.64L963.99 364.36L963.66 364.1L963.32 363.85L962.97 363.6L962.61 363.37L962.24 363.15L961.87 362.95L961.49 362.75L961.11 362.57L960.72 362.4L960.32 362.24L959.92 362.1L959.52 361.97L959.11 361.85L958.69 361.75L958.28 361.66L957.86 361.58L957.44 361.52L957.01 361.47L956.59 361.44L956.17 361.42L955.74 361.41L669.62 361.41L669.19 361.42L668.76 361.44L668.34 361.47L667.92 361.52L667.5 361.58L667.08 361.66L666.66 361.75L666.25 361.85L665.84 361.97L665.43 362.1L665.03 362.24L664.64 362.4L664.25 362.57L663.86 362.75L663.48 362.95L663.11 363.15L662.75 363.37L662.39 363.6L662.04 363.85L661.7 364.1L661.36 364.36L661.04 364.64L660.72 364.93L660.42 365.22L660.12 365.53L659.83 365.84L659.56 366.17L659.29 366.5L659.04 366.84L658.8 367.19L658.57 367.55L658.35 367.92L658.14 368.29L657.95 368.67L657.77 369.05L657.6 369.44L657.44 369.84L657.3 370.24L657.17 370.64L657.05 371.05L656.95 371.47L656.86 371.88L656.78 372.3L656.72 372.72L656.67 373.15L656.63 373.57L656.61 374.0L656.61 374.42L656.61 455.37L656.61 455.8L656.63 456.22L656.67 456.65L656.72 457.07L656.78 457.49L656.86 457.91L656.95 458.33L657.05 458.74L657.17 459.15L657.3 459.55L657.44 459.95L657.6 460.35L657.77 460.74L657.95 461.12L658.14 461.5L658.35 461.88L658.57 462.24L658.8 462.6L659.04 462.95L659.29 463.29L659.56 463.62L659.83 463.95L660.12 464.26L660.42 464.57L660.72 464.87L661.04 465.15L661.36 465.43L661.7 465.69L662.04 465.95L662.39 466.19L662.75 466.42L663.11 466.64L663.48 466.84L663.86 467.04L664.25 467.22L664.64 467.39L665.03 467.55L665.43 467.69L665.84 467.82L666.25 467.94L666.66 468.04L667.08 468.13L667.5 468.21L667.92 468.27L668.34 468.32L668.76 468.35L669.19 468.37L669.62 468.38L747.23 468.38L747.23 724.69L747.24 725.12L747.26 725.54L747.29 725.97L747.34 726.39L747.4 726.81L747.48 727.23L747.57 727.65L747.67 728.06L747.79 728.47L747.92 728.88L748.06 729.28L748.22 729.67L748.39 730.06L748.57 730.45L748.76 730.83L748.97 731.2L749.19 731.56L749.42 731.92L749.66 732.27L749.92 732.61L750.18 732.95L750.46 733.27L750.74 733.59L751.04 733.89L751.34 734.19L751.66 734.48L751.98 734.75L752.32 735.02L752.66 735.27L753.01 735.51L753.37 735.74L753.73 735.96L754.11 736.17L754.48 736.36L754.87 736.54L755.26 736.71L755.66 736.87L756.06 737.01L756.46 737.14L756.87 737.26L757.28 737.36L757.7 737.45L758.12 737.53L758.54 737.59L758.96 737.64L759.39 737.68L759.81 737.7L760.24 737.7L865.12 737.7L865.54 737.7L865.97 737.68L866.39 737.64L866.81 737.59ZM114.9 1350.11L115.88 1349.75L116.82 1349.3L117.71 1348.75L118.54 1348.11L119.3 1347.4L119.99 1346.61L120.59 1345.76L121.11 1344.85L121.53 1343.89L121.85 1342.9L129.54 1314.54L180.89 1314.54L188.84 1342.98L189.17 1343.96L189.6 1344.91L190.12 1345.81L190.72 1346.65L191.41 1347.43L192.17 1348.14L193.0 1348.77L193.88 1349.31L194.82 1349.76L195.8 1350.12L196.8 1350.38L197.83 1350.53L198.87 1350.58L261.49 1350.58L262.5 1350.53L263.51 1350.38L264.5 1350.14L265.46 1349.8L266.38 1349.36L267.25 1348.84L268.07 1348.24L268.82 1347.56L269.51 1346.81L270.12 1345.99L270.65 1345.12L271.08 1344.2L271.43 1343.25L271.68 1342.26L271.84 1341.26L271.9 1340.24L271.85 1339.22L271.71 1338.22L271.47 1337.23L209.46 1127.06L209.12 1126.09L208.69 1125.16L208.17 1124.28L207.56 1123.45L206.87 1122.68L206.11 1121.99L205.29 1121.38L204.41 1120.85L203.48 1120.4L202.52 1120.06L201.52 1119.8L200.5 1119.65L199.48 1119.6L112.72 1119.6L111.7 1119.65L110.68 1119.8L109.69 1120.05L108.72 1120.4L107.8 1120.84L106.92 1121.37L106.09 1121.99L105.34 1122.68L104.65 1123.44L104.04 1124.27L103.52 1125.15L103.09 1126.08L102.75 1127.05L40.43 1337.21L40.19 1338.2L40.04 1339.21L40.0 1340.23L40.06 1341.25L40.21 1342.25L40.46 1343.24L40.81 1344.19L41.25 1345.11L41.77 1345.98L42.38 1346.8L43.07 1347.55L43.82 1348.23L44.64 1348.84L45.52 1349.36L46.44 1349.79L47.4 1350.14L48.38 1350.38L49.39 1350.53L50.41 1350.58L111.81 1350.58L112.85 1350.53L113.88 1350.37ZM154.94 1217.38L163.57 1249.12L146.45 1249.12ZM416.99 1188.54L417.95 1188.2L418.88 1187.76L419.75 1187.23L420.57 1186.63L421.33 1185.94L422.01 1185.18L422.62 1184.36L423.15 1183.49L423.58 1182.56L423.93 1181.6L424.18 1180.61L424.33 1179.6L424.38 1178.58L424.38 1130.01L424.33 1128.99L424.18 1127.98L423.93 1126.99L423.58 1126.03L423.15 1125.1L422.62 1124.23L422.01 1123.41L421.33 1122.65L420.57 1121.96L419.75 1121.36L418.88 1120.83L417.95 1120.39L416.99 1120.05L416.0 1119.8L414.99 1119.65L413.97 1119.6L242.29 1119.6L241.27 1119.65L240.26 1119.8L239.27 1120.05L238.31 1120.39L237.39 1120.83L236.51 1121.36L235.69 1121.96L234.93 1122.65L234.25 1123.41L233.64 1124.23L233.12 1125.1L232.68 1126.03L232.33 1126.99L232.09 1127.98L231.94 1128.99L231.89 1130.01L231.89 1178.58L231.94 1179.6L232.09 1180.61L232.33 1181.6L232.68 1182.56L233.12 1183.49L233.64 1184.36L234.25 1185.18L234.93 1185.94L235.69 1186.63L236.51 1187.23L237.39 1187.76L238.31 1188.2L239.27 1188.54L240.26 1188.79L241.27 1188.94L242.29 1188.99L286.26 1188.99L286.26 1340.17L286.31 1341.19L286.46 1342.2L286.71 1343.2L287.05 1344.16L287.49 1345.08L288.01 1345.96L288.62 1346.78L289.31 1347.53L290.07 1348.22L290.89 1348.83L291.76 1349.35L292.69 1349.79L293.65 1350.13L294.64 1350.38L295.65 1350.53L296.67 1350.58L359.6 1350.58L360.62 1350.53L361.63 1350.38L362.62 1350.13L363.58 1349.79L364.5 1349.35L365.38 1348.83L366.2 1348.22L366.95 1347.53L367.64 1346.78L368.25 1345.96L368.77 1345.08L369.21 1344.16L369.56 1343.2L369.8 1342.2L369.95 1341.19L370.0 1340.17L370.0 1188.99L413.97 1188.99L414.99 1188.94L416.0 1188.79ZM960.56 1126.99L960.21 1126.03L959.78 1125.1L959.25 1124.23L958.64 1123.41L957.96 1122.65L957.2 1121.96L956.38 1121.36L955.5 1120.83L954.58 1120.39L953.62 1120.05L952.63 1119.8L951.62 1119.65L950.6 1119.6L887.67 1119.6L886.65 1119.65L885.64 1119.8L884.65 1120.05L883.69 1120.39L882.76 1120.83L881.89 1121.36L881.07 1121.96L880.31 1122.65L879.62 1123.41L879.02 1124.23L878.49 1125.1L878.05 1126.03L877.71 1126.99L877.46 1127.98L877.31 1128.99L877.26 1130.01L877.26 1340.17L877.31 1341.19L877.46 1342.2L877.71 1343.2L878.05 1344.16L878.49 1345.08L879.02 1345.96L879.62 1346.78L880.31 1347.53L881.07 1348.22L881.89 1348.83L882.76 1349.35L883.69 1349.79L884.65 1350.13L885.64 1350.38L886.65 1350.53L887.67 1350.58L950.6 1350.58L951.62 1350.53L952.63 1350.38L953.62 1350.13L954.58 1349.79L955.5 1349.35L956.38 1348.83L957.2 1348.22L957.96 1347.53L958.64 1346.78L959.25 1345.96L959.78 1345.08L960.21 1344.16L960.56 1343.2L960.8 1342.2L960.95 1341.19L961.0 1340.17L961.0 1130.01L960.95 1128.99L960.8 1127.98ZM1152.61 1188.54L1153.57 1188.2L1154.5 1187.76L1155.37 1187.23L1156.19 1186.63L1156.95 1185.94L1157.64 1185.18L1158.25 1184.36L1158.77 1183.49L1159.21 1182.56L1159.55 1181.6L1159.8 1180.61L1159.95 1179.6L1160.0 1178.58L1160.0 1130.01L1159.95 1128.99L1159.8 1127.98L1159.55 1126.99L1159.21 1126.03L1158.77 1125.1L1158.25 1124.23L1157.64 1123.41L1156.95 1122.65L1156.19 1121.96L1155.37 1121.36L1154.5 1120.83L1153.57 1120.39L1152.61 1120.05L1151.62 1119.8L1150.61 1119.65L1149.59 1119.6L977.92 1119.6L976.9 1119.65L975.89 1119.8L974.9 1120.05L973.93 1120.39L973.01 1120.83L972.13 1121.36L971.31 1121.96L970.56 1122.65L969.87 1123.41L969.26 1124.23L968.74 1125.1L968.3 1126.03L967.96 1126.99L967.71 1127.98L967.56 1128.99L967.51 1130.01L967.51 1178.58L967.56 1179.6L967.71 1180.61L967.96 1181.6L968.3 1182.56L968.74 1183.49L969.26 1184.36L969.87 1185.18L970.56 1185.94L971.31 1186.63L972.13 1187.23L973.01 1187.76L973.93 1188.2L974.9 1188.54L975.89 1188.79L976.9 1188.94L977.92 1188.99L1021.88 1188.99L1021.88 1340.17L1021.93 1341.19L1022.08 1342.2L1022.33 1343.2L1022.68 1344.16L1023.11 1345.08L1023.64 1345.96L1024.25 1346.78L1024.93 1347.53L1025.69 1348.22L1026.51 1348.83L1027.38 1349.35L1028.31 1349.79L1029.27 1350.13L1030.26 1350.38L1031.27 1350.53L1032.29 1350.58L1095.22 1350.58L1096.24 1350.53L1097.25 1350.38L1098.24 1350.13L1099.2 1349.79L1100.12 1349.35L1101.0 1348.83L1101.82 1348.22L1102.58 1347.53L1103.26 1346.78L1103.87 1345.96L1104.4 1345.08L1104.83 1344.16L1105.18 1343.2L1105.43 1342.2L1105.58 1341.19L1105.63 1340.17L1105.63 1188.99L1149.59 1188.99L1150.61 1188.94L1151.62 1188.79ZM571.42 1192.17L571.39 1191.36L571.38 1190.49L571.37 1189.6L571.38 1189.03L571.39 1188.51L571.42 1188.03L571.45 1187.57L571.49 1187.15L571.54 1186.76L571.6 1186.4L571.65 1186.07L571.72 1185.77L571.73 1185.73L571.86 1185.65L571.96 1185.6L572.12 1185.53L572.35 1185.44L572.63 1185.35L572.98 1185.24L573.39 1185.13L573.86 1185.03L574.38 1184.92L574.96 1184.82L575.6 1184.73L576.3 1184.65L577.11 1184.57L578.0 1184.49L578.95 1184.42L579.97 1184.35L581.05 1184.3L582.19 1184.24L583.4 1184.2L584.66 1184.17L585.98 1184.14L587.36 1184.12L588.79 1184.1L590.29 1184.1L591.88 1184.1L593.5 1184.11L595.13 1184.13L596.78 1184.15L598.45 1184.18L600.14 1184.21L601.84 1184.25L603.56 1184.3L605.3 1184.35L607.06 1184.41L608.83 1184.48L610.62 1184.55L612.42 1184.63L614.2 1184.71L615.97 1184.8L617.73 1184.9L619.49 1185.0L621.23 1185.11L622.97 1185.22L624.7 1185.35L626.42 1185.47L628.13 1185.61L629.83 1185.75L631.53 1185.89L633.22 1186.04L634.87 1186.19L636.48 1186.35L638.06 1186.5L639.59 1186.65L641.09 1186.8L642.54 1186.95L643.96 1187.1L645.33 1187.25L646.67 1187.39L647.97 1187.54L649.24 1187.69L650.27 1187.76L651.31 1187.73L652.33 1187.6L653.34 1187.36L654.31 1187.03L655.25 1186.6L656.15 1186.08L656.98 1185.47L657.76 1184.78L658.46 1184.03L659.08 1183.2L659.62 1182.32L660.06 1181.39L660.41 1180.41L660.67 1179.41L660.82 1178.39L660.87 1177.36L660.87 1133.68L660.82 1132.68L660.68 1131.69L660.44 1130.72L660.11 1129.78L659.7 1128.87L659.19 1128.01L658.61 1127.2L657.95 1126.45L657.23 1125.76L656.44 1125.15L655.59 1124.62L654.7 1124.17L653.77 1123.81L652.81 1123.54L651.51 1123.23L651.35 1123.2L649.99 1122.91L649.84 1122.88L648.42 1122.59L648.28 1122.57L646.8 1122.29L646.68 1122.27L645.14 1122.0L645.02 1121.98L643.42 1121.72L643.31 1121.7L641.65 1121.45L641.55 1121.44L639.83 1121.2L639.74 1121.18L637.96 1120.95L637.87 1120.94L636.03 1120.71L635.95 1120.7L634.05 1120.49L633.97 1120.48L632.01 1120.27L631.96 1120.27L629.96 1120.06L629.93 1120.06L627.92 1119.86L627.89 1119.86L625.86 1119.67L625.82 1119.66L623.77 1119.48L623.74 1119.47L621.67 1119.29L621.64 1119.29L619.55 1119.11L619.52 1119.1L617.41 1118.93L617.38 1118.92L615.26 1118.75L615.23 1118.75L613.08 1118.58L613.05 1118.58L610.89 1118.42L610.86 1118.42L608.67 1118.26L608.65 1118.25L606.44 1118.1L606.4 1118.1L604.19 1117.95L604.13 1117.95L601.93 1117.81L601.87 1117.81L599.67 1117.69L599.61 1117.69L597.42 1117.58L597.36 1117.58L595.17 1117.48L595.11 1117.48L592.93 1117.39L592.87 1117.39L590.7 1117.32L590.64 1117.32L588.47 1117.26L588.41 1117.26L586.25 1117.22L586.19 1117.22L584.04 1117.18L583.98 1117.18L581.83 1117.16L581.77 1117.16L579.63 1117.16L579.54 1117.16L576.7 1117.17L576.58 1117.18L573.78 1117.22L573.66 1117.23L570.89 1117.31L570.76 1117.31L568.02 1117.42L567.9 1117.43L565.19 1117.57L565.06 1117.58L562.38 1117.75L562.25 1117.76L559.61 1117.97L559.47 1117.98L556.86 1118.22L556.72 1118.23L554.14 1118.5L554.0 1118.52L551.45 1118.82L551.31 1118.84L548.79 1119.17L548.64 1119.19L546.16 1119.56L545.94 1119.59L543.5 1120.01L543.22 1120.06L540.83 1120.53L540.54 1120.59L538.2 1121.12L537.9 1121.19L535.61 1121.78L535.31 1121.86L533.07 1122.51L532.76 1122.61L530.57 1123.31L530.26 1123.42L528.12 1124.19L527.8 1124.31L525.71 1125.14L525.39 1125.27L523.36 1126.16L523.04 1126.3L521.05 1127.25L520.73 1127.41L518.79 1128.42L518.47 1128.59L516.59 1129.66L516.2 1129.88L514.38 1131.02L513.94 1131.31L512.18 1132.53L511.76 1132.84L510.07 1134.15L509.66 1134.48L508.04 1135.88L507.65 1136.23L506.09 1137.71L505.72 1138.08L504.24 1139.64L503.89 1140.02L502.48 1141.67L502.15 1142.06L500.81 1143.79L500.51 1144.19L499.23 1146.0L498.96 1146.4L497.75 1148.3L497.5 1148.7L496.36 1150.69L496.14 1151.08L495.06 1153.16L494.84 1153.6L493.84 1155.77L493.63 1156.26L492.72 1158.54L492.54 1159.02L491.72 1161.41L491.57 1161.86L490.83 1164.37L490.72 1164.8L490.07 1167.41L489.97 1167.82L489.41 1170.55L489.34 1170.93L488.86 1173.78L488.8 1174.14L488.41 1177.09L488.37 1177.43L488.07 1180.5L488.04 1180.82L487.82 1184.0L487.81 1184.3L487.68 1187.59L487.67 1187.87L487.63 1191.28L487.63 1191.46L487.64 1193.73L487.64 1193.83L487.67 1196.08L487.67 1196.18L487.72 1198.39L487.73 1198.49L487.8 1200.67L487.81 1200.78L487.9 1202.93L487.91 1203.04L488.02 1205.16L488.03 1205.27L488.17 1207.35L488.18 1207.47L488.34 1209.52L488.35 1209.64L488.53 1211.67L488.54 1211.79L488.74 1213.78L488.75 1213.91L488.98 1215.86L488.99 1215.99L489.24 1217.92L489.26 1218.1L489.53 1219.99L489.57 1220.22L489.88 1222.06L489.92 1222.3L490.27 1224.09L490.32 1224.35L490.7 1226.09L490.76 1226.35L491.18 1228.05L491.25 1228.32L491.7 1229.98L491.78 1230.26L492.27 1231.86L492.36 1232.15L492.89 1233.71L492.99 1234.01L493.55 1235.52L493.67 1235.83L494.27 1237.3L494.41 1237.61L495.04 1239.03L495.19 1239.35L495.86 1240.72L496.03 1241.05L496.73 1242.38L496.92 1242.71L497.66 1244.0L497.87 1244.33L498.65 1245.57L498.87 1245.91L499.69 1247.1L499.93 1247.44L500.79 1248.58L501.05 1248.91L501.95 1250.02L502.22 1250.34L503.16 1251.4L503.45 1251.72L504.42 1252.73L504.73 1253.04L505.74 1254.01L506.06 1254.31L507.11 1255.23L507.44 1255.51L508.53 1256.39L508.88 1256.66L510.0 1257.5L510.39 1257.77L511.57 1258.57L512.0 1258.84L513.23 1259.59L513.66 1259.83L514.95 1260.53L515.37 1260.75L516.72 1261.4L517.13 1261.59L518.54 1262.19L518.94 1262.36L520.4 1262.91L520.79 1263.05L522.31 1263.57L522.69 1263.69L524.26 1264.15L524.63 1264.25L526.26 1264.67L526.61 1264.75L528.3 1265.12L528.63 1265.19L530.37 1265.51L530.69 1265.57L532.5 1265.85L532.79 1265.89L571.89 1270.77L572.04 1270.79L573.42 1270.94L574.71 1271.09L575.95 1271.24L577.14 1271.39L578.27 1271.55L579.35 1271.7L580.37 1271.85L581.34 1272.01L582.25 1272.16L583.1 1272.31L583.88 1272.46L584.6 1272.61L585.21 1272.75L585.76 1272.88L586.26 1273.02L586.7 1273.15L587.08 1273.28L587.4 1273.4L587.66 1273.5L587.73 1273.53L587.74 1273.58L587.8 1273.84L587.85 1274.16L587.91 1274.54L587.96 1274.96L588.01 1275.43L588.05 1275.95L588.08 1276.52L588.11 1277.13L588.12 1277.78L588.13 1278.49L588.12 1278.94L588.12 1279.41L588.11 1279.86L588.1 1280.31L588.08 1280.74L588.06 1281.16L588.04 1281.56L588.01 1281.96L587.99 1282.35L587.96 1282.72L587.92 1283.08L587.89 1283.41L587.85 1283.71L587.81 1283.97L587.78 1284.22L587.74 1284.44L587.71 1284.58L587.47 1284.66L587.03 1284.78L586.5 1284.91L585.87 1285.03L585.16 1285.16L584.36 1285.28L583.47 1285.38L582.46 1285.49L581.33 1285.59L580.1 1285.68L578.77 1285.76L577.33 1285.83L575.8 1285.9L574.17 1285.96L572.45 1286.0L570.63 1286.04L568.72 1286.06L566.72 1286.08L564.63 1286.08L563.49 1286.08L562.31 1286.07L561.09 1286.06L559.82 1286.03L558.51 1286.01L557.16 1285.97L555.76 1285.93L554.32 1285.89L552.84 1285.83L551.32 1285.77L549.76 1285.71L548.15 1285.64L546.51 1285.56L544.85 1285.48L543.18 1285.39L541.48 1285.3L539.77 1285.21L538.04 1285.11L536.3 1285.01L534.53 1284.9L532.75 1284.79L530.95 1284.67L529.14 1284.55L527.31 1284.43L525.46 1284.3L523.61 1284.17L521.76 1284.04L519.9 1283.9L518.04 1283.77L516.18 1283.63L514.32 1283.49L512.46 1283.35L510.59 1283.2L508.73 1283.06L506.86 1282.91L504.98 1282.76L503.97 1282.72L502.96 1282.79L501.96 1282.95L500.99 1283.21L500.04 1283.57L499.13 1284.01L498.27 1284.54L497.47 1285.15L496.72 1285.83L496.05 1286.59L495.45 1287.4L494.94 1288.27L494.51 1289.19L494.17 1290.14L493.93 1291.12L493.78 1292.12L493.74 1293.13L493.74 1337.42L493.78 1338.42L493.92 1339.4L494.16 1340.37L494.49 1341.3L494.9 1342.21L495.4 1343.07L495.98 1343.87L496.63 1344.62L497.35 1345.31L498.13 1345.92L498.97 1346.45L499.85 1346.91L500.78 1347.27L501.73 1347.55L502.71 1347.73L504.51 1347.98L504.58 1347.99L506.42 1348.24L506.49 1348.25L508.38 1348.49L508.44 1348.49L510.37 1348.73L510.43 1348.73L512.4 1348.96L512.46 1348.96L514.47 1349.18L514.53 1349.19L516.58 1349.4L516.64 1349.41L518.74 1349.62L518.79 1349.62L520.93 1349.82L520.98 1349.83L523.16 1350.02L523.21 1350.02L525.44 1350.21L525.48 1350.21L527.75 1350.4L527.79 1350.4L530.08 1350.57L530.11 1350.58L532.42 1350.75L532.44 1350.75L534.76 1350.92L534.79 1350.92L537.12 1351.08L537.14 1351.08L539.49 1351.24L539.51 1351.24L541.88 1351.4L541.9 1351.4L544.27 1351.55L544.29 1351.55L546.68 1351.7L546.7 1351.7L549.1 1351.84L549.12 1351.84L551.53 1351.98L551.56 1351.98L553.98 1352.12L554.0 1352.12L556.44 1352.25L556.47 1352.25L558.9 1352.37L558.94 1352.37L561.34 1352.48L561.38 1352.49L563.75 1352.59L563.79 1352.59L566.13 1352.68L566.17 1352.68L568.48 1352.76L568.52 1352.76L570.8 1352.83L570.85 1352.83L573.1 1352.89L573.15 1352.89L575.37 1352.94L575.41 1352.94L577.61 1352.98L577.65 1352.98L579.82 1353.0L579.87 1353.0L582.0 1353.02L582.05 1353.02L584.15 1353.03L584.22 1353.03L586.4 1353.02L586.48 1353.02L588.64 1352.99L588.72 1352.99L590.86 1352.95L590.94 1352.95L593.06 1352.89L593.14 1352.88L595.24 1352.81L595.33 1352.8L597.4 1352.71L597.49 1352.71L599.54 1352.59L599.63 1352.59L601.66 1352.46L601.76 1352.46L603.77 1352.31L603.86 1352.3L605.85 1352.14L605.95 1352.13L607.91 1351.96L608.01 1351.95L609.96 1351.75L610.11 1351.74L612.03 1351.51L612.25 1351.49L614.14 1351.23L614.35 1351.2L616.22 1350.9L616.44 1350.87L618.28 1350.54L618.5 1350.49L620.31 1350.13L620.54 1350.08L622.32 1349.68L622.55 1349.62L624.31 1349.19L624.54 1349.12L626.27 1348.65L626.51 1348.58L628.21 1348.07L628.45 1348.0L630.12 1347.45L630.36 1347.37L632.01 1346.79L632.25 1346.7L633.87 1346.08L634.16 1345.96L635.75 1345.3L636.09 1345.15L637.64 1344.44L637.97 1344.27L639.49 1343.51L639.82 1343.33L641.3 1342.52L641.63 1342.33L643.08 1341.46L643.4 1341.26L644.81 1340.34L645.13 1340.12L646.5 1339.15L646.81 1338.92L648.14 1337.91L648.45 1337.67L649.74 1336.6L650.03 1336.35L651.3 1335.23L651.58 1334.97L652.8 1333.8L653.07 1333.53L654.26 1332.31L654.55 1331.99L655.7 1330.71L656.02 1330.34L657.12 1328.99L657.41 1328.62L658.46 1327.19L658.73 1326.82L659.74 1325.33L659.97 1324.96L660.94 1323.39L661.15 1323.03L662.07 1321.4L662.26 1321.04L663.13 1319.33L663.3 1318.98L664.12 1317.21L664.27 1316.87L665.04 1315.02L665.18 1314.69L665.9 1312.78L666.02 1312.46L666.7 1310.48L666.8 1310.17L667.43 1308.12L667.53 1307.8L668.11 1305.67L668.19 1305.36L668.73 1303.14L668.8 1302.84L669.28 1300.54L669.33 1300.26L669.77 1297.87L669.81 1297.61L670.19 1295.14L670.23 1294.88L670.56 1292.33L670.59 1292.09L670.87 1289.45L670.89 1289.23L671.12 1286.5L671.14 1286.29L671.31 1283.48L671.32 1283.28L671.45 1280.39L671.46 1280.19L671.53 1277.22L671.54 1277.04L671.56 1273.97L671.56 1273.85L671.56 1272.23L671.56 1272.15L671.54 1270.56L671.54 1270.47L671.5 1268.92L671.5 1268.83L671.46 1267.3L671.45 1267.21L671.4 1265.71L671.39 1265.62L671.32 1264.15L671.32 1264.05L671.23 1262.61L671.23 1262.51L671.13 1261.1L671.12 1260.99L671.02 1259.61L671.01 1259.5L670.89 1258.15L670.87 1258.03L670.74 1256.71L670.73 1256.59L670.58 1255.3L670.57 1255.2L670.41 1253.95L670.41 1253.88L670.25 1252.65L670.24 1252.58L670.08 1251.38L670.07 1251.31L669.9 1250.14L669.89 1250.06L669.72 1248.92L669.7 1248.84L669.53 1247.72L669.52 1247.64L669.34 1246.55L669.32 1246.47L669.14 1245.4L669.12 1245.31L668.93 1244.27L668.92 1244.18L668.72 1243.17L668.7 1243.08L668.51 1242.09L668.49 1241.99L668.29 1241.04L668.25 1240.89L668.04 1239.96L668.0 1239.77L667.78 1238.87L667.73 1238.67L667.49 1237.79L667.43 1237.58L667.18 1236.72L667.12 1236.51L666.86 1235.67L666.79 1235.45L666.51 1234.64L666.44 1234.41L666.15 1233.62L666.06 1233.38L665.76 1232.62L665.66 1232.37L665.35 1231.63L665.24 1231.38L664.92 1230.66L664.8 1230.4L664.46 1229.7L664.33 1229.44L663.98 1228.76L663.85 1228.53L663.08 1227.13L662.93 1226.88L662.14 1225.53L661.98 1225.27L661.17 1223.99L661.0 1223.72L660.16 1222.49L659.97 1222.21L659.12 1221.04L658.91 1220.76L658.05 1219.63L657.82 1219.35L656.93 1218.28L656.68 1217.99L655.77 1216.98L655.5 1216.69L654.57 1215.73L654.28 1215.44L653.33 1214.54L653.02 1214.25L652.05 1213.4L651.71 1213.11L650.73 1212.32L650.42 1212.09L649.42 1211.34L649.17 1211.16L648.15 1210.44L647.89 1210.27L646.85 1209.59L646.59 1209.42L645.53 1208.77L645.26 1208.61L644.19 1208.0L643.91 1207.84L642.82 1207.27L642.54 1207.12L641.43 1206.58L641.14 1206.44L640.02 1205.93L639.73 1205.8L638.59 1205.33L638.3 1205.21L637.14 1204.77L636.85 1204.66L635.67 1204.25L635.38 1204.15L634.19 1203.78L633.96 1203.71L632.76 1203.36L632.61 1203.32L631.39 1202.99L631.24 1202.95L630.02 1202.63L629.87 1202.6L628.63 1202.3L628.48 1202.27L627.24 1201.99L627.09 1201.95L625.83 1201.69L625.68 1201.66L624.42 1201.41L624.27 1201.39L623.0 1201.16L622.85 1201.13L621.56 1200.92L621.42 1200.9L620.12 1200.7L619.98 1200.68L618.67 1200.5L618.53 1200.48L617.21 1200.32L617.15 1200.32L580.65 1196.06L579.44 1195.88L578.18 1195.69L576.99 1195.5L575.88 1195.31L574.84 1195.12L573.88 1194.94L572.99 1194.76L572.18 1194.59L571.57 1194.45L571.55 1194.25L571.5 1193.62L571.45 1192.92ZM762.48 1282.41L762.35 1281.69L762.22 1280.9L762.11 1280.02L762.0 1279.07L761.91 1278.05L761.84 1276.93L761.77 1275.67L761.71 1274.3L761.65 1272.84L761.6 1271.29L761.55 1269.66L761.51 1267.94L761.48 1266.14L761.45 1264.25L761.43 1262.28L761.41 1260.22L761.4 1258.08L761.4 1255.86L761.4 1130.01L761.35 1128.99L761.2 1127.98L760.95 1126.99L760.61 1126.03L760.17 1125.1L759.64 1124.23L759.03 1123.41L758.35 1122.65L757.59 1121.96L756.77 1121.36L755.9 1120.83L754.97 1120.39L754.01 1120.05L753.02 1119.8L752.01 1119.65L750.99 1119.6L688.06 1119.6L687.04 1119.65L686.03 1119.8L685.04 1120.05L684.08 1120.39L683.16 1120.83L682.28 1121.36L681.46 1121.96L680.7 1122.65L680.02 1123.41L679.41 1124.23L678.88 1125.1L678.45 1126.03L678.1 1126.99L677.85 1127.98L677.7 1128.99L677.65 1130.01L677.65 1244.56L677.65 1244.58L677.66 1248.31L677.66 1248.35L677.68 1251.99L677.68 1252.04L677.72 1255.6L677.72 1255.65L677.77 1259.12L677.78 1259.17L677.84 1262.57L677.84 1262.62L677.92 1265.93L677.93 1265.99L678.02 1269.22L678.02 1269.27L678.14 1272.42L678.14 1272.48L678.26 1275.55L678.27 1275.61L678.41 1278.59L678.41 1278.66L678.57 1281.56L678.57 1281.63L678.74 1284.44L678.75 1284.57L678.95 1287.31L678.97 1287.51L679.21 1290.17L679.23 1290.37L679.52 1292.96L679.55 1293.18L679.88 1295.69L679.92 1295.91L680.29 1298.36L680.33 1298.59L680.76 1300.96L680.8 1301.21L681.27 1303.5L681.33 1303.76L681.84 1305.98L681.91 1306.25L682.47 1308.4L682.54 1308.68L683.15 1310.75L683.24 1311.05L683.88 1313.05L683.99 1313.36L684.68 1315.29L684.82 1315.66L685.57 1317.51L685.75 1317.93L686.57 1319.72L686.77 1320.15L687.66 1321.87L687.89 1322.3L688.84 1323.96L689.09 1324.39L690.11 1325.98L690.4 1326.4L691.48 1327.94L691.79 1328.35L692.94 1329.82L693.27 1330.22L694.49 1331.62L694.85 1332.01L696.14 1333.35L696.5 1333.72L697.86 1335.0L698.25 1335.34L699.67 1336.56L700.07 1336.88L701.56 1338.03L701.98 1338.33L703.55 1339.43L703.98 1339.71L705.65 1340.75L706.06 1341.0L707.83 1341.99L708.23 1342.21L710.09 1343.15L710.48 1343.33L712.44 1344.22L712.81 1344.38L714.86 1345.22L715.21 1345.36L717.36 1346.15L717.69 1346.27L719.94 1347.01L720.26 1347.1L722.6 1347.79L722.9 1347.88L725.33 1348.51L725.62 1348.58L728.15 1349.17L728.42 1349.23L731.04 1349.76L731.29 1349.81L734.03 1350.3L734.25 1350.33L737.11 1350.78L737.32 1350.81L740.31 1351.21L740.5 1351.24L743.61 1351.6L743.79 1351.62L747.03 1351.94L747.2 1351.95L750.56 1352.23L750.71 1352.24L754.2 1352.47L754.35 1352.48L757.96 1352.67L758.09 1352.68L761.83 1352.83L761.96 1352.83L765.82 1352.94L765.94 1352.94L769.93 1353.0L770.04 1353.0L774.15 1353.03L774.26 1353.03L778.32 1353.0L778.44 1353.0L782.38 1352.94L782.5 1352.94L786.32 1352.83L786.45 1352.83L790.15 1352.68L790.29 1352.67L793.87 1352.48L794.01 1352.47L797.47 1352.24L797.63 1352.23L800.97 1351.95L801.13 1351.94L804.35 1351.62L804.53 1351.6L807.63 1351.24L807.82 1351.21L810.8 1350.81L811.0 1350.78L813.86 1350.33L814.08 1350.3L816.81 1349.81L817.06 1349.76L819.69 1349.23L819.96 1349.17L822.49 1348.58L822.77 1348.51L825.21 1347.88L825.51 1347.79L827.86 1347.11L828.17 1347.01L830.42 1346.27L830.76 1346.16L832.91 1345.37L833.26 1345.23L835.33 1344.39L835.69 1344.24L837.67 1343.35L838.04 1343.17L839.92 1342.22L840.32 1342.02L842.1 1341.02L842.51 1340.79L844.2 1339.74L844.62 1339.47L846.22 1338.38L846.63 1338.08L848.15 1336.93L848.55 1336.61L850.0 1335.39L850.39 1335.05L851.76 1333.77L852.14 1333.4L853.45 1332.06L853.8 1331.67L855.04 1330.27L855.38 1329.87L856.55 1328.4L856.86 1327.98L857.96 1326.45L858.25 1326.02L859.27 1324.42L859.54 1323.99L860.5 1322.33L860.73 1321.89L861.62 1320.17L861.83 1319.73L862.65 1317.95L862.84 1317.51L863.58 1315.66L863.73 1315.29L864.42 1313.36L864.53 1313.05L865.17 1311.05L865.26 1310.75L865.87 1308.68L865.94 1308.4L866.5 1306.25L866.57 1305.98L867.08 1303.76L867.14 1303.5L867.61 1301.21L867.65 1300.96L868.08 1298.59L868.12 1298.36L868.49 1295.91L868.53 1295.69L868.86 1293.18L868.89 1292.96L869.18 1290.37L869.2 1290.17L869.44 1287.51L869.46 1287.31L869.66 1284.57L869.67 1284.44L869.84 1281.63L869.84 1281.56L870.0 1278.66L870.0 1278.59L870.14 1275.61L870.15 1275.55L870.27 1272.48L870.27 1272.42L870.39 1269.27L870.39 1269.22L870.48 1265.99L870.49 1265.93L870.57 1262.62L870.57 1262.57L870.64 1259.17L870.64 1259.12L870.69 1255.65L870.69 1255.6L870.73 1252.04L870.73 1251.99L870.75 1248.35L870.75 1248.31L870.76 1244.58L870.76 1244.56L870.76 1130.01L870.71 1128.99L870.56 1127.98L870.31 1126.99L869.96 1126.03L869.53 1125.1L869.0 1124.23L868.39 1123.41L867.71 1122.65L866.95 1121.96L866.13 1121.36L865.25 1120.83L864.33 1120.39L863.37 1120.05L862.38 1119.8L861.37 1119.65L860.35 1119.6L797.42 1119.6L796.4 1119.65L795.39 1119.8L794.4 1120.05L793.44 1120.39L792.51 1120.83L791.64 1121.36L790.82 1121.96L790.06 1122.65L789.38 1123.41L788.77 1124.23L788.24 1125.1L787.81 1126.03L787.46 1126.99L787.21 1127.98L787.06 1128.99L787.01 1130.01L787.01 1255.86L787.01 1258.08L787.0 1260.22L786.98 1262.28L786.96 1264.25L786.93 1266.14L786.9 1267.94L786.86 1269.66L786.81 1271.29L786.76 1272.84L786.7 1274.3L786.64 1275.67L786.57 1276.92L786.5 1278.03L786.41 1279.04L786.3 1279.97L786.18 1280.82L786.05 1281.59L785.91 1282.28L785.77 1282.88L785.63 1283.4L785.49 1283.82L785.37 1284.15L785.3 1284.32L785.13 1284.37L784.69 1284.46L784.1 1284.56L783.43 1284.67L782.68 1284.76L781.86 1284.85L780.97 1284.93L780.0 1285.0L778.97 1285.06L777.88 1285.11L776.71 1285.14L775.49 1285.16L774.21 1285.17L772.92 1285.16L771.69 1285.14L770.52 1285.11L769.42 1285.06L768.37 1285.0L767.4 1284.93L766.48 1284.85L765.64 1284.76L764.86 1284.66L764.16 1284.56L763.54 1284.45L763.06 1284.35L763.01 1284.34L762.9 1284.03L762.76 1283.58L762.62 1283.03Z"/></svg>
